<svg id="Layer_1" data-name="Layer 1" xmlns="http://www.w3.org/2000/svg" viewBox="0 0 500 500"><defs><style>.cls-1{fill:#d9d9d9;}</style></defs><title>antarctica</title><path class="cls-1" d="M237.05,59.33c-1,2.74-2,5.48-2.14,6.08s-1.55,1.28-3,1.54-2.57.77-2.57,1.12a6.14,6.14,0,0,1-.86,1.79c-.68,1-1.28.77-3.68-1.54-3.17-3.08-9.16-4.79-9.16-2.65a5.86,5.86,0,0,0,1.28,2.82c2.14,2.82,1.54,3.68-3.08,4.28-5.82.77-8.82,3.94-10.19,10.36-.68,3.51-1.28,4.54-2.22,4.11-.68-.25-3.43,1-6.17,2.91a62.47,62.47,0,0,1-7.1,4.28c-2.06.86-2.14,1.29-2.06,7,.09,3.34.34,6.34.68,6.6,1.46,1.45.35,3.59-3.42,6.85-3.94,3.42-4,3.68-2.92,5.73,1,1.89.95,2.66-.17,5.65a12.11,12.11,0,0,0-.94,5.91c.35,1.89-.08,3.08-1.79,5.22-2.06,2.4-2.23,3-1.38,4.88s.6,2.57-.94,4.71c-1.45,1.89-2,4.11-2.22,8.48l-.35,6h-3.59c-5.4,0-6.17.86-5.06,5.47l.86,3.95-4.36,1.28a59.76,59.76,0,0,1-11.39,1.88c-3.94.26-7.11.86-7.11,1.2,0,1.54-5.47,3.43-12.75,4.54-4.11.6-8.48,1.71-9.59,2.48a9.3,9.3,0,0,1-4.88,1.46c-2.48,0-3.85-1-10-7.19-6.94-7-7.2-7.2-16.1-10.19-7.79-2.57-9.93-3.77-15.16-8.14a50.59,50.59,0,0,0-14-8.39C50.4,146,46.63,142.89,41,134.5c-8.81-12.93-11.12-12.84-9.5.34,1.89,15.58,6.6,28.25,12.16,33a50.79,50.79,0,0,0,7.53,4.8c2.66,1.37,5.57,3.59,6.42,5a18.63,18.63,0,0,0,4.11,4.11c2.92,2,3,2.65.52,3.34-5.06,1.54-7.37,3.25-8.82,6.5s-1.46,3.43-.09,4.45a7.37,7.37,0,0,1,2.06,3.6c.51,1.88,1.62,3.08,4.45,4.45C64,206,65,205.9,65,203.5a3.93,3.93,0,0,1,1.12-2.57c.94-.68,1.79-.17,3.94,2.48,1.54,1.89,3.51,3.43,4.36,3.43,1.46,0,1.71.6,1.71,3.34,0,1.88.43,3.68,1,4s.76,2.06.6,3.85c-.35,4.12,1.54,4.63,3,.77.69-1.79,1.54-2.57,2.92-2.57,1.71,0,2,.43,2,3.17a20.26,20.26,0,0,0,1.71,7c2.22,4.88,2.14,5.22-.86,5.22-2.23,0-2.57.35-2.57,2.23,0,1.45-1.54,3.76-4.79,7.28l-4.88,5.06.6,5.73c.34,3.26,1.11,8.31,1.79,11.39s.95,5.82.69,6.25-2.74.43-5.57.09l-5.22-.6.51,4.79c.94,9.17,4.11,12.67,13.27,14.81l4.54,1-.52-2.48c-.68-3.08.17-4.62,1.8-3.26.68.52,1.2,2.49,1.2,4.28,0,2.92.34,3.43,3,4.71,4,1.88,4.28,2.57,2.56,5.82a6.88,6.88,0,0,0-.94,5.14c.6,2.31.77,2.31,4.63,1.8l4-.52,1.63,7.54c1.79,8.3,2.14,13.95,1.2,20.12l-.69,4.11H112v5.65c0,4.62.25,5.56,1.28,5.14,3.77-1.37,9.67-1.46,12.24-.17,1.54.76,2.74,1.79,2.74,2.22,0,1.88,6.6,5.48,13.87,7.62a104.38,104.38,0,0,1,15,5.9c3.94,2,7.28,3.6,7.54,3.6s.43-.77.43-1.71c0-2.06,0-2.06,15.4-.77l11.39.94,2.57-2.74c2.14-2.31,3-2.65,5.22-2.22,8.05,1.54,8.74,1.54,9.85.25.94-1.19,1.28-1.11,2.74.35s2.74,1.71,9.59,1.54c7.62-.26,8.13-.17,15.58,3.25,9.76,4.45,15.92,6.25,21.06,6.25,5.48,0,6.42-.43,9.42-4.79,4.19-6.17,5.05-5.4,10.79,9.33,2.31,6,2.82,8.56,2.48,11-.25,1.8-.68,4.88-.94,6.94-.86,6.59-1.28,7.36-5.14,10-3.08,2.14-3.85,3.25-4.45,6.25s-1.28,3.94-3.93,5.31c-5.66,3.08-5,5.22,2.57,7.62,4.11,1.37,8.81,4.88,8.81,6.59,0,1.2,2.32.86,3.43-.51,1.46-1.8,4.46-1.63,6.25.43,1.2,1.36,1.8,1.54,3.68.76a7.37,7.37,0,0,1,3.68-.34c.78.34,1.89-.26,2.66-1.29,1.28-1.71,1.37-1.71,5.9,1.46s4.71,3.25,13.36,3.25c6.93,0,9.07.35,11,1.54,1.29.86,2.49,1.46,2.57,1.29,4.71-7.53,5.74-8.56,6.94-6.68,1,1.71,3.42.77,6.93-2.65,3.77-3.68,5.48-3.77,5.48-.26,0,2.31.94,2.48,6.76,1.11,2.06-.43,3.86-.69,4-.51a6.7,6.7,0,0,1-.43,3c-.77,2.65-.69,2.56,5.22-2.49,4.19-3.6,6.33-4.88,6.93-4.28s1.63.35,3.34-.86a18.69,18.69,0,0,1,5.39-2.57,10.17,10.17,0,0,0,4.71-3.33c3.08-4.28,10-6,15.84-3.94,1.28.52,1.11.17-.6-1.37l-2.4-2.06,2.92-4.28c1.71-2.48,4.19-5,6.16-5.9a38.74,38.74,0,0,0,3.68-2c.17-.09-.86-1.89-2.31-3.94-3.34-4.63-3.68-8.22-.77-8.22s12.16-3.51,14.89-5.65l2.4-1.89-1.88-2.65c-2.83-3.77-2.49-4.37,2.39-4.37,3.85,0,4.28-.17,3.77-1.46-2.14-5.22-2.23-7.44-.77-13.26l1.54-5.91,3.17.51c2.82.52,3.42.26,4.62-1.62.86-1.29,3.25-2.83,5.65-3.68,4.11-1.46,4.2-1.63,4.2-5a45.25,45.25,0,0,0-2.23-10.19c-2.31-7.45-2.22-8.82.69-9.25,1.46-.17,2.74-1.79,5-6.08,3-5.9,5.57-8.22,9.25-8.3,1.8,0,1.88-.35,1.88-7.37,0-6.08.43-8.39,2.49-13.44,1.28-3.43,2.65-7.36,3-8.82.6-2.48.43-2.74-2.22-3.25-2.83-.51-8.39-5.14-8.39-6.93a12.79,12.79,0,0,1,1.37-3.77,10.07,10.07,0,0,0,.86-6.17c-.6-3.76.43-6.42,3.17-8.65l1.88-1.45-2.06-4.54c-3.68-8.39-3.93-10-2-15.32l1.71-4.88-6.59.43-6.51.42-4-3.51c-4.36-3.85-11.21-7.36-16.26-8.22-1.8-.34-3.26-.94-3.26-1.28a24,24,0,0,1,2.66-5c3.33-5.4,4-10.28,2.05-13.7-1.45-2.49-1.45-2.57.77-5.82,2.74-4.11,2.74-5.74.17-12.67a48.45,48.45,0,0,1-2.65-9.68,36.45,36.45,0,0,0-2.65-8.39c-2.92-6-4-13.27-3.51-22.52l.34-7.87-3.25-3.77c-4.54-5.14-7.71-6.34-11.65-4.45-3.16,1.54-4.45.94-4.54-1.89,0-.51-1-1-2.22-1-1.37,0-3.17-1-4.71-2.65-2-2.06-4.54-3.25-12.5-5.65-5.48-1.63-11.64-3.26-13.7-3.6-3.59-.68-3.85-.6-6,2.14-2.22,2.91-5.39,3.94-5.39,1.71,0-.68-1.2-3.68-2.57-6.68a39.22,39.22,0,0,1-3.08-8.22c-.52-2.65-2.23-3.68-3.34-1.88s-3.43.68-6.76-3.09l-3.52-3.85-5.13,1.8c-10.62,3.76-19,2.14-23.37-4.37-1.72-2.48-2.49-2.91-5.48-2.91-3.25,0-3.77-.34-5.74-3.68a17.65,17.65,0,0,0-6-5.82c-3.68-2.06-3.77-2.06-8.82-.69-4.71,1.38-5.57,1.38-13.35,0-4.54-.76-13.1-1.88-18.92-2.48l-10.62-1-1.2-4.11c-.59-2.22-1.54-4-2-4S238.07,56.67,237.05,59.33Z"/></svg>