<svg id="Layer_1" data-name="Layer 1" xmlns="http://www.w3.org/2000/svg" viewBox="0 0 500 500"><defs><style>.cls-1{fill:#d9d9d9;}</style></defs><title>asia</title><path class="cls-1" d="M150,62.45a6.21,6.21,0,0,1-2.62.63c-1.71,0-2.11.43-1.48,1.6.43.82.62.82,4.41.62,2.15-.15,4.84-.35,5.9-.47,1.8-.15,1.72-.11-.94.59-3.32.9-3.36.9-3,1.8.19.46.54.58,1.44.39a5.14,5.14,0,0,1,2.5.31,19.2,19.2,0,0,0,4.33.82c1.72.15,4.3.51,5.78.82,3.48.66,5.31-.08,3.48-1.49a4.35,4.35,0,0,1-1.13-1.28c-.39-.67-.86-.79-2.93-.79a10.14,10.14,0,0,1-3.32-.46,9.25,9.25,0,0,0-2.42-.75c-1.21-.19-1.53-.39-1.37-.89.27-1.14-.7-1.53-4.18-1.8C151.85,61.9,150.91,62,150,62.45Z"/><path class="cls-1" d="M174.85,67.8a3.14,3.14,0,0,0-1.49,3.32c.32,1.13,1.49,1.48,3.13.94a17.85,17.85,0,0,1,4.45-.35c3.47.11,4.65-.35,4-1.6-.39-.71-2.42-1.1-6.52-1.29-1,0-1.68-.24-1.68-.51C176.72,67.65,175.9,67.41,174.85,67.8Z"/><path class="cls-1" d="M183,74a2,2,0,0,0,0,1.8c.55,1.48.55,1.48-1.33,1.21-1.48-.24-1.72-.16-1.91.55s-.51.78-1.6.78a19.25,19.25,0,0,0-3.32.43,4.11,4.11,0,0,1-3.13-.2c-1.71-.9-5.58-.82-6.17.08-.35.62-1.13.78-4.41,1-2.62.16-4.37.47-5.19.94a11.16,11.16,0,0,1-2.62.86c-2.11.31-1.64,1.09,1.52,2.69,1.6.79,2.85,1.57,2.74,1.8s-1.37.35-3.09.27-3.2-.11-3.51-.07-2.66.11-5.2.19a29.88,29.88,0,0,0-4.8.31c-.43.43.62,1.8,1.48,1.92a1.34,1.34,0,0,1,1.1,1.09c.23.9.39,1,2.07.86a5.44,5.44,0,0,1,2.89.47,24.13,24.13,0,0,0,3.24,1.4,13.19,13.19,0,0,1,2,.79c-.12,0-1.52,0-3.12,0-3.32,0-6.17-.35-6.49-.85-.11-.2-.78-.36-1.44-.36a11.79,11.79,0,0,1-3.28-.78c-2.19-.82-3-.5-1.91.75.85.93.78,1.32-.12.82-1.17-.59-3.59-.51-3.32.15.35.86,1.91,1.37,4.14,1.25,1.79-.08,2.34,0,3.24.82.59.51,1,1.06.86,1.17-.27.24-9.06-1.32-10.31-1.83a1.39,1.39,0,0,1-.9-1.14,3.64,3.64,0,0,0-1.83-3.12c-1.49-.66-1.92-.51-1,.39S129,92,127.91,92a1.56,1.56,0,0,0-1.17.75c-.32.66-.16,1,.85,2a4.88,4.88,0,0,0,1.76,1.21c.78,0,1.68,1.17,1.68,2.26a5.91,5.91,0,0,0,1.52,2.78l1.53,2h4.68c3.91-.12,4.85,0,5.78.62.63.43,1.49.94,1.92,1.18a1.84,1.84,0,0,1,.89,1.17,2.85,2.85,0,0,0,1.92,2.18c1.33.51,1.09,1.14-.39,1.14a2.76,2.76,0,0,1-2.81-2.31c-.2-.58-1-1.21-2.43-1.87a5.67,5.67,0,0,0-4.37-.67c-1.56.24-2.23.55-2.3,1a.85.85,0,0,0,.62.9c.63.15.82.66.94,2.26.19,2.15-.12,2.85-1.45,3.44a10.3,10.3,0,0,0-1.75,1.09c-.9.71-1.21.71-4.61.28a15.1,15.1,0,0,1-4.06-.94,1.87,1.87,0,0,0-1.17-.47c-.39,0-.71-.19-.71-.39,0-.51,1-.51,2,0a11.79,11.79,0,0,0,2.93.7c2.27.31,2.46.2,4.3-2.89.94-1.56,1-1.79.35-2.5a1.74,1.74,0,0,1-.55-1.25c.08-.27-.58-.86-1.44-1.32a7.77,7.77,0,0,1-2.42-2.19,18.81,18.81,0,0,0-1.6-2.11,4.76,4.76,0,0,1-1-1.84,8.44,8.44,0,0,0-2.23-2.81c-1.09-1-1.87-2-1.71-2.18.39-.63-.51-2.62-1.29-3a35,35,0,0,0-4.73-.7c-3.55-.4-4.14-.4-4.8.15s-.7.74-.27,1.68a2.16,2.16,0,0,1-1.61,3.2c-1.4.32-1.52,1.49-.15,1.68.94.12,2.11,2,2.11,3.36,0,1.13,1,1.8,2.65,1.8a2.81,2.81,0,0,1,1.84.78,2.48,2.48,0,0,0,1.56.78,2.41,2.41,0,0,1,2.15,2.11c0,.78,0,.78-4.81-.31a20.92,20.92,0,0,1-3.39-1c-1.41-.78-1.53-.35-.39,1.44a7.69,7.69,0,0,1,1.17,2.5c0,.43-.86,1.18-2.23,2-2.69,1.56-5.19,3.75-5.19,4.53a13.76,13.76,0,0,0,1.17,3,33.76,33.76,0,0,1,2,5.12c1.64,5.7,4.3,18,4.3,20,0,1.37.19,2.19.62,2.54a17.28,17.28,0,0,1,3.44,5.39c.58,1.53.58,1.8,0,2.62a5,5,0,0,1-2.5,1.48c-4.65,1.37-5.2,2.27-3.16,5.43,1.6,2.54,4,3.71,6.17,3.09a8.66,8.66,0,0,0,3.16-2.23l1.64-1.76.94.94a3.19,3.19,0,0,1,1,2.62,32,32,0,0,0,.43,4.14,18.48,18.48,0,0,1,.16,4.6c-.24,1.92-.43,2.31-1.92,3.52l-1.67,1.37-3.09-1.29c-1.72-.75-3.94-1.8-5-2.35-2.81-1.48-5-1.71-6.83-.82l-1.52.75.78,1.25c.66,1,.7,1.36.31,2-.55.82-1.76,1.09-6,1.44-3.13.27-3.75.7-5.08,3.28A13.34,13.34,0,0,1,93.39,183c-.86.79-1.18.86-1.72.47-1.21-.86-1.64-.93-2.27-.43-.47.39-.58,1-.43,2.43a4,4,0,0,0,1.8,3.39c1.52,1.41,1.6,1.6,1.6,3.75a9,9,0,0,0,.74,3.63l.7,1.33.82-1.17a3.17,3.17,0,0,1,2.7-1.41,3.37,3.37,0,0,0,2.85-1.48l1-1.25L103,193c1.49.74,1.88.78,3,.35s1.33-.39,1.83.27a6.5,6.5,0,0,1,.55,3,5.37,5.37,0,0,0,.39,2.5c1,.63.2.78-1.87.43a10.38,10.38,0,0,0-2.93-.12c-.82.32-.86,2.07-.08,2.39s.74,1.4,0,1.4a3.56,3.56,0,0,1-1.37-.43,1.1,1.1,0,0,0-1.32,0c-.75.63-.08,2,1,2a1.21,1.21,0,0,1,1,.75,3.13,3.13,0,0,0,1.17,1.36,2,2,0,0,1,1,1.21c0,.35.35.59.89.59a1.39,1.39,0,0,1,1.25.86,1.5,1.5,0,0,0,1.57.9c1,0,1.17.15,1.44,1.75.39,2.31,1.92,5.9,2.42,5.74s.51-1.36.2-2.81c-.12-.54.15-.86.94-1.13,1-.35,1.21-.27,2.65,1.44a6.33,6.33,0,0,0,2.11,1.84,1.92,1.92,0,0,1,1.13.63,1,1,0,0,1,.2,1.4c-.35.66-.67.74-1.84.55-.82-.16-2.18-.35-3.08-.47l-1.79-.24v1.61s.19,1.64,1.32,1.87c1.44.27,1.76.9,1.17,2.46s-.31,2,1.37,3.05c1.4.93,1.83,1.68,2.73,5.07,1,4,1.29,3.79-4.8,3.91-5.12.12-5.35.08-6.33-.82-1.76-1.6-2.89-2.23-4.14-2.23a2.91,2.91,0,0,1-3.08-2.42c-.71-3.44-.71-3.83,0-4.92a6.42,6.42,0,0,0,.93-2.42c.2-1.29.28-1.37,1.68-1.33,2.46.08,1.45-1.68-1.36-2.34a6.3,6.3,0,0,1-2.46-1.95c-1.53-1.88-1.22-1.76-7.89-2.54a18.52,18.52,0,0,1-9.81-4.14c-1.67-1.37-3.67-1.8-4.17-1s-2.5.39-3.83-.78c-2.23-2-5.16-2.58-6.76-1.4-.82.62-.86.54,1.1,1.75a3.92,3.92,0,0,1,2,2.7c.7,2.38.35,3-2.19,4.14a10.94,10.94,0,0,1-5.35.82,19.31,19.31,0,0,1-4.41-.51,7.7,7.7,0,0,0-2.85-.39c-1.53.08-2-.08-2.66-.94-1-1.29-2.65-1.6-8.82-1.64-4.34,0-5.08.08-6.52.82A8.62,8.62,0,0,0,36,217.37c-.55.78-.82.82-3.24.62-1.49-.11-2.93-.27-3.24-.35-.78-.15-1,1.29-.24,1.72,1.8,1-.39,1.8-5.5,1.95a16.73,16.73,0,0,0-4.38.51,6.18,6.18,0,0,0-.54,1.88c-.24,1.44-.2,1.52,1.52,2.22,1.95.86,2.22,1.84.9,3.16a1.51,1.51,0,0,1-1.64.55C17.51,229,17,229,17,229.51c0,1,1.41,1.92,3.2,2.15,1.95.28,2.66.71,2.66,1.68a1,1,0,0,0,.82.9c.7.19.74.31.31,1s-.39.9.2,1.57,1.21.82,2.81.82c1.87,0,2.18.11,3,1.17S31,240,33,240s2.23-.12,2.85-1.17c1-1.72,2.39-1.91,4.77-.59a26.39,26.39,0,0,1,2.61,1.6c.94.86,4.1.24,6.06-1.13,1.44-1,1.79-1.09,2.85-.74a2.87,2.87,0,0,0,2.57-.16c1.22-.47,1.37-.47,1.37,0a1.11,1.11,0,0,1-.43.86c-.27.16-.39,1.92-.39,4.81,0,5.93-.31,9.76-.94,10.74a14.92,14.92,0,0,0-1.17,3.35c-.66,2.62-1.48,4.49-2.11,4.88a16,16,0,0,1-3.78-.19,22.64,22.64,0,0,0-3.6-.23c-.19.23,2.5,5.93,3,6.24a5.91,5.91,0,0,1,1,2.31,11.34,11.34,0,0,0,1.91,3.59A7.37,7.37,0,0,1,51,276.49c.28,1.29,1.45,1.18,2.31-.27a6.54,6.54,0,0,0,.78-3.55c0-1.21.16-2.23.35-2.23.59,0,.86,1.17.43,1.95a8.6,8.6,0,0,0-.16,4.46,1.2,1.2,0,0,0,1.1.62c1.25,0,2.42,1,3.94,3.24.74,1.13,2.15,3.09,3.09,4.37a12.15,12.15,0,0,1,1.95,3.75,4.35,4.35,0,0,0,1,2.11,2.28,2.28,0,0,1,.79,1.25c0,.28.46.71,1.05.94,2.42.9,4.92,4.37,5.08,7,.23,4.76.5,5.86,2,8.12,1.13,1.72,1.72,2.27,2.58,2.35,1.71.19,3.28,2,3.82,4.45a4.71,4.71,0,0,0,1.37,2.77,2.46,2.46,0,0,1,.9,1.21,9.2,9.2,0,0,0,1.76,2.54,7.65,7.65,0,0,1,1.75,2.81,1.53,1.53,0,0,0,.94,1.17,3.64,3.64,0,0,1,1.8,2.89,1.46,1.46,0,0,1-.78,1c-1,.55-1,1.91,0,3.9a12.35,12.35,0,0,1,1,3.21,8.24,8.24,0,0,0,.78,2.53A3,3,0,0,1,91,341.2c-.23,1.17-.11,1.45.74,2,1.53,1,2.93.82,7.31-1.09a27.25,27.25,0,0,1,5-1.76,6.83,6.83,0,0,0,3.94-1.68.83.83,0,0,1,1.21-.27c.9.47,2.38,0,3.44-1.21.94-1,6.13-3.44,7.3-3.48a10.74,10.74,0,0,0,2.89-1l2.11-1-.2-1.72c-.19-1.64-.15-1.75,1.33-2.73a9.74,9.74,0,0,1,3.17-1.25,13,13,0,0,0,3.12-1c1.09-.54,1.64-.62,2.19-.31,1,.51,2.26.51,2.57,0,.16-.23,0-.86-.39-1.4-.89-1.41-.5-2,1.45-2.31s2.65-.78,2.65-1.91a5.72,5.72,0,0,1,1.76-2.58,9.6,9.6,0,0,0,2.93-6.13c0-.66.23-.9.9-.9a1.68,1.68,0,0,0,1.83-1.52,6.93,6.93,0,0,1,1.64-2.27c1.37-1.36,1.6-1.91,1.64-3.32,0-1.24-.11-1.67-.54-1.67-1,0-2.81-2.11-2.54-3,.19-.55,0-.82-.78-1.13a6.9,6.9,0,0,0-1.88-.4c-1.83,0-3.67-.89-5.62-2.69-1.8-1.64-2.11-2.11-2.3-3.79a6.4,6.4,0,0,0-1-2.77c-.7-.74-.7-.86-.12-1.21a1.18,1.18,0,0,0,.55-1.06c-.2-.85-1.13-1.25-1.13-.46a4.43,4.43,0,0,1-1.17,1.87,5.72,5.72,0,0,0-1.18,1.76A2.34,2.34,0,0,1,133,289a2.38,2.38,0,0,0-.78,1.37c0,1-2,2.65-4,3.36-1.68.58-1.87.54-3-.08-.94-.55-1.29-.63-1.68-.24a2.23,2.23,0,0,1-2.57.12,8.71,8.71,0,0,0-1.37-.59c-.63-.19-.67-.54-.43-3.51.27-3.32.27-3.32-.78-3.79-.55-.27-1.13-.35-1.29-.19a7.22,7.22,0,0,0-.2,2.57,5.28,5.28,0,0,1-.27,2.5c-.58.39-1.68-1-1.44-1.83.11-.55-.2-1.13-1-1.88a4,4,0,0,1-1.37-3c-.11-1.37-.39-2.07-1-2.54a16.51,16.51,0,0,1-4.49-5.43c-2-3.75-2.66-4.77-3.52-5.08-1.29-.51-1-1.05,1.1-2.38a6.71,6.71,0,0,0,1.95-1.52c0-.63,1.52-.35,1.91.31s.47.59.94.19,1.84-.27,1.84.28a14.1,14.1,0,0,0,1.56,2.26,30.26,30.26,0,0,1,2.73,4.88,11.91,11.91,0,0,0,1.68,3.13,5.29,5.29,0,0,0,1.91.31,2.73,2.73,0,0,1,1.64.35,17,17,0,0,0,5.2,2.78,5.23,5.23,0,0,1,2,.78c1.76,1,2.19,1,4-.67,1.41-1.25,1.84-1.44,3.56-1.44s2.1.15,3.08,1.25A3.67,3.67,0,0,1,140,284c0,1.92,1.72,3.44,4,3.52a45.85,45.85,0,0,1,9.68,1.6c2.07.74,3.28.74,8,.12a34.8,34.8,0,0,1,4.6-.43c.59,0,2.07.07,3.32.11a5.2,5.2,0,0,0,3.32-.58c2-1.29,4-.71,3.56,1-.2.9-.08,1.09,1.17,1.6a4.35,4.35,0,0,1,2.19,2.15,5.69,5.69,0,0,0,2,2.19,18.19,18.19,0,0,1,3,2.18c1.79,1.68,4.25,2.43,5.89,1.84,1.29-.47,1.37.27.2,1.21a2.65,2.65,0,0,1-2.27.63,3.13,3.13,0,0,0-1.76.15c-.46.31.12,1.06,3.09,3.91a27.7,27.7,0,0,0,4.1,3.51,17.53,17.53,0,0,0,2.46-.58c2.23-.67,2.85-1.68,2.58-4.14-.12-.9,0-1.53.39-1.84s.7-.23,1.25,1.25a4.11,4.11,0,0,1,.39,2.15c-.12.23.12.9.55,1.44a3.08,3.08,0,0,1,.23,3.83c-.74,1.09-.51,2.15,1.52,7.85a18.89,18.89,0,0,1,1.41,6.13c0,1.91.15,2.42,1.13,3.52a24.16,24.16,0,0,1,2.38,3.82,19.75,19.75,0,0,0,2.27,3.63c1,1.06,1.17,1.57,2.38,8.4a5.14,5.14,0,0,0,1.64,2.93c1.64,1.48,4.65,8.43,5,11.28a4.07,4.07,0,0,0,1.09,2.7,3,3,0,0,1,.94,1.56c0,.9,1.13,1.52,2.85,1.52,1.21,0,1.41-.15,2-1.75a7.15,7.15,0,0,1,2-2.85,3.19,3.19,0,0,0,1.33-1.92,1.52,1.52,0,0,1,.39-1.09,1,1,0,0,0,.2-1c-.2-.58,0-.74.7-.74,1.52,0,2-.94,1.48-2.69a11,11,0,0,1,.39-7c.67-2,.75-2.66.4-3.52a10.83,10.83,0,0,1-.4-2.85,17.51,17.51,0,0,0-.42-3.47c-.71-2.62.46-4.69,2.65-4.69.55,0,.82-.35,1-1.21.19-1.05.35-1.17,1.17-1,1.21.32,2.77-.93,3.36-2.69a5.27,5.27,0,0,1,1.48-2.19,3.61,3.61,0,0,0,1.25-1.64,1.33,1.33,0,0,1,1.05-1c.51-.08,1.33-.9,2.07-2.07,1.29-2,5.78-6.21,6.6-6.21a3,3,0,0,0,1.41-1c.78-.78,1-1.33,1-3.05,0-1.56.19-2.26.7-2.73a2.22,2.22,0,0,1,1.05-.66,2.62,2.62,0,0,0,1.06-.67c.62-.54.82-.58,1.05-.15s.55.43,1,.11a5.17,5.17,0,0,1,2.18-.19c1.84.27,3.48-.12,3.48-.82,0-.35.31-.47.94-.35s1.05,0,1.17-.24a1.36,1.36,0,0,1,1-.43c.55,0,.78-.35.86-1.44s.28-1.49.9-1.49c1.25,0,2.62,3.28,2.7,6.41,0,2.34.19,2.77,1.56,4.53.82,1,1.56,2,1.6,2.07s.66-.16,1.33-.55c1.48-.86,2.85-.35,3.75,1.37.54,1.09.54,1.21-.2,1.6-1.52.82-.59,2.69,1,2.07,1-.39,2.38,1.37,3.28,4.22.78,2.34.82,3,.43,4.21-.59,2-.55,3.75.11,4.3a6.62,6.62,0,0,0,3.17.31c2.34-.11,2.77-.27,3.51-1.17a2.47,2.47,0,0,1,1.48-1c.51,0,.67-.35.67-1.57,0-1.95.94-2.53,2-1.21a3.27,3.27,0,0,1,.7,1.53,3.66,3.66,0,0,0,1,1.68c.78.82,1.09,1.64,1.33,3.55a16.12,16.12,0,0,0,1,4,5.08,5.08,0,0,1,.43,2.89,1.82,1.82,0,0,0,.78,2.19c.9.74,1,1.05,1,4.33s.15,3.6.86,3.91a1.27,1.27,0,0,1,.27,2.34c-1.05.74-1.09,2.85-.08,4.1.74.9.74.94-.15,2.5a8.36,8.36,0,0,0-1,3.91c-.08,2.3-.08,2.34.94,2.22.82-.08,1.52.39,3.43,2.35a22.09,22.09,0,0,1,3,3.63,13.63,13.63,0,0,0,1.6,2.26c.82.86,1.1,1.64,1.37,4.1.2,1.64.31,3.44.31,3.95a3.93,3.93,0,0,0,1.1,2.18,13.62,13.62,0,0,1,2,3.91c.66,1.95,1.09,2.69,1.87,3.05a12.85,12.85,0,0,1,2.7,2.1,11.44,11.44,0,0,0,3.51,2.23c1.64.55,1.91.55,2.73,0a2,2,0,0,0,.9-2c0-1.33-.39-1.92-2.5-3.6-.5-.39-.62-1.32-.62-4.68,0-3.59-.16-4.45-.94-6.21a9,9,0,0,0-1.91-2.66,3,3,0,0,1-1.17-1.36,1,1,0,0,0-1-.78c-.51,0-.94-.39-1.17-1.14a2.48,2.48,0,0,0-1.91-1.6c-2.5-.74-3.17-1.21-3.87-2.69a28.19,28.19,0,0,0-1.84-3.28,11.49,11.49,0,0,1-1.4-3.13c-.2-.86-.55-1.29-1.17-1.44s-1.14-.74-1.64-2.07c-.86-2.19-.63-3.67,1-6.8.82-1.52,1-2.34,1-5.23,0-3.08.08-3.47.86-4a3.59,3.59,0,0,1,1.75-.63c.82,0,.9.16.82,1.64l-.11,1.64,1.91.32a4.54,4.54,0,0,1,2.85,1.25,3.17,3.17,0,0,0,1.84,1,1.43,1.43,0,0,1,1.32,1c.24.54.63,1,.86,1s.39.71.39,1.57c0,1.25.16,1.56.71,1.56.39,0,1,.51,1.36,1.17a1.93,1.93,0,0,0,2,1.17,4.47,4.47,0,0,1,2.69,1.33c1.41,1.21,1.45,1.33,1,2.65-.55,1.84-.12,4.22.78,4.22s1.44-.43,2-1.48a1.48,1.48,0,0,1,1-.86c.71,0,3.71-3.79,3.71-4.69s.71-1.4,2.7-1.72c2.34-.35,2.81-.66,4.69-3.08,1.6-2.11,1.6-2.19,1.67-5.39,0-4-.35-6.09-1.28-7.34a3.48,3.48,0,0,1-.75-1.88,5.81,5.81,0,0,0-1.71-3.59,2.12,2.12,0,0,1-.63-1.48c0-.67-.39-1.14-1.21-1.6a26,26,0,0,1-2.85-2c-.86-.7-2-1.56-2.54-1.95-2.11-1.56-3.16-2.77-3.16-3.75,0-.74-.2-1-.78-1s-.78-.16-.78-.35a2.31,2.31,0,0,0-.67-1,7.58,7.58,0,0,1-1-3c-.32-2.26-.28-2.42.85-3.71a3.81,3.81,0,0,0,1.18-2.65c0-1.14.15-1.37.86-1.37a3.45,3.45,0,0,0,1.83-.94c1.48-1.32,4.18-2.3,5.12-1.79a3.27,3.27,0,0,0,1.64.27c.82-.08.89,0,.78,1.37a4.13,4.13,0,0,0,1.25,3.51,2.9,2.9,0,0,0,2.93-.23,3.52,3.52,0,0,0,.19-2.31c-.35-2.5.16-3,2.93-3a10.6,10.6,0,0,0,3.91-.78,8.92,8.92,0,0,1,2.22-.79,2.1,2.1,0,0,0,1.17-1c.55-.82.82-.94,2.27-.74,1.72.23,3.28-.32,5.27-1.84a4,4,0,0,1,2.26-.74c1,0,1.41-.2,1.65-.9A10.91,10.91,0,0,1,370,295.9a7,7,0,0,0,2-2.26c0-.32.62-.94,1.37-1.37.93-.59,1.36-1.09,1.36-1.76a2,2,0,0,1,.94-1.52c.9-.59.94-.86,1-4.3a13.43,13.43,0,0,1,.54-4.76,11.48,11.48,0,0,0,.82-2.19,2.08,2.08,0,0,1,1.21-1.44,2,2,0,0,0,1.14-1.25,28.88,28.88,0,0,0,.39-6.68c-.16-.39-1.06-.66-2.93-.86-3-.31-3.32-.82-1.09-1.56,1-.35,1.36-.7,1.44-1.52a2.51,2.51,0,0,0-.23-1.53,7.46,7.46,0,0,1-.63-2.18c-.35-2.27-.86-3.17-1.83-3.17-1.88,0-3.87-1.64-5.28-4.33-1.79-3.44-3.63-5.51-5.58-6.41-2.5-1.09-2.5-1.36.47-6.6a3.2,3.2,0,0,1,2.61-2c1.33-.31,1.88-.7,2.27-1.52.82-1.72.35-2.38-1.45-2.07a4,4,0,0,1-2.61-.35c-2.11-1.1-5.35-.55-5.74.93-.12.47-.47.83-.82.83-.78,0-3.63-2.54-3.95-3.56-.15-.51-.62-.74-1.4-.74-1.41,0-4.65-2.46-4.65-3.52,0-.54.39-.66,2.42-.7,1.64,0,2.58-.23,3-.66.58-.59.58-.67,0-1.13-1-.71-.9-1.14.43-2.11a5.18,5.18,0,0,0,1.56-2.11c.35-1.1.74-1.41,2.19-1.84,2-.58,2.54-.35,3.51,1.53.47.93.47,1.17-.23,2.34s-.74,1.44-.35,2.38a4.06,4.06,0,0,1,.19,2.27c-.43,2.07.94,1.52,2.93-1.18a6.64,6.64,0,0,1,2.62-1.71c1.64-.63,2.14-.67,4.8-.24a19.27,19.27,0,0,1,3.55.86c.94.47,1.21,2,.75,4a4.27,4.27,0,0,0,0,2.74c.39,1,.5,1.09,3,1,3.32-.11,5,.55,5.12,2.15a2.13,2.13,0,0,1-.27,1.52c-.79.78-.47,2.15.7,3s2,3.13,2,5.63c0,3.28,1.13,5.35,2.93,5.35,1.21,0,1.48-.47,1-1.76-.9-2.35.35-3.28,4.88-3.67,2.42-.2,2.77-.35,3.2-1.21a5.13,5.13,0,0,0-1.21-5,3.8,3.8,0,0,1-1-1.64c0-.31-2-2.54-4.41-5-3.36-3.32-4.69-4.37-5.47-4.37-1.13,0-1.68-.63-1.52-1.68.08-.43-.12-.67-.66-.67a1.62,1.62,0,0,1-1.25-.86c-.39-.74-.36-.93.43-1.44a19.28,19.28,0,0,0,2.18-1.88,3.54,3.54,0,0,0,.55-5c-.94-1.4-1-2.38-.16-2.69a.62.62,0,0,0,.39-.82c-.11-.31,0-.59.28-.59s.66-.54.86-1.25a3.77,3.77,0,0,1,1.17-1.71c.66-.43,1-.35,2.5.62,2.77,1.88,4.68,1.56,7.69-1.25a2.5,2.5,0,0,0,1.05-2.81A3.85,3.85,0,0,1,401,204a8.61,8.61,0,0,0,.85-2.3,26,26,0,0,1,.86-3.05c.51-1.4.55-2.07.16-4.37-.63-3.79-.55-4.69.43-5.74.7-.78.78-1.06.39-1.6a31,31,0,0,1-1.64-3.2,18.13,18.13,0,0,0-2.5-3.91,11.06,11.06,0,0,1-3-5.7,6.47,6.47,0,0,0-2.07-3.48,24.83,24.83,0,0,1-2.85-3.43c-.78-1.1-1.56-1.84-2-1.84a4.87,4.87,0,0,1-2.07-.9c-1.56-1.05-6-2.54-7.34-2.46-.9,0-1.33.51-1.76,1.88-.31,1.09-1.52.82-2.26-.47a1.87,1.87,0,0,0-2-1.17,3.1,3.1,0,0,1-2.43-1.17c-1-1.1-1.32-1.18-3.82-1.18s-2.7,0-2.46-.89a8.75,8.75,0,0,0,.23-1.53c0-.43.55-.93,1.37-1.25,1-.43,1.37-.82,1.37-1.48a3.13,3.13,0,0,1,.35-1.45,1.15,1.15,0,0,0,0-1.21,1.18,1.18,0,0,1,.86-2,.7.7,0,0,0,.78-.78,3.35,3.35,0,0,1,.47-1.56,1.41,1.41,0,0,0,0-1.68c-.43-.78-.39-1.17.23-2.46l.7-1.37h5.47a44,44,0,0,0,6-.51,1.88,1.88,0,0,1,1.36,0,13.08,13.08,0,0,0,2.82.35c1.09,0,2.3.12,2.73.2.62.12.74,0,.66-.66a1.6,1.6,0,0,1,.47-1.29c.51-.43.86-.35,2,.35a3.94,3.94,0,0,0,3.21.55c2-.32,3,.35,2.61,1.79-.19.7,0,.78,1.6.78a7.53,7.53,0,0,0,2.54-.35,1.25,1.25,0,0,1,1.21,0,1,1,0,0,0,1.25-.27,5.56,5.56,0,0,1,2.93-.66c1.76,0,2.31-.2,2.38-.71.12-.66-.78-1-3.82-1.17-1.18-.12-1.37-.27-1.49-1.21a2.43,2.43,0,0,1,.39-1.72c.32-.39.47-1.44.35-3.08l-.11-2.54h2a31.33,31.33,0,0,0,4.09-.24c2.18-.23,2.22-.19,3.85,1.36a5.63,5.63,0,0,0,2.53,1.6,1.3,1.3,0,0,1,1.09.58c.35,1,1.75.7,2.25-.5a13.15,13.15,0,0,1,1.17-2c1-1.28.89-1.48-.86-2.37-.85-.43-1.55-.93-1.55-1.13,0-.39,3-.93,3.54-.58a19.09,19.09,0,0,1,1.9,2.22c.86,1.12,1.95,2.48,2.42,3.07l.85,1.09-.89.93c-1.09,1.13-1.56,3.31-1.6,7,0,3.27-.43,4.17-1.94,4.17-1.29,0-1.36.11-.78,1.16a6.93,6.93,0,0,1,.5,2.41c.16,2.42,2.92,5.8,8.52,10.27a38.66,38.66,0,0,1,5.45,5,11.53,11.53,0,0,0,3.38,2.72,31.89,31.89,0,0,1,5.57,4.63c3.5,3.62,3.92,3.58,3.73-.39a5.91,5.91,0,0,0-1.21-3.77,9.31,9.31,0,0,1-1.05-1.59,2.07,2.07,0,0,1,1.09-.31c1.56-.16,1.68-1.95.24-3.47s-1-2.21,1.09-2.37,2.45-1.17.62-2.1a18.57,18.57,0,0,1-3.11-2.26c-1.95-1.63-1.91-2.17.19-2.17a1.45,1.45,0,0,0,1.32-.63c.31-.81-1.71-2.45-3.07-2.49a2.48,2.48,0,0,1-1.94-1.2c-2-2.72-3.43-3.93-4.24-3.74-1.79.47-4.63-1.47-4.63-3.19a4,4,0,0,0-1.17-2.17c-1.36-1.4-1.28-2.8.16-2.34,2,.66,2.76.43,3.15-.89.46-1.6,1.67-1.6,2.45,0s1.44,1.36,2.29-.39c.55-1.09,1-1.48,1.83-1.56a8,8,0,0,1,5.8,1.44c1.32,1.13,3.57,1.83,4,1.21a2.41,2.41,0,0,0-.39-1.56c-.54-1-.54-1.2,0-1.4a1.33,1.33,0,0,0,.59-1.2c0-1.6.7-2.46,2-2.46.86,0,1.25-.23,1.52-.93a2.76,2.76,0,0,1,1.17-1.4,1.57,1.57,0,0,0,.77-1.17.72.72,0,0,1,1.36-.39,3.78,3.78,0,0,0,2.07.39,13.89,13.89,0,0,1,3.07.35,5.15,5.15,0,0,0,2.33.08c1.05-.27.86-.47-4.16-4.2-6.22-4.63-18.2-12.76-27.42-18.59l-6.61-4.2H427s-4.76-.31-5.86-.9c-1.48-.82-4.56-.9-8.43-.31a8.27,8.27,0,0,1-3.67-.16c-2.19-.66-6.37-.82-6.52-.27-.28.74,1.56,1.68,3.2,1.68,1.83,0,3.32.9,3.32,2s-1.33,1-3.32,0a8.19,8.19,0,0,0-3.05-.78,7.09,7.09,0,0,1-3-.9c-1.33-.74-1.53-1-1.29-1.91s.12-1.06-.51-.82a7,7,0,0,0-1.8,1.17c-1.32,1-1.4,1-8.24.27-4-.47-5.66-.5-6.56-.19a14.66,14.66,0,0,1-3.67.43c-2.26,0-2.61-.12-3.94-1.33-2.11-1.84-2.62-2-7.58-3.09-5.93-1.28-13.31-1.64-15.66-.82a9.13,9.13,0,0,1-6.95-.58,9.72,9.72,0,0,0-3.12-.82,21.19,21.19,0,0,1-3.59-.55,6.62,6.62,0,0,0-2.43-.35c-.07.12-.39.08-.62-.08s-.31-.43,0-.82.39-.62.31-.7a17,17,0,0,0-3.12-.59,27,27,0,0,1-3.6-.66c-.5-.2-.82.12-1.25,1.17-.7,1.64-1.95,2-1.68.43s-.54-1.91-5.07-2c-2.31-.08-6.09-.39-8.48-.74-4.06-.55-4.33-.55-4.8.12a1.37,1.37,0,0,1-1.25.58,1,1,0,0,0-1,.31c-.39.67.55,1.57,1.68,1.57a2.9,2.9,0,0,1,1.88,1l.94,1-5.75-.12a69.86,69.86,0,0,0-7.92.23,5.19,5.19,0,0,1-4.22-.7,17.55,17.55,0,0,0-2.23-1c-.43,0-.15.93.47,1.64s.59.78.08,1.28c-.82.82-5.82.16-7.22-.93a4.23,4.23,0,0,0-1.64-.82A14.38,14.38,0,0,1,276.73,93a9,9,0,0,0-5-1.21c-3,0-3.67-.74-1.28-1.68s1.95-1.8-.79-2.11a14,14,0,0,1-2.81-.51,2.48,2.48,0,0,0-1.68.24c-.86.47-1.44.43-4.6-.35-3.36-.86-5.35-.9-5.35-.2,0,.43,2.57,1.64,3.43,1.64s2.34,1,2,1.33a5.46,5.46,0,0,1-2.34-.28,43.25,43.25,0,0,0-7.3-.58c-4.92-.08-5.31-.16-7.54-1.25s-2.62-1.13-7.5-1.21c-3.36,0-5.5.08-6.05.39-.74.39-1,.31-2.19-.55-1.48-1.13-1.91-1.21-2.57-.39s-2.07.74-3.25-.19-4.56-.71-4.56.43a1,1,0,0,0,.7.86c.43.11.31.19-.35.23a10.92,10.92,0,0,0-2.7.62c-2.42.86-3.2.79-3-.27a1.14,1.14,0,0,1,.89-1,5.33,5.33,0,0,0,2-1.29,9.48,9.48,0,0,1,2.54-1.6c3.12-1.06,4.68-2.54,3.47-3.25a3.69,3.69,0,0,1-.74-1.17c-.27-.7-.74-1-1.84-1.17a46.3,46.3,0,0,1-4.6-1.17c-3.4-1.09-6.1-1.21-10.55-.55-4.68.71-4.68.71-4.57-.58s.16-1.14-1.6-.9c-2.5.35-4.57-.08-4.92-1-.27-.7-.74-.78-4.45-.93S183.4,73.23,183,74ZM134.62,194.29c.28.43.71.78,1,.78s.66-.35.9-.78a1.39,1.39,0,0,1,1-.78c.71,0,.71.31,0,1.56a3.17,3.17,0,0,0,.75,4.49c1.83,1.37,2,2,.78,3.13-.82.74-1,1.21-.9,2.69a4.54,4.54,0,0,1-.08,1.91,6.35,6.35,0,0,1-1.76.43c-1.28.2-1.68.12-1.87-.39s-.63-.58-2.38-.35c-2.11.24-2.15.24-2.15-.74a1.6,1.6,0,0,0-.78-1.41c-.74-.39-.82-.74-.7-3.63l.11-3.2,1.14-.12a1.35,1.35,0,0,0,1.28-.9,1.1,1.1,0,0,1,1-.74c.59,0,.7-.19.51-.78a1.51,1.51,0,0,1,1.21-2A1.53,1.53,0,0,1,134.62,194.29Z"/><path class="cls-1" d="M168.17,74.36a.67.67,0,0,0-.27.78c.31.51,1.79-.11,1.79-.74C169.69,73.93,168.91,73.89,168.17,74.36Z"/><path class="cls-1" d="M280.76,78.5c-.16.31.23,1.21.78,2,.89,1.14,1.28,1.37,2.53,1.37a4.59,4.59,0,0,1,2.43.7c1.48,1.14,2.14,1.25,4.33.71,3.32-.86,6.44-1.1,7.85-.67s4.22-.23,4.49-1.09-.74-1.64-1.64-1.52A45.76,45.76,0,0,1,291,78.42c-1.64-.7-2.23-.43-1.53.67s.63,1-2.5-.2C284,77.76,281.11,77.6,280.76,78.5Z"/><path class="cls-1" d="M277.08,79.67c0,.67.86,1.76,1.41,1.76,1,0,.51-1.72-.51-1.87C277.47,79.48,277.08,79.52,277.08,79.67Z"/><path class="cls-1" d="M305.59,81c0,.74,1.21,1.17,3.36,1.17a9.93,9.93,0,0,1,4.1.78c1.95.86,5.78,1.06,6.52.31,1-1,.51-1.48-1.64-1.48a11.38,11.38,0,0,1-3.47-.58C313.13,80.69,305.59,80.49,305.59,81Z"/><path class="cls-1" d="M297,85.14c0,.43.43.59,1.48.59,1.37,0,1.41-.08.71-.59C298.17,84.4,297,84.4,297,85.14Z"/><path class="cls-1" d="M300.71,86.9c-.39.43-.62.86-.55.93a32.7,32.7,0,0,0,4,.59c2.14.23,4.29.55,4.84.7.74.16.9.08.78-.47-.16-.82-3.2-1.91-6.33-2.3C301.73,86.12,301.34,86.19,300.71,86.9Z"/><path class="cls-1" d="M399.63,100.6c-.94.55-.86,1,.15,1.29,1.18.28,1.84-.39,1.1-1.13A.93.93,0,0,0,399.63,100.6Z"/><path class="cls-1" d="M464.14,159.42a6,6,0,0,0,2.62,2.46c1.05,0,.47-1.06-1.13-2.07C464.45,159.1,464.14,159,464.14,159.42Z"/><path class="cls-1" d="M470.39,160.47c0,.55,1.41,1.8,2.07,1.8.16,0-.08-.55-.59-1.17C470.94,159.81,470.39,159.61,470.39,160.47Z"/><path class="cls-1" d="M390.88,162.07c-.16.39.12,1,.74,1.68s1,1.33.78,1.95.39,1.49,2.85,4.1a38.27,38.27,0,0,0,4.57,4.26c1.53,1.06,4.14,4.69,4.18,5.74a5.63,5.63,0,0,0,1.56,1.95,10.89,10.89,0,0,1,2.54,3.75c.74,1.92,1.14,2.39,2.07,2.62s1.17.55,1.41,1.84a8.36,8.36,0,0,0,1.6,3.31,8.17,8.17,0,0,1,1.37,2.35c0,.7,1.28,1.79,2.07,1.79.43,0,.66-.31.66-1,0-1.13.59-1.25,2.62-.51.93.35,1.4.35,1.71,0s0-.66-1.05-1.21c-2.34-1.21-6.79-5.47-6.79-6.52a3.83,3.83,0,0,0-.79-1.88c-.93-1.17-1-1.68-.19-2s2.3.35,3.4,1.52c.62.67,1.17.94,1.6.75,1-.36.82-.79-.59-1.76a36.17,36.17,0,0,1-3.32-2.77,9.1,9.1,0,0,0-2.5-1.88c-1,0-3-2-4.21-4.26-1-1.95-1.53-2.46-2.43-2.65a2.65,2.65,0,0,1-1.56-.94,1.22,1.22,0,0,0-.9-.74c-.31,0-.93-.78-1.4-1.76-.86-1.79-4.14-4.88-5.2-4.88a2.94,2.94,0,0,1-1.52-1.13,12.1,12.1,0,0,0-2-1.8C391.19,161.45,391.12,161.45,390.88,162.07Z"/><path class="cls-1" d="M495.54,169c-.27.5.51,1.13,1.41,1.13.66,0,1.83-.67,1.56-.9C498,168.75,495.77,168.59,495.54,169Z"/><path class="cls-1" d="M447.08,176.6c-.63.23-.67,1.29-.12,1.29s1-1.1.74-1.33C447.62,176.48,447.31,176.52,447.08,176.6Z"/><path class="cls-1" d="M448.79,178.08c-.82.82-1.21,2.15-.78,2.58.71.7,2.46-.31,2.46-1.37C450.47,178,449.58,177.3,448.79,178.08Z"/><path class="cls-1" d="M449.15,182.5a.5.5,0,0,0,.19.66c.59.39,1-.12.47-.62C449.54,182.26,449.3,182.26,449.15,182.5Z"/><path class="cls-1" d="M443.6,198c-.43.62-.55,1.09-.27,1.37.54.54,1.68,0,1.68-.86,0-.39.19-.75.39-.75a.39.39,0,0,0,.39-.39C445.79,196.63,444.23,197.06,443.6,198Z"/><path class="cls-1" d="M438.52,201.16c-.7,1-.89,3.05-.39,3.56s1.6-.47,1.72-1.33a3.1,3.1,0,0,1,.9-1.52c1.09-1,.94-1.72-.43-1.72A1.92,1.92,0,0,0,438.52,201.16Z"/><path class="cls-1" d="M418.06,201.12c-.43.51-.27.82.94,1.92a3.92,3.92,0,0,1,1.4,2.34c0,.55.2,1,.39,1,.43,0,1,1.25,1.25,2.57.08.51-.11.75-.7.78-1.4.08-1.76.51-1.29,1.41.35.62.28,1-.39,1.91a3.72,3.72,0,0,0-.82,1.64,1.66,1.66,0,0,0,1.68,1.45,3.7,3.7,0,0,1,1.8,1.17c1,1.09,1.13,1.17,2.42.74a8.56,8.56,0,0,0,1.68-.78c.54-.47-.82-1.8-2.31-2.3-1.21-.39-2-1.41-1.56-1.88.12-.11.67,0,1.21.28.86.39,1.17.35,1.72-.16.94-.86,1.48-.74,3.28.7,3.44,2.81,4.53,2.85,4.53.16,0-2,.43-2.5,2.15-2.7.86-.07,1.21-.35,1.29-1a2,2,0,0,0-.28-1.41,2.56,2.56,0,0,1-.19-1.72c.31-1.6-.08-2.65-.74-2.1a9.9,9.9,0,0,1-3.09.7c-2.38.23-2.81.16-5.15-.94a31.57,31.57,0,0,1-4.81-2.81C420.17,200.46,418.88,200.15,418.06,201.12Z"/><path class="cls-1" d="M426.55,218.66c-.74.27-1.37.7-1.37,1a1.23,1.23,0,0,1-.58.82c-.47.28-.47.47-.08.86a4.07,4.07,0,0,1,.47,2.07c0,1.6.86,2.93,1.83,2.93.47,0,.9,2.74.94,6,0,1.56-.16,2.5-.59,3a2.4,2.4,0,0,0-.62,1.14c0,.62-1.52,1.36-2.23,1.09a.82.82,0,0,1-.39-1c.24-.86-.43-1.22-1.36-.71-.51.24-.71.82-.71,1.92a9.2,9.2,0,0,1-.58,2.93,4.74,4.74,0,0,0-.35,2.34c.27,1.09.19,1.13-1.57.31-1.21-.59-1.68-.62-4.41-.12-3,.51-3.12.59-5.19,2.74a10.73,10.73,0,0,1-2.89,2.38c-1,.16-1.17.74-.51,1.64s5,1.21,6.29.19a3.57,3.57,0,0,1,1.72-.74,3.22,3.22,0,0,0,1.67-.74,7.55,7.55,0,0,1,3.79-.9l2.81-.19v1.64a2.8,2.8,0,0,0,2.11,3.08c.86.31,2.58-.7,2.58-1.52a2.53,2.53,0,0,1,.66-1.21c.63-.63.59-.7-.43-1.52-.62-.51-1-1.1-.85-1.33.46-.74,1.67-.47,2.34.58s.78,1,3.47.71q4.46-.42,3.4-1.49c-1.17-1.17.35-2.3,1.6-1.17.78.7.82.7,1.56-.19,1-1.21.94-2.11-.23-3.48a7.83,7.83,0,0,1-1.41-3.48,22,22,0,0,0-1-3.59c-.51-1.17-.47-1.4.08-2s.58-.86-.24-3c-1.64-4.14-2.61-5.78-4.25-7.06a4.6,4.6,0,0,0-2.27-1.18c-.59.08-.7-.15-.7-1.44C429.09,218.11,428.66,217.88,426.55,218.66Z"/><path class="cls-1" d="M47.46,243.3a2.69,2.69,0,0,1-1.76.59c-1.4,0-2.77,1.21-2.42,2.14.16.39.74.59,1.76.59,2.89,0,6.29-3.48,3.75-3.83A1.56,1.56,0,0,0,47.46,243.3Z"/><path class="cls-1" d="M417.05,249.94c-.16.35-.75.58-1.49.58-1,0-1.33.24-1.87,1.49a2.78,2.78,0,0,0-.24,2.73c.78,2,3.4,2.23,2.89.28-.35-1.41.59-1.92,2.31-1.33s2.14.19,2.14-2.11c0-1.21-.15-1.52-1-1.84C418.33,249.2,417.28,249.27,417.05,249.94Z"/><path class="cls-1" d="M404.47,252.4c-.82.7-1.13,1.21-.9,1.44a3.22,3.22,0,0,1,.51,1.37c.16,1.37,1.29,1.45,1.95.12s1.76-1.45,2.42-.43a1.16,1.16,0,0,1,0,1.44c-.32.47-.32.86,0,1.14s.23.62-.12,1.13-.35.94.16,1.72a3.16,3.16,0,0,1,.66,1.6c0,.66,1.4,1.87,2.15,1.87.47,0,2.14-2.58,2.14-3.32a1,1,0,0,0-.42-.78,3.94,3.94,0,0,1-.36-2.3c.08-2.85.12-2.78-1-4.1a2.66,2.66,0,0,0-2.31-1.21,2.47,2.47,0,0,1-1.56-.39C407.28,251,405.8,251.31,404.47,252.4Z"/><path class="cls-1" d="M391.12,252.67c-.28.31-.43.7-.32.78.35.39,2.7-.31,2.54-.74C393.11,252,391.7,252,391.12,252.67Z"/><path class="cls-1" d="M411.38,266.38c-.43.55-.39.58.43.47a1.39,1.39,0,0,0,1.1-.63C413.1,265.56,412,265.64,411.38,266.38Z"/><path class="cls-1" d="M409.47,275.52c-1.37,1.36-.94,1.83,1.09,1.33a1,1,0,0,0,.28-1.88A1.57,1.57,0,0,0,409.47,275.52Z"/><path class="cls-1" d="M133.65,281.3c-.63.7-.63.78,0,1.25a1.18,1.18,0,0,0,1.91-1C135.52,280.52,134.47,280.4,133.65,281.3Z"/><path class="cls-1" d="M406.58,283c-.43.62-.51,1-.16,1.36.59.74,1.1.63,1.1-.23a1.1,1.1,0,0,1,.62-1c.31-.12.47-.39.35-.62C408.1,281.88,407.2,282.12,406.58,283Z"/><path class="cls-1" d="M113.85,283.87a1,1,0,0,0,.35.79c.39.27.9-.75.55-1.1S113.85,283.33,113.85,283.87Z"/><path class="cls-1" d="M382.84,289.85c-1.18,1.41-2.35,5.58-2.19,7.77s2,5.35,3,5.16c.31-.08.78-.94,1.05-2a7,7,0,0,1,.94-2.34,1.7,1.7,0,0,0-.2-2.42c-.54-.51-.58-.82-.19-1.6C386.59,291.41,384.67,287.7,382.84,289.85Z"/><path class="cls-1" d="M342.65,313c-3,1.56-4.22,4.21-2.89,6.13,1.13,1.64,6.45,1.6,6.45,0a1.66,1.66,0,0,1,.58-1,1.2,1.2,0,0,0,.39-1.21c-.15-.47,0-.82.35-1,.63-.24.82-1.88.39-3C347.57,312,344.45,312.07,342.65,313Z"/><path class="cls-1" d="M386,319.37c-.78.9-.89,2.5-.5,5.39.23,1.6.54,3.32.66,3.87.23.82.16.9-.27.47a1.59,1.59,0,0,0-2.31.11c-.35.43-.15,1.1,1.06,3.32.93,1.72,1.75,2.81,2.26,2.93,3.16.63,3,.55,2.85,1.88-.31,2-.08,2.22,2.66,2.22,2.3,0,2.54.08,3.36,1.17,1,1.41,1.71,1.49,2,.32.23-.82.27-.82,1.05-.12s1.06,1.76.39,1.76-.43,1.09.28,1.52.62.43-.08,1.76a3.3,3.3,0,0,0-.59,1.52,7.1,7.1,0,0,0,2.07.43l1.84.27v-1.4a5.85,5.85,0,0,1,.43-2.23c.35-.62.27-.94-.39-1.52a2.86,2.86,0,0,1-.82-1.92c0-1.25-1.84-2.89-2.85-2.5a.63.63,0,0,1-.79-.39c-.19-.46-.82-.62-2.42-.62-1.87,0-2.14-.08-2.14-.78a1.39,1.39,0,0,0-.75-1.13,2.94,2.94,0,0,1-.93-2.15c-.24-1.49,0-2.11,1.36-4.73l1.57-3-1.18-2.39c-.66-1.32-1.36-2.85-1.56-3.39-.39-.94-.58-1-3.12-1.06C387.38,318.9,386.25,319.06,386,319.37Z"/><path class="cls-1" d="M281.26,341.28c-.86.86-1.17,6.21-.47,7.89.39,1,.79,1.33,1.25,1.25s.71-.74.82-4.92,0-4.77-.43-4.77A2,2,0,0,0,281.26,341.28Z"/><path class="cls-1" d="M389.16,341.2a4.4,4.4,0,0,0,1,1.56c1,1.21,1.25,2.43.58,2.86s-.42,1,.51,1a2.39,2.39,0,0,0,1.56-.7c.82-.9.86-3.32.08-4S389.16,340.73,389.16,341.2Z"/><path class="cls-1" d="M129.2,344.09a1.1,1.1,0,0,0-.51,1c0,.58.27.74,1.36.74.75,0,1.37-.16,1.37-.35s.43-.43,1-.51c1.79-.19,1.21-.9-.78-1A9.63,9.63,0,0,0,129.2,344.09Z"/><path class="cls-1" d="M405.25,345.69a27.67,27.67,0,0,0-.9,3.05c-.7,3.08-1.21,3.63-3.35,3.79-1.8.11-1.88.15-2.07,1.52a7.72,7.72,0,0,1-.9,2.3c-1,1.37-.82,2.27.54,3.56,1.84,1.72,2.46,1.52,3.83-1.45a32.34,32.34,0,0,0,1.64-4.1,5.41,5.41,0,0,1,.94-1.91c.47-.39.74.08,1.52,2.42a1.15,1.15,0,0,0,2.07.08,2.34,2.34,0,0,0-.19-1.49,1.51,1.51,0,0,1,.15-1.75c.63-.86.47-3.44-.31-5.51C407.52,344.37,405.88,344.09,405.25,345.69Z"/><path class="cls-1" d="M395.25,345.73a3.86,3.86,0,0,0,.16,2,4.17,4.17,0,0,1,0,2.58c-.58,1.56-.47,3.2.24,3.48s3.94-1.64,4.17-2.58a1.9,1.9,0,0,0-2-2.19c-.86.12-1.05-.08-1.25-1.05C396.23,346.28,395.57,345.22,395.25,345.73Z"/><path class="cls-1" d="M387,346.4c-.39,1,.15,1.83,1.09,1.68,1.09-.16,1.29-.82.51-1.64S387.25,345.65,387,346.4Z"/><path class="cls-1" d="M384.87,352.41a2.12,2.12,0,0,1-.39,1.41,8.21,8.21,0,0,0-1.45,1.87,33.51,33.51,0,0,1-3.32,4c-2.15,2.23-2.73,3.4-1.91,3.91.62.35,3.08-1.06,3.32-1.91a2.88,2.88,0,0,1,1.33-1.45,2.66,2.66,0,0,0,1.4-2c.16-.86.51-1.45,1-1.56s1-.78,1.4-1.56c.59-1.25.59-1.49,0-2.58C385.45,351,384.87,350.93,384.87,352.41Z"/><path class="cls-1" d="M280.79,352.84a1.13,1.13,0,0,0,.82.39c.32,0,.55-.2.55-.39s-.35-.39-.82-.39S280.68,352.61,280.79,352.84Z"/><path class="cls-1" d="M404.31,356.39c-.85.47-.89,2.15-.07,2.46a2.21,2.21,0,0,0,1.56-.43C407.67,357.21,406.23,355.22,404.31,356.39Z"/><path class="cls-1" d="M233.35,357.33c-.39.47-.39.74.11,1.48.63,1,.55,3.68-.19,5a1.64,1.64,0,0,0,.08,1.49,1.3,1.3,0,0,1-.08,1.52c-.39.62-.39,1.05,0,2.11a8.33,8.33,0,0,1,.47,2.46c0,1.6.62,2.11,2.61,2.11,1.45,0,1.92-.24,3.28-1.57,1.53-1.48,1.6-1.64,1.33-3.2a6.84,6.84,0,0,0-.74-2.26,17.36,17.36,0,0,1-2.58-5.08,1.83,1.83,0,0,0-.62-1.21,6.4,6.4,0,0,1-1.25-1.87C235,356.78,234.13,356.39,233.35,357.33Z"/><path class="cls-1" d="M409.35,357.8a2.83,2.83,0,0,0-.27,1.48c0,1.49-.51,2.15-2.46,3.24-1.76,1-2.23,1.06-2.23.32,0-.9-.7-1.1-2.15-.63a3.42,3.42,0,0,0-1.95,1.6c-.35.63-.86,1.14-1.13,1.14a3.7,3.7,0,0,0-1.56.82,2.42,2.42,0,0,0-1,2.3c0,2,1.17,2.81,2.11,1.48a3.2,3.2,0,0,0,.63-1.56c0-.94.54-1.17,1.68-.74a1.51,1.51,0,0,0,1.67-.16c.86-.62,4.69-.78,5-.19.12.19-.19.58-.74.82-1.29.58-1.56,1.48-1,3.43.36,1.29.75,1.76,2.5,2.74,3.4,1.95,4.3,1.52,3-1.41a4.82,4.82,0,0,1-.54-2.54c.31-1.09,1.48-.7,1.64.55s1,2.07,1.83,1.72c.47-.16.59-.94.59-3.48,0-3-.08-3.35-1-4.17-.7-.67-.9-1.18-.74-1.8.23-.94-.67-2.73-2.19-4.38C410.17,357.49,409.78,357.33,409.35,357.8Z"/><path class="cls-1" d="M445.28,366.78c-.39.35-.35,2.46,0,2.46s.62-.55,1.56-2.46C447.08,366.43,445.63,366.39,445.28,366.78Z"/><path class="cls-1" d="M286.73,368.54c-.2.62.39,1.87.94,1.87s.27-2-.28-2.22A.56.56,0,0,0,286.73,368.54Z"/><path class="cls-1" d="M376.13,370.26a2.09,2.09,0,0,0-.86,1.6,5.61,5.61,0,0,1-1.52,2.85,11.23,11.23,0,0,0-1.68,2.54c-.12.62-.47.78-1.64.78s-1.56.15-1.83.86c-.2.5-.59.9-.94.9s-.9.58-1.25,1.28c-1.37,2.54-3.32,5.35-4,5.74a6.32,6.32,0,0,1-2.46.4c-1.68,0-1.8.07-2.78,1.71a7.85,7.85,0,0,0-1,2.93c0,1.49-.63,1.88-1.56,1a1.69,1.69,0,0,0-1.49-.43,1.39,1.39,0,0,1-1.44-.55c-.9-1-1.29-1-2.7.2-1,.82-1.17,1.25-1.32,3.43a6.48,6.48,0,0,0,.5,3.75c.47.94.51,1.41.2,1.8s-.2.74.47,1.48c2.42,2.58,2.65,3.05,2.81,5.59a6.13,6.13,0,0,0,.82,3.16,1.66,1.66,0,0,1,.43,1.52c-.16.51,0,.94.23,1a18.37,18.37,0,0,0,4.57-.51c.35-.08.67.23.82.82.2.82.47,1,1.76,1a6.22,6.22,0,0,0,2.54-.43c.82-.43,1.21-.43,2.34.07a9.17,9.17,0,0,0,2.5.63c1,.08,1.21.31,1.56,1.64.59,2.07,1.49,2.15,3.87.35a11.14,11.14,0,0,0,4.18-7.93c0-1.6.15-1.87,2-3.51l2-1.8,0-3c.08-3.79.51-4.38,3-4.1a3.82,3.82,0,0,0,2.49-.28c.63-.47.59-.58-.62-1.95a7.19,7.19,0,0,0-2.15-1.8c-.74-.31-.86-.54-.66-1.91s.08-1.68-.78-2.46c-1.37-1.29-1.88-4.65-.86-5.78a2.41,2.41,0,0,1,1.17-.78,3,3,0,0,0,1.37-.7l.89-.75-.85-.58c-.79-.55-.82-.67-.24-1.25a2.54,2.54,0,0,1,1.52-.63,2.12,2.12,0,0,0,1.41-.58c.43-.51.35-.78-.39-1.56a3,3,0,0,0-1.64-1,7.74,7.74,0,0,1-3.52-2.15.69.69,0,0,1-.07-.66c.11-.2-.36-.86-1-1.49C379,369.48,377.5,369.32,376.13,370.26Z"/><path class="cls-1" d="M396.66,372.05c.23.71.86.78,1.68.12s.7-.55-.51-.59C397,371.58,396.58,371.74,396.66,372.05Z"/><path class="cls-1" d="M393.93,373.58c-.51.19-.78.5-.67.74a1.45,1.45,0,0,0,2,0C395.65,373.62,394.9,373.19,393.93,373.58Z"/><path class="cls-1" d="M294,375.29c-.43,1.06.24,3.32,1.37,4.61a11.84,11.84,0,0,1,1.56,2.15,5,5,0,0,0,2.19,1.64,5.09,5.09,0,0,1,2.19,1.64,4.29,4.29,0,0,0,1.21,1.41,2.36,2.36,0,0,1,.7,1.87c0,1.95.58,2.81,2.19,3.13s2.22,1.13,3.12,5c.66,2.7.86,3.13,1.84,3.44.58.23,1.05.55,1.05.74a3.09,3.09,0,0,0,.86,1.21A11.39,11.39,0,0,1,314,405.4a29.56,29.56,0,0,0,1.83,4.1c.55.94,1.45,2.58,2,3.67a10,10,0,0,0,1.83,2.74,8.5,8.5,0,0,1,1.41,1.83,4.13,4.13,0,0,0,1.83,1.64c1.37.59,5.35,4.38,5.35,5.12a2.32,2.32,0,0,0,.74,1.13c.71.63.82.63,2,0s1.28-.58,2.22,0c1.45.94,1.68.35,1.68-4.45,0-3.75.08-4.18,1-5.39l1-1.29-1.68-2c-1.05-1.21-2-1.95-2.5-1.95-1.05,0-3.28-3.28-3.28-4.77,0-1.13-.82-2-1.75-1.79-1.21.23-1.57-1-.86-3.05.54-1.76.54-1.95,0-2.58a2.69,2.69,0,0,0-2-.7c-1.28,0-1.32,0-1.09-1.29.31-1.68-.55-2.62-2.34-2.62-1.21,0-1.33-.11-1.45-1.28s-.23-1.25-1.32-1.18a1.68,1.68,0,0,1-1.88-.86,2,2,0,0,0-1.64-1,3.2,3.2,0,0,1-2-1.13c-.59-.67-1.6-1.76-2.27-2.5a12.2,12.2,0,0,1-1.67-2.19,1.71,1.71,0,0,0-1.06-.82c-.86,0-3.28-2-3.28-2.77a5.09,5.09,0,0,0-1.29-2.07c-1.25-1.33-1.4-1.41-3.86-1.41-2.19,0-2.78-.16-3.75-1C294.54,374.55,294.31,374.51,294,375.29Z"/><path class="cls-1" d="M439.93,380a1.43,1.43,0,0,0,.78,1c.63.35.86.31,1-.16a1.34,1.34,0,0,0,0-1C441.34,379.2,439.93,379.32,439.93,380Z"/><path class="cls-1" d="M415.87,381.15c-.27.67.16,1.45.67,1.17s.47-1.75,0-1.75C416.26,380.57,416,380.84,415.87,381.15Z"/><path class="cls-1" d="M295.4,387.83c-.39.51-.39.66.08,1a2.77,2.77,0,0,0,1.21.35,4.58,4.58,0,0,1,1.25.23c.86.35.82-.74-.08-1.52S296.06,387,295.4,387.83Z"/><path class="cls-1" d="M422.79,389.31c-.39.47-.39.86-.08,1.6.62,1.41,1,1.37,1.13-.15S423.45,388.49,422.79,389.31Z"/><path class="cls-1" d="M420.68,391.81a8.75,8.75,0,0,0-1.29,2.58c-.59,1.64-.59,1.95,0,3.36.86,2.19.78,3-.43,4.45l-1,1.21,1.33.12a4.3,4.3,0,0,1,2,.74c.55.51.82.51,1.25.12s.51-.59-.19-1.53a3.26,3.26,0,0,1-.67-2.22c.08-.94.32-1.17,1.29-1.25,2-.2,2.23-.35,1.72-1.29a1.62,1.62,0,0,1,0-1.72,4.14,4.14,0,0,0,.31-2c-.12-1.13-.58-1.33-1.95-.74-.55.19-.7.08-.7-.51,0-1-.39-2-.78-2A2.16,2.16,0,0,0,420.68,391.81Z"/><path class="cls-1" d="M409,393.65c-.23.55-.66,1-1,1s-.7.43-.89,1c-.36.9-.51,1-3.21.9a11.78,11.78,0,0,1-3.63-.43,17.7,17.7,0,0,0-3.28-.94c-2.5-.51-2.54-.51-3.43.43a6.26,6.26,0,0,1-2.46,1.45c-1.53.47-2,1.17-1.88,2.69.16,1.92-.16,4.3-.66,4.77-.32.27-.82.74-1.17,1s-.59,1.21-.59,2.62a6.68,6.68,0,0,1-.82,3.47,4.86,4.86,0,0,0-.66,2.66c.11,1.17.23,1.29,1.36,1.21,2.46-.2,3.17,2.65,1.64,6.72a7,7,0,0,0-.58,2.73c.27.74,3.55.82,4,.12a34.11,34.11,0,0,0,.35-6.49c.08-6.09.27-6.91,1.6-6.63.63.11.74.5.74,2.85,0,2.53,0,2.69,1,2.93.7.19.94.46.86,1a11.32,11.32,0,0,0-.2,1.91c-.07,1,.08,1.18,1,1.29s1.17-.08,1.48-.9.59-1,1.65-.89,1.28,0,1.4-.82a2.49,2.49,0,0,0-.94-2c-1-1-1-1.21-.54-2.11s.39-1.1-1.33-3.13c-2.11-2.42-2.15-3.39-.12-4.06a9.05,9.05,0,0,0,2.54-1.72,4.19,4.19,0,0,1,2.15-1.25,1.13,1.13,0,0,0,.58-2c-.7-.58-4.6-.15-4.6.51,0,.31-.63.55-1.64.63-1.33.07-1.68.27-1.68.85a1.2,1.2,0,0,1-2,1,1,1,0,0,1-.43-1c.12-.27-.19-.82-.7-1.21a3.37,3.37,0,0,1-1.13-2.34c-.27-2.3.19-2.62,3.4-2,2.14.39,2.77.39,4.1-.12a2.92,2.92,0,0,1,2-.27c.78.47,6.09.43,7,0,.78-.43,3.08-4.65,3.08-5.66S409.51,392.52,409,393.65Z"/><path class="cls-1" d="M206.67,397.83c-.27,1.05,0,1.52.71,1.21s.78-2.07,0-2.07C207.14,397,206.79,397.36,206.67,397.83Z"/><path class="cls-1" d="M330,400.91a.72.72,0,0,0,.16.82,1.23,1.23,0,0,0,1.95-.58c.12-.47-.12-.67-.86-.67A1.71,1.71,0,0,0,330,400.91Z"/><path class="cls-1" d="M305.87,401.5c-.55.54-.28,1.36.42,1.25a.83.83,0,0,0,.67-.67A.67.67,0,0,0,305.87,401.5Z"/><path class="cls-1" d="M431.18,403.88c-.35.35-.27,1.29.12,1.29s.86-1.09.47-1.33A.47.47,0,0,0,431.18,403.88Z"/><path class="cls-1" d="M306.88,404.66c-1.25.43.12,2.85,1.56,2.85.78,0,.78,0,.24-1.48C308.25,404.78,307.7,404.39,306.88,404.66Z"/><path class="cls-1" d="M401.93,406.26c-.93,1-.82,1.25.63,1.25s2.57-.58,2-1.09A1.85,1.85,0,0,0,401.93,406.26Z"/><path class="cls-1" d="M419.21,406.81c-.55.55-.63,1.72-.12,2.07a.48.48,0,0,0,.63-.24,2.32,2.32,0,0,1,1.6-.27c.7,0,1.32,0,1.32-.19v-.59c0-.39-1.71-1.25-2.46-1.25A1.63,1.63,0,0,0,419.21,406.81Z"/><path class="cls-1" d="M333.9,407.55a3.26,3.26,0,0,0-1.71,2.38c0,.16.62.32,1.4.39,1.21.08,1.49.32,1.72,1.21.31,1.21,2.54,3.68,2.93,3.28a4.51,4.51,0,0,0,.43-1.91c.19-1.52.08-1.76-.82-2.22a2,2,0,0,1-1-1.29,1.76,1.76,0,0,0-2.93-1.84Z"/><path class="cls-1" d="M407,407.86a1.44,1.44,0,0,0,.23,1.17c.55.55,2.82.55,3.83,0,.78-.39.78-.42.12-1.17C410.25,406.81,407.28,406.81,407,407.86Z"/><path class="cls-1" d="M428.76,408.06a1.46,1.46,0,0,0,1.21,2c1.21.31,2.23-.47,2.07-1.56-.08-.63-.43-.86-1.6-.94C429.42,407.51,428.92,407.63,428.76,408.06Z"/><path class="cls-1" d="M311.25,410.28c-.39.59,0,.9.79.59.35-.12.5-.39.39-.62A.64.64,0,0,0,311.25,410.28Z"/><path class="cls-1" d="M413.65,410.52c-.47.43-.31.9.31.9a.61.61,0,0,0,.59-.59C414.55,410.21,414.08,410.05,413.65,410.52Z"/><path class="cls-1" d="M342,412c-.78.82-.86,1.1-.51,1.92.51,1.09.78,1.17,2.19.54s1.52-1.76.27-2.65C342.85,411.1,342.85,411.1,342,412Z"/><path class="cls-1" d="M422.83,413c-.75.27-.9.58-.79,1.79l.12,1.49,3-.12c2.73-.12,3.05-.08,4.18.9,1.52,1.29,3.32,1.25,3.51-.08.31-2.11-2.07-3.75-5.58-3.83a16.25,16.25,0,0,1-2.74-.27A2.7,2.7,0,0,0,422.83,413Z"/><path class="cls-1" d="M414.66,414.07a1.53,1.53,0,0,0-.23,1.37c.27,1.41,2.11,2.42,3.24,1.83a1.78,1.78,0,0,0,.31-2.65A4.52,4.52,0,0,0,414.66,414.07Z"/><path class="cls-1" d="M401.89,420.59a1,1,0,0,1-.89.59,2.39,2.39,0,0,0-1.53,4.26c1.45,1.36,2.42.82,2.7-1.41a3.27,3.27,0,0,1,1-2.42c.67-.51.74-.74.35-1.13C402.91,419.85,402.17,419.89,401.89,420.59Z"/><path class="cls-1" d="M439.93,425.05c-.27.54-.27.86,0,1,.51.31.58.24.9-.9S440.52,424,439.93,425.05Z"/><path class="cls-1" d="M446.22,425.55a5.71,5.71,0,0,1-1.14,1.64c-.93.82-1.83,3.13-1.44,3.75s1.68.43,2.46-.54a13.45,13.45,0,0,0,1.41-2.78c.54-1.4.58-1.91.23-2.34C447.08,424.46,446.61,424.54,446.22,425.55Z"/><path class="cls-1" d="M391.12,426.84c-.63.74-.24,1.8.58,1.53.63-.28.82-1.53.24-1.88C391.74,426.37,391.39,426.53,391.12,426.84Z"/><path class="cls-1" d="M334.61,427.08a5.28,5.28,0,0,0-.71,1.64c-.19.78-.5,1-1.21,1s-.93.12-.7,1.06c.39,1.56.55,1.71,1.37,1.48.39-.12,1.09-.27,1.48-.43.59-.16.94.12,1.41,1,.54,1.05.74,1.17,1.91,1a5.11,5.11,0,0,1,2.77.35,13.61,13.61,0,0,0,4.69.63,12.17,12.17,0,0,1,4.37.54c3.87,1.92,4.61,2.11,8.44,2.15a20.51,20.51,0,0,1,5.54.63c2.19.74,2.82.47,3.36-1.41.43-1.33.39-1.64-.23-2.3s-1.13-.78-2.85-.71c-2.11.12-2.11.12-2.54-1.24-.39-1.14-.7-1.37-2-1.65a4.63,4.63,0,0,1-2-.93,1.25,1.25,0,0,0-1.45-.39c-.74.19-1,.08-1-.35,0-1-1.06-.67-1.95.58s-1.49,1.45-3.25.51a9.29,9.29,0,0,0-3.2-.7c-1.68,0-2-.2-2.07-.9-.19-1.25-1.05-1.56-5.58-1.84C335.9,426.61,335,426.65,334.61,427.08Z"/><path class="cls-1" d="M361.94,430.36c-.31.86,1,2.15,2.19,2.15s2.77-1,2.77-1.72C366.9,429.69,362.37,429.34,361.94,430.36Z"/><path class="cls-1" d="M433.21,432.9c-2.18,2.81-2.54,3.35-2.38,3.78.35,1,1.6.47,3.28-1.48.94-1.09,1.8-2,1.88-2.15.27-.23-.82-1.33-1.33-1.33A3,3,0,0,0,433.21,432.9Z"/><path class="cls-1" d="M413.53,434a3.53,3.53,0,0,0-1.91.9c-.63.7-.63.78,0,1a4.78,4.78,0,0,0,3.75-.82c.43-.54.23-1.44-.32-1.29C414.86,433.75,414.19,433.87,413.53,434Z"/><path class="cls-1" d="M378,437.62c-2.38,1.6-3,2.38-2.15,2.89.63.39,8.09-1,8.91-1.6s.15-1.87-1.33-2a3.17,3.17,0,0,1-1.48-.51C381.31,435.75,380.41,436,378,437.62Z"/><path class="cls-1" d="M368.07,436.88a3.31,3.31,0,0,0,.71,1.4c.66.86.74.86,2,.28.74-.39,1.25-.94,1.25-1.41s-.27-.74-2-.74C368.74,436.41,368.07,436.57,368.07,436.88Z"/><path class="cls-1" d="M373,438c-1.25,2-1.21,2.23.19,2.42s2-.31,2.23-2.42c.19-1.4.11-1.56-.63-1.56C374.24,436.41,373.62,437,373,438Z"/><path class="cls-1" d="M388.85,437.66c-3,1.87-2.66,2.77,1.25,3.16a5.48,5.48,0,0,0,3.9-.62,13.48,13.48,0,0,1,3.56-1.06c1.87-.19,1.95-.23,1.95-1.36,0-1.33,0-1.33-3-.39-2.18.66-2.22.66-3.28-.16C391.82,436.14,391.27,436.18,388.85,437.66Z"/><path class="cls-1" d="M401.74,436.88c-.82.82-.51,1.48.7,1.48.9,0,1.17-.19,1.17-.74a1.1,1.1,0,0,0-.62-1C402.21,436.33,402.28,436.33,401.74,436.88Z"/><path class="cls-1" d="M411.46,437.54c-2.85.59-3.44.86-4.37,2a18,18,0,0,1-3.56,2.74c-2.22,1.25-2.46,1.52-2.57,2.77-.24,2.54,1.71,2.85,3.78.59a3.24,3.24,0,0,1,1.64-1,1.93,1.93,0,0,0,1.25-.9A7.17,7.17,0,0,1,409.9,442a48.72,48.72,0,0,1,6.56-2.85c.74,0,.47-1.09-.43-1.71a2.61,2.61,0,0,0-1.09-.59C414.82,436.84,413.26,437.15,411.46,437.54Z"/><path class="cls-1" d="M384.75,441.64c-.31.75.82,2.19,1.68,2.19a2.9,2.9,0,0,1,1.6,1c1.21,1.25,2.23,1.25,2.54,0s0-2.15-.9-2.15a1.57,1.57,0,0,1-1.17-.74C388,441.06,385.06,440.82,384.75,441.64Z"/><path class="cls-1" d="M398.38,447.93a.93.93,0,0,0,.55,1.76c.93,0,2.46-1.41,2.14-1.95S399.24,447.27,398.38,447.93Z"/></svg>