<svg id="Layer_1" data-name="Layer 1" xmlns="http://www.w3.org/2000/svg" viewBox="0 0 500 500"><defs><style>.cls-1{fill:#d9d9d9;}</style></defs><title>europe</title><path class="cls-1" d="M388.79,20.65a11.41,11.41,0,0,0-2.89,2.29,8.32,8.32,0,0,1-1.54,1.54,2.71,2.71,0,0,1-.48-1.31c-.27-1.5-.69-1.93-2.27-2.22s-2.41.45-2.41,3c0,1.79-.07,2-.79,2a5.45,5.45,0,0,0-2.1.78,3.07,3.07,0,0,1-1.44.63,3.12,3.12,0,0,1,.19-1.45c.53-1.77.5-2.44-.22-3.12-1-1-2.49-.71-5,1.13a8.86,8.86,0,0,1-4.55,2,12.34,12.34,0,0,0-3.66,1.08A14.37,14.37,0,0,0,356,33.41c-1.17,3.11-2.48,4.05-4.82,3.41-1.25-.33-1.51-.26-4.07,1.47-3.62,2.44-4.71,3.56-5.27,5.51a7.46,7.46,0,0,1-2.6,3.42c-2,1.75-4.29,4.23-8.68,9.52A33.81,33.81,0,0,1,326.14,61a9.4,9.4,0,0,0-3.1,3.23A37,37,0,0,1,318.22,70a38.66,38.66,0,0,0-4.91,6c-.75,1.72-.89,3.48-.33,4.39.26.4-.12.78-1.81,1.69-3,1.57-4,3.15-3.73,5.78a8.57,8.57,0,0,0,.79,2.89c.65,1,.45,1.24-2,2.74-2.18,1.27-3.13,2.51-2.9,3.75.15,1,0,1.24-3.57,3.3-6.59,3.86-10.21,7.39-10.7,10.36-.41,2.66.16,2.7,3.46.26,5.24-3.86,7.42-4.62,7.65-2.56.08.79-.3,1.35-1.84,2.74-3.32,3-5.24,3.61-8.78,2.89a7.12,7.12,0,0,0-4.66.38c-5.35,1.73-12.12,5.29-23,12.12-5.72,3.6-6.51,4.23-6.29,4.91a11.07,11.07,0,0,1,.42,4.54,9,9,0,0,1-1.88,2.74,6.47,6.47,0,0,0-2,4.2c-.22,1.35-.63,3.56-.87,4.91-.63,3.38-.45,3.72,2,3.72,2.6,0,3.69.34,3.69,1,0,.34-1.66,2.14-3.65,4.06-3.28,3.08-3.62,3.48-3.13,4a5.5,5.5,0,0,0,1.47,1.16c1,.49,1.58.38,4.33-.74.65-.31.72-.2.49,1.15s-.79,2.15-3.54,4.29c-1.2,1-1.39,1.61-1.28,4.76.08,1.87,1.58,3.3,4.48,4.23a24.35,24.35,0,0,1,3.8,1.58c3.36,1.93,10.24-1.28,21.27-9.83,3.8-3,4.19-3.38,5.54-6.11a18.91,18.91,0,0,1,1.66-2.9,6.65,6.65,0,0,1,1,1.65,10.37,10.37,0,0,1,.76,4.47A39,39,0,0,0,292,176a28.2,28.2,0,0,0,2.41,4.54c1.39,2.06,1.61,2.58,1.31,3.37-.63,1.69-.41,2.36,1.13,3.38,1,.63,1.51,1.27,1.51,1.76,0,1.2,1.66,3.71,3.51,5.25,1.59,1.33,1.59,1.33,1.84,4.22.48,5.89,1,10.76,1.27,11a12.31,12.31,0,0,0,3.47-.41c3.65-.72,3.39-.42,4.14-5.48a19.71,19.71,0,0,1,1-3.94c.45-.86.68-1,3.47-1a8.73,8.73,0,0,0,4.82-1c4.77-2.48,10.3-10.66,10.34-15.24,0-.74-.26-3.52-.63-6.15-1-7.31-.72-7.8,6.32-11.57,4.25-2.29,6-3.56,6.29-4.57a42.76,42.76,0,0,1,1.82-4.17c2.07-4.28,2.07-4.65,0-5.17-2.82-.72-2.79-.68-1.32-2.18a6,6,0,0,0,1.4-1.87c0-.72-1.28-1.17-5.16-1.81-5.31-.83-5.2-.79-5.69-1.84-.6-1.31-.56-3.53.12-7.05a35.77,35.77,0,0,0,.57-4.62c0-1.53.37-2.24,4.21-7.76,8.47-12.16,15-20.82,18.56-24.53,1.17-1.21,1.73-1.54,2.37-1.35,1.05.26,1.05.26-.31-4a35.59,35.59,0,0,1-1.12-4.2c0-.82.64-1.16,4.33-2.17,4.18-1.17,4.1-1.09,3-2.7-1.47-2.18-1.28-2.67,1.85-4.77l2.78-1.93,3.35,1.51c1.81.86,4,1.87,4.94,2.28,1.58.76,3.85,2.66,3.85,3.3,0,.19-.53.42-1.16.57-1.59.34-3.86,2.48-5.2,4.82a37.61,37.61,0,0,0-3.28,9.19c-.18,1.23-.41,1.5-1.2,1.61-1.39.16-1.92,1.21-1.06,2.14.65.72.65.75-.45,1.31a22.56,22.56,0,0,0-3.72,3.45,24.85,24.85,0,0,1-4.15,3.79c-1.35.8-1.62,1.13-1.62,2.07a8.58,8.58,0,0,1-1,3c-1,1.84-1,1.93-.42,5.1.3,1.8.72,4.76,1,6.64A85.07,85.07,0,0,0,363.29,139c.91,3,1.39,3.42,6.51,6,1.87.88,3.69,1.84,5.46,2.9a6.21,6.21,0,0,0,3.05.27c3.65-.24,6.33-1.59,14.16-7.14,7.38-5.24,10.61-7,13.62-7.39,2.45-.33,4-1.46,9.45-7a43.42,43.42,0,0,0,8.9-12c1.93-3.86,2.3-6.45,1.1-8.78a12.06,12.06,0,0,0-7.8-6.26l-1.58-.39.57-1.35a5.06,5.06,0,0,0,.34-2.77c-.19-1.24-.08-1.69,1-3.08l1.15-1.64-3.28-.27a36.3,36.3,0,0,1-3.76-.4,3.44,3.44,0,0,1-.76-1.93c-.22-1.61-.38-1.84-1.61-2.33a5.83,5.83,0,0,1-2.16-1.71l-.79-1.13,1.69-4.82,1.74-4.82-4.15-4.4c-2.25-2.43-4.4-4.82-4.74-5.36-.79-1.16-.79-2.4,0-5.7l.65-2.66-2.65-2.52c-1.93-1.8-3.08-2.62-4.36-3l-1.73-.49-1.21-4.92-1.24-5.32c0-.18.75-.56,1.76-.83,1.52-.38,2.38-1,4.45-3l2.6-2.55-.83-.68a4.7,4.7,0,0,0-2.74-.64,5.74,5.74,0,0,1-2.71-.52c-.69-.53-.69-.56.22-.89a2.33,2.33,0,0,0,1.8-2.56c-.1-1,0-1.05,1.78-1.54,3.12-.86,3-.78,2.11-1.76a15.58,15.58,0,0,0-7.08-3.52A6.38,6.38,0,0,0,388.79,20.65Z"/><path class="cls-1" d="M124.22,49.84a4.51,4.51,0,0,0-.23,1.31c0,.9-.3.9-1.35-.08l-.87-.78-2.47,1.16c-3.43,1.61-6.81,3.67-7.08,4.35-.56,1.5,1,2.89,4.48,3.94,2.18.68,2.3,1,.79,2.07a2.89,2.89,0,0,1-2.89.75c-2.37-.42-5.79-.3-6.75.18a2.8,2.8,0,0,0-1.27,3.12c.18,1,.3,1,2.33,1,3,0,4.55,1,4.55,2.89a3.3,3.3,0,0,1-1.32,2.67c-1.27,1.27-1.43,1.31-3.35,1.09-2.37-.27-2.67,0-2.89,2.43l-.18,1.77,2,.28c3.13.37,5.42,1.84,8.62,5.48s5.57,5.28,7.83,5.55a22.55,22.55,0,0,0,5.65-.87c5-1.19,8.73-1.57,10.35-1,1,.37,1.43.3,2.75-.38.87-.41,4.17-1.49,7.41-2.44,6.67-1.87,9.08-2.89,11-4.57A7.5,7.5,0,0,0,163,70.23c-1.13-2.24-1.21-3.41-.2-4s1-2.2,0-3.45c-.71-.89-.75-1-1.84-.33l-1.09.63-.22-1.39a4,4,0,0,0-2.71-3.25c-1.46-.37-2,.08-2.48,1.93s-.75,2.07-1.28.87c-.67-1.43-1.5-1.65-3.09-.87-.79.42-1.54.79-1.69.87s-.3-.15-.3-.45c0-1.24-2.23-2.11-5.28-2.07-3.53,0-4.59.34-5.08,1.39s-1,1-.56-.14.49-2.67,0-3a6.74,6.74,0,0,0-2.37,0c-1.93.26-2,.3-3.08,2.36s-1.25,2.14-2.57,2.26l-1.43.1,1.25-2.26c1.72-3.49,1.35-7-1-9C126.48,49.13,124.6,48.87,124.22,49.84Z"/><path class="cls-1" d="M401,147.78a63.51,63.51,0,0,0-12.07,3,31.44,31.44,0,0,0-5.06,2.77c-3.64,2.46-3.85,3.28-1.46,5.56,1.57,1.5,1.6,1.58,1.46,3.74-.2,3.59.9,4.15,4.45,2.32,1.24-.64,1.28-.64,1.93.22s.59,1,.06,1.92c-.67,1.35-.71,5-.1,8.65.55,3,.1,4.45-1.51,5.12-2.29,1-4.65-.26-7.31-3.77l-1.72-2.21h-2.29a13.2,13.2,0,0,1-3.54-.37c-.84-.31-1.1-.19-2.27,1.2-2.49,2.9-7.13,12.92-6.87,14.85a11.91,11.91,0,0,0,1,2.78,30.47,30.47,0,0,1,1.39,5.63c.53,3.5.73,4,1.74,5,1.17,1.05,1.21,1.05,4.64.82,4-.3,4-.3,4,2.64a8.24,8.24,0,0,1-1,3.56,5.77,5.77,0,0,0-.72,4.25l.23,2.37-1.51.38c-1.47.38-1.51.38-2.11-.91l-.64-1.31-3.28.23a80,80,0,0,0-12.8,1.8c-3.61.87-3.86.75-7.61-2.33-1.47-1.2-2.64-1.88-3.29-1.88-1.7,0-7.73,2.22-11.65,4.28-2.08,1.13-5.74,3.05-8.12,4.33s-5.17,2.59-6.14,3a14.55,14.55,0,0,0-4.08,2.63c-2,1.84-2.22,1.93-2.22,1.13,0-1.39-1-2.37-3.09-3.31-1.09-.45-2-.91-2.12-1s.3-.53.83-1.06a3.34,3.34,0,0,0,1-1.83c0-1.39-1.93-4.89-3.21-5.65-1.48-.89-1.82-.86-3.17.3s-1.51,2.49-.23,3.16,1.21.9-.3,2c-2.9,2.19-7.47,3.28-10,2.37-.76-.26-1-.08-2,1.55-1.13,1.83-1.17,1.83-2.53,1.53a15.94,15.94,0,0,0-1.67-.34c-.18,0-.29-.6-.29-1.31,0-1.28,0-1.28-2.54-2-1.43-.42-3.46-1-4.52-1.17a5.72,5.72,0,0,1-2-.68,6.83,6.83,0,0,1,.57-1.19,6.28,6.28,0,0,0,.56-2.37c0-1.39-.08-1.47-2.34-2.52a13.76,13.76,0,0,0-2.89-1.13c-.3,0,.57-1.16,1.93-2.59a39.16,39.16,0,0,0,6.6-10.3c.56-1.55.87-1.77,3.73-3.2,4.15-2.07,3.86-2.85-1.36-3.87a8.19,8.19,0,0,1-2.37-.7c-.2-.19.14-1.66.87-3.5,1.13-2.9,1.93-7.82,1.35-7.82-.91,0-4.15,2.1-4.68,3.05s-.83,1.09-2.53,1.09c-1,0-3,.11-4.34.22l-2.44.26-1.89,2.6a19.85,19.85,0,0,0-2,3.11c-.23,1,1,1.06,2.3.24a8,8,0,0,1,6.11-.8c1,.26,1.7.6,1.7.76,0,.52-3.43,1.93-5.25,2.14a12.86,12.86,0,0,1-4.14-.41,7.72,7.72,0,0,0-2.61-.42c-.2,2.6-.28,5.21-.22,7.82,0,7.25,0,7.67.83,8.94s.83,1.89.83,4.78a14.58,14.58,0,0,0,2.42,8.84c.79,1.16.82,1.38.37,2.47-.61,1.43-2.11,2.26-2.9,1.59s-1.35-.2-1.35,1.23a9.66,9.66,0,0,1-.41,2.45c-.38,1-.57,1.17-1.86,1.17s-1.65-.23-3.35-2.15l-1.89-2.1-2.18,1.72a15.9,15.9,0,0,0-2.52,2.26c-.31.48-.65.52-1.74.3-2.9-.72-9.77.63-12.22,2.36-1.17.83-1.17.68-.42,5.38a2.84,2.84,0,0,1-.6,2.56c-.76,1-1.06,1-2.79,1l-1.93-.11-.38-3.35-.39-3.3-1.23,2c-.69,1.13-2.08,3.46-3.13,5.23-2.38,4-3.55,5.22-7.33,7.73-3.25,2.1-5.09,3.68-5.09,4.33,0,.18-.26.36-.56.36a79.8,79.8,0,0,0-10.23,4.07,1.06,1.06,0,0,1-1.18,0c-.82-.45-6.94,0-8.49.6-1.13.45-1.7,1.43-3.32,5.57-1.77,4.59-3.28,6.05-7.43,7.29a3.46,3.46,0,0,1-2.75,0c-1.59-.64-2.38-.19-4.53,2.63-1.93,2.56-2.75,2.78-5.2,1.55-1.81-1-2.46-2-2.53-4.37-.07-1-.11-1.93-.15-1.93a14.36,14.36,0,0,0-1.93.49c-1.78.52-1.94.52-3.33-.27-1.69-1-2.3-.82-3.65.91a6.22,6.22,0,0,0-.27,6.42c.65,1.09.68,1.51.38,3.16a7.11,7.11,0,0,1-1.13,2.71c-.72.75-1,.79-4.42.56-2-.15-3.86-.3-4.18-.41a5.22,5.22,0,0,1-1.59-1.84l-1-1.7-9,.19-9,.19-1.05,1.2a4.51,4.51,0,0,0-1,1.69c0,.27.72.83,1.58,1.29l1.62.82-1.65.71a22.41,22.41,0,0,1-2.53.91c-.49.11-.91.37-.91.6,0,.78,1.17,2.51,2.61,3.8s1.59,1.39,3.77,1.16a5.34,5.34,0,0,1,4.18.83c2.42,1.31,4.53,3.86,6.3,7.51,1,2.15,1.59,2.83,2.69,3.39.75.41,1.47.75,1.54.79a4.73,4.73,0,0,1-.86,1.61,8.91,8.91,0,0,0-1,1.73,25.48,25.48,0,0,0,1.13,2.56,19.73,19.73,0,0,1,1.74,6.77,66.42,66.42,0,0,0,1.09,6.73c.53,2.11.53,2.15-.45,3.58a103.72,103.72,0,0,0-6.23,13.08c-1.54,3.86-1.84,4.32-4.67,7.14a76.22,76.22,0,0,1-9.47,7.82,7.68,7.68,0,0,1-3-.7c-1.46-.48-5.09-1.43-8.07-2.11-10.56-2.32-12.56-2.9-17.73-5.41s-8.3-3.43-10-3.11a5.37,5.37,0,0,1-2.53-.48,28.78,28.78,0,0,0-4.84-1.29,14.22,14.22,0,0,1-7.46-3.06,5.62,5.62,0,0,0-3.13-1.28c-1.93,0-2.41.27-3.66,2.07l-1.09,1.58-3.4.23c-5.05.3-6.76,1.39-7.92,4.88-.45,1.28-.38,1.54.49,3.12a8.58,8.58,0,0,1,1,2.34,9,9,0,0,1-1.86,2.67,15.54,15.54,0,0,0-2.07,2.89c-.23.72-1.66,1.89-8,6.51a14.82,14.82,0,0,0-2.71,2.29,6.29,6.29,0,0,0,.77,1.69c1.09,1.83.72,2.85-1.84,4.83-3.44,2.67-4.3,3.76-4.5,5.67-.18,1.65-.53,2-10.14,11.77-5.47,5.53-10,10.18-10,10.38a26.18,26.18,0,0,0,.61,2.62,15,15,0,0,0,3,6.28c1,1.19,1,1.23.41,2.48A10.21,10.21,0,0,1,16.53,419c-2.23,1.66-2.57,2.52-1.47,4.06s.41,3.2-3.13,6.88c-1.93,2-3.14,3.5-2.9,3.73a87.16,87.16,0,0,0,9.59,1.87l9.19,1.55,1.94,1.8a49.11,49.11,0,0,0,5.09,4c5.62,3.94,8.15,7.06,8.91,11.2.56,3.12,3.31,3.45,13.16,1.61,9-1.73,14.22-2,20.34-1.2,3.43.45,4.67.75,5.31,1.35,1,1,1.78,1,3.09-.15.8-.64,1.7-.9,3.74-1.08s4.11-.76,8.64-2.53a95.46,95.46,0,0,1,9.2-3.08,29.36,29.36,0,0,0,4.49-1.35c1.17-.57,1.21-.64,1-2.15l-.23-1.57,2.6-1.62c1.4-.9,4.68-2.75,7.24-4.06,4-2.11,4.72-2.63,5.21-3.72a10.7,10.7,0,0,0,.12-7.64c-1.25-4.13-1.14-6.64.41-9.24s5.43-6.27,11.2-10.63c2.53-1.88,5.66-4.44,6.94-5.63,3-2.79,4.08-3.32,7.66-3.76,2.53-.3,3.81-.79,9.39-3.5l6.46-3.12h6.14a19.43,19.43,0,0,0,4.17-.3,4.69,4.69,0,0,0,1-2c.48-1.59.63-1.75,1.9-2,1.72-.29,2.43-1.15,2.43-3,0-1-.19-1.4-.68-1.55-.81-.18-1.19-1.67-1.19-4.78a11.33,11.33,0,0,1,5.67-9.95l1.6-.85,4.29,1.91c6.68,3,6.68,3,9.16,2.37,1.2-.25,2.43-.51,2.65-.51a9.66,9.66,0,0,1,2.58,1.91,17.38,17.38,0,0,0,3.35,2.41c1.68.71,7.64.71,9,0a67.47,67.47,0,0,0,6.38-6.16c4.77-5,5.47-5.61,6.37-5.47,1.27.27,4.1-.88,8.59-3.52,1.91-1.11,4.25-2.41,5.11-2.86l1.52-.81,2.06,1a25.87,25.87,0,0,0,3.81,1.38c1.79.44,1.91.55,4.78,4.77,3.39,5,3.95,6.42,4.25,10.65.37,5,1.82,6.69,12,13.45a45.82,45.82,0,0,1,9.28,7.5c4.58,4.77,6,5.65,9.35,5.58,2.2,0,2.76.11,4.21,1s1.91,1.55,3.06,3.89c1.27,2.65,1.49,2.87,3.28,3.72a23.27,23.27,0,0,0,4.92,1.41l3,.49.1,1.29c.12,1.83,1.27,5.61,1.72,5.73.22.08,1.37.3,2.53.53a7.28,7.28,0,0,1,3.82,2c2.75,2.38,4.09,5.16,6.37,13.23,1.11,3.89,1.15,3.82-1.68,5.12-1.19.52-1.38.85-1.83,2.71a34.51,34.51,0,0,1-1.45,4.45c-.9,2.31-.95,2.38-.26,2.87,1.53,1.11,3.76.45,5.66-1.71.9-1,2.61-5.05,3.66-8.59.67-2.3,1.71-3.45,4.43-4.83s2.91-1.6,2.65-4.53c-.34-4-.44-4.31-1.46-4.31-.66,0-3.68-1.7-5.92-3.38-.71-.52,2.65-7.72,4.85-10.33l1.07-1.22,2.35.59a25.92,25.92,0,0,1,4.66,1.83c2.17,1.11,6.38,4.82,7.27,6.39.41.74.41.74,1,0a6.11,6.11,0,0,0,.37-5.35c-1.3-3.2-3.54-4.65-15.83-10.29-6.27-2.87-13.06-6.54-13.06-7a9.87,9.87,0,0,1,1.68-2.45,16.31,16.31,0,0,0,1.69-2.27c0-.6-3.33-1.08-7.35-1.08-3.5,0-4.92-.15-6.63-.74-6.79-2.34-11.08-7.64-12.27-15.12C301,369,300,367.52,294,363a60.44,60.44,0,0,1-4.77-4c-2.21-2.34-2.62-4.78-1.31-7.91.75-1.82.79-2,.19-3.42-.82-2-.78-5.28.07-6,.34-.33,2.86-1.85,5.56-3.42l4.91-2.78,1.68.71a10.4,10.4,0,0,0,2.61.81c.52,0,1,.19,1,.3a21.85,21.85,0,0,1-1.23,2.41L301.43,342l1,2a18.7,18.7,0,0,1,1.38,3.6c.3,1.12.57,1.52,1,1.37.74-.29,2.79-3.45,2.79-4.3a3.81,3.81,0,0,1,1.15-1.91l1.2-1.15.95,1.26a20.13,20.13,0,0,0,4,3.82c1.08.9,1.12,1,1.12,4.2a14.66,14.66,0,0,0,.37,3.91,13.71,13.71,0,0,0,2.12,1.91,4.74,4.74,0,0,1,2,2.45c.3,1.38,2,2.78,4.77,4,1.91.78,2.2,1.08,2.58,2.34l.44,1.41h2.06c4.06,0,7.23,1.48,11.92,5.64,2,1.79,3.06,2.46,4.41,2.79,2.86.63,8.53,3.9,11.21,6.43,1.35,1.26,1.49,1.26,4.29.55.86-.18.95-.1.95.75a1,1,0,0,0,.85,1.18h0c.86.18.9.3.71,3s-.11,3.08,1.54,7.28L368,399l-1.3,2.49L365.39,404l.63,1.86a17.79,17.79,0,0,0,5.92,7.68c4,3.24,4.78,4.32,5.07,6.28a3.73,3.73,0,0,0,1.42,2.72,15.78,15.78,0,0,0,7.3,3.16l3.13.59-1,.67a4.85,4.85,0,0,0-1.53,1.91,2,2,0,0,0,0,2.37,8.12,8.12,0,0,0,4.25,3.31c1.75.56,7.19.52,12.53-.15,5.91-.74,8.38-.74,8.38,0a3.85,3.85,0,0,1-2.27,3.13c-1.68.59-3.14.51-7.5-.34-5-1-8.65-1-10.36,0a6.71,6.71,0,0,0-3,5.61c0,2.63.9,3.49,4.7,4.63,2.05.64,3.29,1.24,3.51,1.71a22.58,22.58,0,0,1,.56,5.25c.18,3.93.29,4.64.95,5.34a5,5,0,0,0,3.92,1.57c1.27-.16,2.76-2.12,2.76-3.69,0-.59.11-1.07.29-1.07a25.59,25.59,0,0,1,2.87,3.53,22.54,22.54,0,0,0,2.86,3.53c.59,0,1.38-1.67,1.6-3.5a6.27,6.27,0,0,1,.42-2,12.47,12.47,0,0,1,2.75,2.26c1.6,1.57,2.87,2.49,3.39,2.49.82,0,.82-.11.67-2.93-.18-3.49-1-5.06-3.82-7.09-3.46-2.57-3.24-2.23-3-4.32l.26-1.91,3.47,1.68c4.95,2.37,7.64,2.3,7.64-.3,0-1.3-1.12-2.08-4.73-3.46l-2.72-1V437l1.05.56a17.26,17.26,0,0,0,2.88,1,11.24,11.24,0,0,1,4,2.28c2.66,2.13,3.76,2.51,5.1,1.76,1.58-.9,1.4-1.65-1-4.19a10.11,10.11,0,0,1-2.29-3c0-1.19-3-3.48-7.54-5.91-5.55-2.88-8-5-9.68-8.64-1.31-2.81-1.84-4.75-1.27-4.75a28.61,28.61,0,0,1,3.11,1c3.3,1.13,4,1.16,4.47.22s-.57-2.27-4.81-4.8a31.15,31.15,0,0,1-5.25-4c-1.76-1.92-1.84-2.47-1.2-7.14.53-3.62.67-3.93,1.69-3.93s2.54,1.8,5.28,6.84c3.05,5.65,5.3,7.45,6.68,5.43.75-1.08.75-3.06,0-3.67-1-.75-2.13-2.61-1.76-2.61a14.19,14.19,0,0,1,2.88,2.24c2.6,2.32,3.35,2.62,4.55,1.72.78-.56,1-.26-3.38-5.31-2-2.39-.79-2.35,3.22.12,2.74,1.68,3.49,2,3.76,1.57.79-1.27.18-2.55-2.4-4.94-1.2-1.08-1.46-1.45-.71-1,1.68,1.2,2.28.71,3.37-2.5a13.05,13.05,0,0,1,1.65-3.4c.87-1,4.8-2.35,6.37-2.35a31,31,0,0,0,4.17-.79,15.76,15.76,0,0,1,6-.6,12.08,12.08,0,0,0,3.84-.19c.48-.22,1-.34,1.13-.22a12.26,12.26,0,0,1-1.13,3.28c-1.31,2.95-1.65,4.49-1.05,4.49s7.13-4.26,8.44-5.64c1.13-1.16,1.42-1.72,1.31-2.58s.15-1.27,1.92-2.43c3.38-2.14,5-2.77,10.73-4.34,6.42-1.72,7.31-2.13,7.92-3.69l.45-1.17-4.39-2.09c-4.55-2.16-6.12-3.36-12.79-9.71l-2.88-2.73,1.24-2.25c1.12-2.09,1.23-2.57,1.34-6.09a37.14,37.14,0,0,1,1.17-8l1.05-4.19-.79-6.09c-.45-3.63-.64-6.17-.41-6.32s2.1-1.92,4.28-4l3.9-3.84-.53-1.19c-1.92-4.37-3.19-7.44-3.11-7.51a8.32,8.32,0,0,1,2.1.3c1.23.25,2.06.25,2.29,0a19.38,19.38,0,0,0,.89-3.74c1-6.13,3.46-9.94,7.58-11.81,1.54-.71,2.52-.86,5.67-.86h3.84l.22-8.65c.12-4.74.34-13.71.45-19.91l.23-11.37-1,.64c-1.38.9-5.21.59-10.34-.86-7.17-2-8.6-2.13-11.6-1.24-3.27,1-3.41,1-5.62-.14a22,22,0,0,0-3.5-1.31l-1.68-.45.38-2.05c.33-2,.33-2.06-.83-3.26a9.3,9.3,0,0,1-1.92-3.7c-.71-2.39-1.35-3.17-4.09-5.12-.67-.48-.83-1.09-1-4.41l-.23-3.84,2.4,1.56a28,28,0,0,1,2.78,1.93c.64.6,1.57.37,2.22-.6a3.91,3.91,0,0,1,1.57-1.31c2-.75.63-4.8-2.4-7.17-1-.79-2.82-2.17-4.05-3.07a16.67,16.67,0,0,1-3.38-3.06l-1.09-1.42.11-5.68.12-5.69-1.16-1.3c-1.4-1.61-3.08-2.58-8.14-4.71a23.25,23.25,0,0,1-5.48-3.07,167.5,167.5,0,0,1-11.44-12.48l-.86-1.21.79-2.39c2.73-8.11.52-11.09-9-12.22a15.48,15.48,0,0,1-4.39-1.16l-1.62-.82,2.22-1.75c2.4-1.92,3.84-3.66,3.6-4.34a4.7,4.7,0,0,0-1.35-1.16c-.63-.41-1.58-1-2.07-1.31-1.08-.71-1.08-1.3,0-2.35a4.44,4.44,0,0,0,1.13-1.76c.15-.52.53-1.56.86-2.35.61-1.35.57-1.46-.11-2.13s-4.61-1.57-6.15-1.46C404.13,147.45,402.59,147.64,401,147.78Z"/><path class="cls-1" d="M165.41,159.34a7.47,7.47,0,0,0-2.68,1.57,10.06,10.06,0,0,0-2.22,5.08c0,.74.11.78,2.45.55a12.86,12.86,0,0,0,6.85-2.58,4.92,4.92,0,0,0,1.09-4.24c-.23-.83-.41-1-2-.9A15.56,15.56,0,0,0,165.41,159.34Z"/><path class="cls-1" d="M177.27,162.8c-1.93.23-4.27,2-9.45,7.09L164,173.68l-1.23-1.23c-1.62-1.65-3.31-2.22-5-1.65-.71.22-1.31.56-1.31.74a21.35,21.35,0,0,0,1.54,3.15,9.61,9.61,0,0,0,2.83,3.61,8.1,8.1,0,0,1,1.27.9s-1.58.89-3.54,1.88c-4.17,2.09-6.8,4.46-7.41,6.67s-.3,2.55,2,2.55c3.62,0,5.54.41,5.54,1.16a28.89,28.89,0,0,1-2.9,5.1c-1.61,2.44-3,4.62-3.19,4.88s0,.34,1,0c4-1.27,5.57-1.57,6-1.17.6.61-.45,2.34-2.25,3.69-1.58,1.15-1.93,1.93-1.06,2.89,1.51,1.84,3.58,2.22,7.61,1.27,3.27-.78,4.52-.82,5.23-.26,1.13,1,.6,3.08-1.4,5.74l-.79,1.05.83,2.33c1.44,4.05,1.09,5.25-2.33,8.48-2.49,2.36-2.67,2.36-7.53,0-1.84-.91-3.35-1.39-3.72-1.24-.79.3-.83,2.1-.12,4.2l.57,1.54-1.58.11c-2.34.15-2.3,1.13.07,2.59,2.11,1.28,2.3,1.8,1.16,3.6s-3.12,2.89-7.52,4.24a30.28,30.28,0,0,0-4.18,1.43c-.56.64-1.93,4.61-1.73,5.06s1.62.56,5.91.75l5.72.23,1,1.19c1,1.13,1.17,1.21,3.53,1.25a8,8,0,0,1,2.53.26c0,.41-2.53,2.51-3.73,3.11-1,.52-1.36.49-4.4-.34a14.83,14.83,0,0,0-4-.75c-.67.23-3.53,3.15-4.48,4.62-.45.64-2.41,1.46-8.58,3.49-8,2.66-8,2.66-7.34,3.41,1.8,2,5.64,2.33,12.08.86a40.38,40.38,0,0,1,5.34-1,1.44,1.44,0,0,1,1.59,1c.23.53.56,1,.75,1a12.11,12.11,0,0,0,2.15-1.31c3.69-2.67,5.53-2.9,8-1.09,1.62,1.16,2.75,1.12,7.12-.23a36.32,36.32,0,0,1,3.86-1.12,6.19,6.19,0,0,1,1.42,1.68c1.58,2.3,3.5,3.72,4.63,3.42s1.78-1.65,1.78-3.46c0-1.08.11-1.27.67-1.11a23.54,23.54,0,0,0,11.52.41c3.58-.75,8.51-3.57,8.51-4.88,0-.79-1.31-1.65-3.58-2.44a10.83,10.83,0,0,1-2.55-1.09c-.2-.18.49-.89,1.5-1.65a20.28,20.28,0,0,0,2.53-2.1,2.43,2.43,0,0,1,1.5-.79c2,0,7.42-3.37,9.26-5.74.71-.89.79-1.16.37-2.14a8.87,8.87,0,0,0-4.82-4.09,30.22,30.22,0,0,0-5.46-.41c-2.37,0-4.06-.15-4.06-.37s.86-2.51,1.93-5.14c3.35-8.18,3-11.4-1.4-15.42l-2.44-2.26.23-1.65c.3-2-.08-2.36-1.93-1.76-1.32.45-2.83,0-2.83-.76a37.23,37.23,0,0,1,1.47-3.85c1.81-4.25,2.15-5.9,1.54-7.44a4.18,4.18,0,0,0-3.2-2.21,4,4,0,0,1-1.69-.75,12.22,12.22,0,0,0-2-1.13c-1-.33-1-.37-.45-1.68,1-2.4,2.74-4.43,8.28-9.87,5.23-5.14,6.25-6.49,5.72-7.76-.52-1.43-5.27-1.69-12.27-.75-2.19.3-4.11.56-4.33.56-.83,0,3.72-4.09,8.35-7.54,2.71-2,5-3.86,5.16-4a1,1,0,0,0-.14-.82c-.27-.46-1.55-.57-6.29-.61C181.44,162.64,178.11,162.72,177.27,162.8Z"/><path class="cls-1" d="M137.09,198c-2.48.63-3.8,1.31-4.93,2.55a2.91,2.91,0,0,1-2.11,1c-1.51,0-2.79,1.19-2.11,2a3.18,3.18,0,0,0,1.73.75c1.13.23,1.32.41,1.32,1.32s-.26,1.15-1.54,1.72-1.66.6-2.15.26c-2.67-1.93-7.64-2.89-10.39-1.93-1.77.56-4,2.47-4,3.38a1.64,1.64,0,0,0,.71,1.19,4.35,4.35,0,0,1,1.21,1.55c.6,1.35,0,1.93-2.41,2.51-3.09.68-3.28.78-3.28,1.28,0,.78,1.48,2.44,2.72,3.07a16.59,16.59,0,0,0,3.86,1.05l2.67.45-2.11.71c-2.52.79-3.8.57-4.4-.78s-1.28-1-2,1.12a10.17,10.17,0,0,1-.82,2,4.55,4.55,0,0,1-1.93-.41,11.9,11.9,0,0,0-2.49-.6,2.71,2.71,0,0,0-2.18,2.55c0,.83.26,1.2,1.21,1.61l1.2.57-2.33.52a7.46,7.46,0,0,0-2.75,1c-.45.53,0,1.58,1,2.4s.76,1.21-.75,2.9a4.42,4.42,0,0,0-1.2,2.16c.07.38,1.65,1.29,3.85,2.3l3.77,1.65,4.52-.42a149.75,149.75,0,0,0,16.19-2.14c5.49-1.23,10.91-3.93,13.36-6.75s4.37-8.06,4.07-11.33l-.19-1.76L148,215l3.62-2.44v-4.31c0-3.3-.08-4.69-.61-6-.87-2.18-1.46-2.55-3.2-1.93q-1.35.45-1.8.12a8.53,8.53,0,0,0-2.3-.87c-1.58-.37-1.77-.52-1.62-1.31s0-.9-1.4-.86A17.08,17.08,0,0,0,137.09,198Z"/><path class="cls-1" d="M246.9,377.71c-5.78,4.69-6.43,5.44-7.18,8.47A26.91,26.91,0,0,0,239,392c0,2.62.15,3.22,1,4.49,1.21,1.8,4.48,3.72,5.79,3.39s3.72-3.7,5-6.59c1.93-4.72,2.56-11.21,1.51-14.78-.53-1.65-1.55-3.26-2.08-3.19A30.32,30.32,0,0,0,246.9,377.71Z"/><path class="cls-1" d="M244.08,403.56a51.53,51.53,0,0,1-5.3,3.37c-4.83,2.7-5,3.16-4.93,10.61a33.86,33.86,0,0,1-.91,9.57c-1.06,4.6-1.36,8.59-.64,9.3.34.34.9.3,2.45,0a8.26,8.26,0,0,0,4.14-2.52c2.18-2.1,3-2.32,4.06-1.05.27.3.61.57.79.57.42,0,1.74-2.67,3.32-6.64l1.24-3.08-1-2.62c-1.24-3.08-1.09-4.17.71-5.26,1.56-1,1.93-2.7,1.33-6.6-.38-2.85-2.08-6.75-3-6.83A5.11,5.11,0,0,0,244.08,403.56Z"/><path class="cls-1" d="M312.86,446.92a69.73,69.73,0,0,0-7.6,1.93c-6.7,1.93-9.53,1.93-13.1.18l-2.19-1.1-2.53.76c-1.39.41-3.5,1-4.67,1.19-3.16.65-4.48,1.66-5.38,4.21s-.64,3.15,2,5.29,7.56,4.5,16.71,8c4.63,1.77,9.83,3.86,11.57,4.58l3.16,1.35.9-1.12c1.93-2.37,2.19-3.12,2-6.91-.34-8-.26-9.86.61-11.06a10.44,10.44,0,0,0,1.72-5.63C316.18,446.43,316.18,446.43,312.86,446.92Z"/></svg>