<svg id="Layer_1" data-name="Layer 1" xmlns="http://www.w3.org/2000/svg" viewBox="0 0 500 500"><defs><style>.cls-1{fill:#d9d9d9;}</style></defs><title>Untitled-5</title><path class="cls-1" d="M568.91,62.4c-4.47.2-7.66.54-8.4.94-1,.54-1.7.54-3.73.1s-3.89-.45-8,0c-3,.3-7.76.54-10.55.54-4.58,0-5.22.1-6.92,1.29s-1.94,1.18-3.23.44c-2.09-1.23-3.73-1-4.92.69s-1.8,1.83-4.78.25-3.73-1.53-4.93.39-2.43,2.23-4.27.89c-1.15-.84-1.6-.93-2.34-.49s-1.2.39-2.39-.49c-1.39-1-1.69-1-8.41-.6-6.22.45-7.46.69-11.69,2.32-4.43,1.68-5.12,1.83-10.69,1.93-6.47.1-12,1-12.39,2a3.52,3.52,0,0,0,.5,2,8.91,8.91,0,0,1,.69,1.48c0,.4-4.72,1.24-6.76,1.24-3.14,0-17.76,2-18.26,2.47a1.4,1.4,0,0,0-.1,1.38c.3,1,.65,1,7.91,1,4.13,0,7.86.1,8.26.34s-.85.79-3.88,1.54c-4.18,1-4.78,1.08-6.62.44-2.63-.94-5-.49-4.82.94.15.89.44,1,2.24.89,2.13-.2,2.13-.2,1.84,1.28s-.2,1.43,1.79,1.78a4.27,4.27,0,0,0,3.28-.44c1.59-1,4-.94,4.68.09.44.79.59.75,1.74-.59s1.34-1.38,1.79-.64c.65,1.18,2,1.14,3.58-.1s2.44-1.28,2.24-.2c-.15.69.4.84,3.13.89,2.29,0,3.63.3,4.23.84a7.29,7.29,0,0,0,2.34,1.14c1.09.24,1.34.59,1.24,1.43s.15,1.14,1.15,1.23,1.34.5,1.89,3a13.17,13.17,0,0,1-1.74,9.78c-1.74,2.91-1.59,3.8.44,3.41a23.68,23.68,0,0,0,2.89-.79c1-.4,1.69-.25,3.58.88,2.64,1.58,3,2.18,2.09,3.41-.6.84-.74.84-2.54,0-2.53-1.08-6.41-1.33-6.41-.39,0,.39.94.93,2.24,1.23,5.77,1.48,7.66,3.41,6.21,6.18-.79,1.58-.79,1.58-3.68,1.23-2.73-.3-2.93-.25-4.47,1.23a6.65,6.65,0,0,1-2,1.54,7.41,7.41,0,0,0-1.94,1.28c-1.89,1.53-2.19,4.1-.55,4.49,1.09.3,1.34,1.14.35,1.14s-2.34,1.63-2.34,2.62a4,4,0,0,0,1.34,2c1.34,1.24,1.34,1.29.8,4.55-.7,3.85-.1,6,2,7.36,1,.69,1.14,1,.64,1.72s-.39,1.19.45,2.33a12.45,12.45,0,0,1,1.64,3.26,4.9,4.9,0,0,0,1.55,2.32c1.39.74,5.77.59,6.41-.2.5-.59.9-.54,2.54.4,1.49.79,2,1.43,2.29,2.61.35,1.78.74,2,1.69.89.5-.59,1.19-.69,2.69-.49,2,.29,2.09.24,4.37-2.57,1.3-1.58,2.89-3.36,3.44-3.95a2.6,2.6,0,0,0,.79-2.82c-.3-1.78.7-3.4,1.4-2.27.54.84,1.19.54,2-1,.44-.84,1.14-1.48,1.64-1.48,1.34,0,3.08-1.43,3.08-2.52a.88.88,0,0,0-1-.94c-1.55,0-1.2-1,.44-1.28,1.35-.3,1.45-.44,1.2-2s-.3-1.67,1.74-1.67c1.19,0,2.09-.25,2.24-.7s1.49-.79,3.38-1c3.78-.45,4.83-.94,5-2.37a1.5,1.5,0,0,1,1-1.29c.75-.15.9,0,.6.89s-.2,1,2.34.89c1.94-.1,2.63-.35,2.63-.89s.6-.74,2.14-.84c2.54-.1,3.58-.69,7.16-4.3,1.8-1.77,3.24-2.76,4.18-2.86,1.25-.1,1.45-.4,1.6-1.78.19-1.93.39-1.93,2.13-.3,1.35,1.29,1.35,1.29,4,.5a66.38,66.38,0,0,1,7-1.24,21.46,21.46,0,0,0,6.71-1.68,123.2,123.2,0,0,1,12.74-5c2.44-.84,2.89-1.44,1.54-1.93s-12.34.3-13.53,1a2.84,2.84,0,0,1-1.94.44c-1.24-.49.65-2.17,2.79-2.52,3.23-.54,4-1.08,4-2.71s.1-1.53,1.84-1.39a2.63,2.63,0,0,1,2.63,1.63c.7,1.24,1.15,1.49,2.79,1.53a9.25,9.25,0,0,1,2.79.4c1.79.79,2.63.15,2.58-1.93,0-1.73-.2-2-1.14-1.82-.75.09-1-.1-1-.84a1.66,1.66,0,0,0-2.14-1.63,3.1,3.1,0,0,1-2-.6c-1.19-.74-3.08-4.1-2.58-4.59.25-.3,2.19.25,7.21,2.07,1.34.5,2.39.6,2.64.35s.3-.59-.05-.79c-1.74-1.09,1.34-3.7,4.43-3.8a12.28,12.28,0,0,0,4-.94c1.94-.79,2.23-1,2.08-2.22l-.14-1.34,2.68.35c2.09.25,2.79.15,3.29-.45.79-1,.29-1.77-1.15-1.77a2.53,2.53,0,0,1-1.79-.79c-.55-.65-.5-.79.35-1s1-.64.94-2.08.15-1.82,1.1-2c.74-.1,1.09-.45,1-1s-.79-.89-2.53-1c-1.3-.1-2.34-.34-2.34-.64a.44.44,0,0,1,.45-.44,10.51,10.51,0,0,0,2.78-2,9,9,0,0,1,3-2c1,0,.84-1-.35-2.27s-.8-2.37.84-2a2.13,2.13,0,0,0,1.74-.45,2.48,2.48,0,0,1,1.75-.69,3,3,0,0,0,1.89-.79,2.14,2.14,0,0,1,2.23-.44,3.07,3.07,0,0,0,2.84-.89,8.12,8.12,0,0,1,4.43-1.53c3.28-.35,4.57-1.09,2.68-1.49-6.21-1.28-9.6-1.43-12.18-.59a30.48,30.48,0,0,1-5.72.94c-2.29.1-3.59.44-4.18,1a3,3,0,0,1-1.7.84,20,20,0,0,0-3.53.94,9.35,9.35,0,0,1-3.08.74c-.8-.5-.35-1.09,1.49-1.93,1.69-.84,2.54-1.58,2.59-2.22a20.46,20.46,0,0,0-4.73-.1c-4.62.2-5.57-.1-4.08-1.28.35-.3,2.89-.65,5.57-.7,3.19-.09,5-.34,5.08-.74s-.65-.69-2.19-.89a68.86,68.86,0,0,1-11-2,11.11,11.11,0,0,0-3.24-.59C576.57,62.06,572.89,62.2,568.91,62.4Z"/><path class="cls-1" d="M445.39,63.62c-.25.2-4.88.4-10.35.45l-10,.1-1.19,1.28c-1.24,1.33-2.94,1.68-3.48.79-.4-.64-4.78-.2-7.27.74-1.19.45-4.62.74-9.85.84-4.37.05-8,.25-8,.45a7.32,7.32,0,0,0,1.5,1.77l1.49,1.44,8.75.1c4.83.09,9,.24,9.26.39s.2.59-.15,1c-.7.84-8.46,1-10,.15-.8-.45-1.24-.3-2.34.69A6.84,6.84,0,0,1,401,75.33c-1.45.34-1.45.34-.55-.64s.79-2.52-.3-2.52a4.2,4.2,0,0,0-1.74,1.08l-1.2,1.09-.29-1.09c-.2-.84-.65-1.08-1.94-1.08s-1.8-.25-2.19-1.19a3.14,3.14,0,0,0-2.14-1.73c-1.49-.49-2.29-.39-6,.89a55.79,55.79,0,0,0-5.23,2,7.14,7.14,0,0,1-2.73.54c-2.34,0-4.28,1.58-3.53,2.82s5.67,1.82,8.5,1.13a22.6,22.6,0,0,1,3-.49c.79,0,.79,0,.05.79s-1.84.84-4.83.89c-3.48,0-4,.15-4,.89,0,1.38,2,2.22,6,2.57,3.38.29,3.83.19,4.68-.7a3.2,3.2,0,0,1,1.94-1,30,30,0,0,0,4.67-1,27.52,27.52,0,0,1,5.73-1c3,0,5.27-.89,5.62-2.17.25-1,.44-.89,2.73,1.28a32.4,32.4,0,0,1,2.44,2.52s-3.23,0-7.21,0l-7.17-.2-1.19,1.29a3.83,3.83,0,0,1-2.64,1.28c-1.74,0-2.43.45-2.88,1.73-.2.79-.75,1-2.14,1.09-2.64.15-7.31,1.87-7.51,2.81-.25,1.24,1.24,1.48,5.37.84,2.84-.49,4.13-.49,4.87-.1s1.45.35,2.89-.24a4.6,4.6,0,0,1,3.78-.25,6.18,6.18,0,0,0,4.28-.15c2.64-.74,4.33-.34,3.18.79a2.19,2.19,0,0,0-.59,1.29c0,.74.2.74,5-.65a44.29,44.29,0,0,1,5.47-1.13c2.44-.3,2.74-.5,2.89-1.58.25-1.58,1-2.47,2.09-2.47a3.14,3.14,0,0,0,1.79-1,2.25,2.25,0,0,1,2.09-.79,7.62,7.62,0,0,0,2.78-.15c.85-.24,2.14-.54,2.94-.69s1.34-.64,1.34-1.28a2.46,2.46,0,0,1,1.2-1.73,12.48,12.48,0,0,0,2.48-2.72c1.6-2.37,3.14-2.57,6.67-.79a7.71,7.71,0,0,0,5.07.94,8,8,0,0,0,3.74-1.14c.69-.59,2.13-.93,4.47-1.08a14.87,14.87,0,0,0,5.57-1.34,11,11,0,0,1,3.59-1c2.14,0,3-.45,3-1.53s.4-1,7.51-.89c4.68,0,7.71-.15,8-.45,1-1,0-2-2.19-2.27-1.19-.15-4-.49-6.36-.84s-8.71-.64-14.18-.69a101,101,0,0,1-11-.45C446.24,63.38,445.59,63.38,445.39,63.62Z"/><path class="cls-1" d="M342.21,78a9.33,9.33,0,0,0-1.64,2.22c0,.79,2.24,1,5.22.54,3.39-.54,4.58-.14,5,1.63.15.7.35,1.24.45,1.24a27.82,27.82,0,0,0,5-3,2,2,0,0,0-.4-1.53c-.79-1.19-4.72-2.33-9.35-2.67C343.9,76.18,343.76,76.23,342.21,78Z"/><path class="cls-1" d="M321.57,78.4a2,2,0,0,0-.9,1.34c0,.54.85.69,3.88.64,5.33-.1,5.18,0,5-1.33-.15-1-.45-1.09-3.63-1.19C323.56,77.76,322.12,78,321.57,78.4Z"/><path class="cls-1" d="M361.47,79.44c-1.15,1.33.29,2.12,4.12,2.27,5.92.2,5.83-2.17-.14-2.76C362.71,78.65,362.06,78.75,361.47,79.44Z"/><path class="cls-1" d="M311.12,81a1.22,1.22,0,0,0-.89,1.19c0,.69.34.94,1.24.94,1.49,0,4.23-1.29,4.23-2C315.7,80.68,312.76,80.58,311.12,81Z"/><path class="cls-1" d="M322.16,81.17a8.82,8.82,0,0,1-3.23.49c-2.54,0-4.72,1-4.72,2.18,0,.84,5.82.44,7.31-.5a5.2,5.2,0,0,1,2.39-.69c1.39,0,1.74-1.18.44-1.68A1.89,1.89,0,0,0,322.16,81.17Z"/><path class="cls-1" d="M333.31,82.9c-.65.94-.7,1.38-.25,1.92,1.19,1.44,3-.09,3-2.56C336.09,81.17,334.15,81.61,333.31,82.9Z"/><path class="cls-1" d="M298.78,83.1a37.19,37.19,0,0,1-4.42,1c-2.69.55-3.24.5-4-.14-1.15-1-1.84-1-2.64.09-.55.75-9.4,3.56-13.08,4.15a1.12,1.12,0,0,0-1,1.09c0,.79.5.94,3.68,1.09,2.69.14,4,0,4.83-.55a5.62,5.62,0,0,1,2.48-.74,14.54,14.54,0,0,0,3.24-.54c1.49-.45,2.09-.45,2.64,0s1,.44,2.23-.4a5.74,5.74,0,0,1,2.89-1,6.29,6.29,0,0,0,2.88-1,6.17,6.17,0,0,1,2.59-1c1.49,0,2-1,.9-1.83S300.57,82.55,298.78,83.1Z"/><path class="cls-1" d="M363.46,83.34c0,.94,1.14,1.24,4.62,1.19,2.39,0,2.84-.15,2.74-.84C370.62,82.55,363.46,82.21,363.46,83.34Z"/><path class="cls-1" d="M377.48,83.19c-2.13.65-1.79,1.73.45,1.59,2.79-.25,3.93-.65,3.93-1.39S380.07,82.45,377.48,83.19Z"/><path class="cls-1" d="M357.39,86c-1.55.4-.95,1.58,1,2.12a14,14,0,0,0,4.63.2c2.19-.24,2.78-.15,3.38.55.75.88.8.88-2.54,3.26-1.54,1.08-.94,2.42,1.1,2.42a4.44,4.44,0,0,1,2.53.83c.85.75,1.05.75,2.69,0,2.39-1.13,3.33-1.08,2.94.15s.49,1.29,4.47.1,11.94-1.13,13.83.15,8,.84,9.85-.4a4.13,4.13,0,0,1,2-.83c.6,0,.9-.4.9-1.14,0-3-4.63-4.25-11.59-3.06-2.39.39-5,.74-5.77.74s-1.65.2-1.79.49c-.45.74-3.44.59-4.53-.25a3.26,3.26,0,0,0-4,0c-1,.7-1.05.65-1.24-.49a2.25,2.25,0,0,1,.44-1.88c.6-.59.4-.79-1.29-1.58a6.83,6.83,0,0,0-3.33-.59,9.31,9.31,0,0,1-3.63-.44A30.31,30.31,0,0,0,357.39,86Z"/><path class="cls-1" d="M313.61,86.9c-1.59.84-1.59.89-.8,2.12s.15,2.52-1.44,2.52c-2.39-.05-6.22-1.28-6.92-2.22-.94-1.28-8.15-1.68-9.9-.54a4.8,4.8,0,0,1-2.13.79,3.47,3.47,0,0,0-2,.93,3.25,3.25,0,0,1-2.19.7c-1.4-.25-4.53,1.63-4.23,2.47a.72.72,0,0,0,.89.39,7.74,7.74,0,0,1,2.09-.25,2.69,2.69,0,0,0,1.74-.59c.2-.3,2-.54,4-.59,2.79,0,3.59.1,3.59.64,0,.84-1.65,1.33-3.49,1.14-.79-.1-1.24.14-1.39.69-.25,1.18,2.09,1.68,4.73,1a15.64,15.64,0,0,1,3.53-.6,25.83,25.83,0,0,0,4.82-1,29.3,29.3,0,0,1,8.36-1c8.11,0,13.48-2.08,11.2-4.35-.85-.84-1.75-.74-3.39.5-1.94,1.43-3,.64-1.74-1.24.45-.74.7-1.53.5-1.83C319,85.86,315.15,86,313.61,86.9Z"/><path class="cls-1" d="M341.62,87.15c-2.54,1-4.43,3.8-3.09,4.59.25.15.35.69.25,1.18-.2.7.15.84,2.49,1a9.31,9.31,0,0,0,5.67-1.38c3.33-1.68,5.57-3.56,5.57-4.69s-1.24-1.43-2.64-.55c-1.09.75-1.29.75-1.84,0S343.56,86.36,341.62,87.15Z"/><path class="cls-1" d="M330.62,87.84a1.18,1.18,0,0,0,.75,1,1.5,1.5,0,0,1,.74,1.24c0,1.23,1.1,1.68,2.44,1,1-.55,1.15-2.13.35-3.41C334.35,86.8,330.62,86.9,330.62,87.84Z"/><path class="cls-1" d="M324.75,92.13c-1.19,1.19-.69,2,1,1.68s2.88-1.13,2.88-1.82S325.45,91.44,324.75,92.13Z"/><path class="cls-1" d="M351.42,92.58c-1.2.69-1.15,1.78.15,2.47s5.47.25,6.16-.74a2.13,2.13,0,0,1,1.5-.79c.69,0,.74-.15.25-.74C358.73,91.89,352.81,91.74,351.42,92.58Z"/><path class="cls-1" d="M257,96.43a3.68,3.68,0,0,0-1,2c0,.69-.55,1.13-1.84,1.53a43.16,43.16,0,0,0-5.72,2.76,29.8,29.8,0,0,1-5.37,2.52c-2,.35-2.24.94-1,2a2.86,2.86,0,0,1,1,1.68c0,1.83,1.34,2.12,4.42,1a19.46,19.46,0,0,1,5.13-1c1.64,0,2.48-.3,3.18-1,1.29-1.43,3.48-2.47,4.38-2.12.45.15,1.84-.35,3.13-1.19a16.31,16.31,0,0,1,4.63-1.83,29,29,0,0,0,4.48-1,43.68,43.68,0,0,1,5-1c4.58-.49,5.18-1.63,1.79-3.46-1.54-.84-2-.89-4-.34-3,.79-4.28.74-5.62-.2-.74-.5-2.78-.84-6.27-1C258.49,95.39,258,95.44,257,96.43Z"/><path class="cls-1" d="M353,98a16.58,16.58,0,0,0-3.83.89,5.4,5.4,0,0,1-2.34.59c-.8,0-1.29.3-1.29.7s-.55.84-1.25,1c-1.64.4-2.78,3.91-1.69,5s3.83.2,5.17-1.43c1.2-1.43,1.85-1.58,4.43-1,1.74.35,2.44.15,5.72-1.48,2.09-1,4.33-2.12,5-2.42s1.24-.89,1.24-1.28c0-.6-.84-.74-4.23-.79C357.63,97.67,354.5,97.77,353,98Z"/><path class="cls-1" d="M375.39,98.46c-.69.19-3.83,1.23-7,2.22-5.27,1.63-5.92,2-8.61,4.49-2.88,2.82-3.18,3.66-1.14,3.66a10.76,10.76,0,0,1,5,1.63c.35.29-.79.34-3.23.15-2.88-.25-4-.15-4.73.39-.94.69-.94.74.25,1.73.95.74,1.94,1,4.28,1a9.37,9.37,0,0,1,3.48.44,13.61,13.61,0,0,0,4.18.69,65.12,65.12,0,0,1,7.46.89,43.52,43.52,0,0,0,7,.64c3.68-.09,7.06-1.28,6.67-2.37a.89.89,0,0,1,.29-1c.35-.2,1.45.59,2.69,2a12.58,12.58,0,0,0,3.83,3l1.69.59-1.54,0c-1.89,0-4,1.58-3.58,2.57s4.33.64,4.72-.35c.3-.79,1.5-.94,1.75-.2a7.89,7.89,0,0,0,2.38,1.63c2.19,1.14,2.24,1.24,2.24,3.61,0,1.92-.15,2.42-.84,2.42a3,3,0,0,0-1.74.89,4.22,4.22,0,0,1-2.24.84c-.7,0-1.4.29-1.55.69a4,4,0,0,1-2,1.33c-1.8.64-2.29,1.73-1.25,2.77.8.79.1,1-4,1.63-2.88.39-4,.34-5.77-.25-2.88-.94-3.33-.94-4.38.2a4.4,4.4,0,0,1-2.48,1.13c-1.35.15-1.6.35-1.8,1.88-.54,3.26.2,3.56,5.33,2.17a42.6,42.6,0,0,1,7.46-.84c4-.09,4.58,0,4.38.7-.3.93.64,1.87,2.54,2.37,1.74.44,2.08,1.38.59,1.63a1.43,1.43,0,0,0-1.29,1.18c-.1.84.15,1,1.49,1,2.94.1,4.83.69,5.13,1.68s1,1.18,4.72,1.63a5.14,5.14,0,0,1,2.79,1c.69.93,2.68,1,3.88.14.84-.64.84-.74.1-2.22-.45-.89-1.05-1.58-1.3-1.58-.84,0-5-3.16-5-3.8s1.29-.89,1.74-.15a2.5,2.5,0,0,0,1.69.49c1.05,0,1.79.45,2.74,1.68s1.54,1.63,2.24,1.44,1.14.09,1.54.88l.64,1.14.7-1.33c.35-.74.9-1.34,1.15-1.34s.49-.44.49-1a.89.89,0,0,1,1-1c1.34,0,1.79-1.24,1-2.72a2.79,2.79,0,0,1-.3-2,1.73,1.73,0,0,0-1.79-2.18c-1.19,0-3.88-2.71-3.88-3.9s2.24-3.51,3.29-3.51c1.79,0,4.62,2.13,5.62,4.25.89,1.83,1.19,2.08,3,2.27,2.39.2,3,.05,3-.84a1.78,1.78,0,0,1,2.58-1.38c.9.4,1.4.2,2.74-1.13a6.89,6.89,0,0,0,1.64-2.13c0-.25.6-.44,1.3-.39,1.64.1,2.68-1.24,1.89-2.52-.4-.6-1.6-1-4.08-1.29-3.14-.39-3.59-.59-3.59-1.48,0-1.88-.84-2.52-3.33-2.57a17.92,17.92,0,0,1-4.77-.94c-4.08-1.48-3.64-3.35.59-2.91a6,6,0,0,0,2.94-.2c.89-.59.2-2.07-1.1-2.12-1,0-1,0,.1-.45,1.35-.54,1.4-1.72.15-3.75-.79-1.28-1.34-1.58-3.53-1.83a7,7,0,0,1-4.58-2.12c-2-1.78-2.28-1.83-5.22-.94-.9.3-1.29,0-2.34-1.68-1.69-2.62-3.23-3.55-5.57-3.41a22.18,22.18,0,0,1-4-.29c-1.89-.35-2.14-.25-2.88.89a2.41,2.41,0,0,1-3.59.74c-.39-.4-1.14-.25-2.63.54s-2,.84-1.89.4a4.87,4.87,0,0,1,2-1.53A5.56,5.56,0,0,0,394.8,103a8.66,8.66,0,0,0-.95-1.88c-1.29-2.12-4-2.52-7.91-1.23a10.62,10.62,0,0,1-4.08.69,1.27,1.27,0,0,0-1.59.49,3.18,3.18,0,0,1-2.09,1.09,6.77,6.77,0,0,0-3.48,2.47c-1.94,2.32-2.24,3.21-1.1,3.21a1,1,0,0,1,.8,1.73c-.45.54-.85.54-1.79.15-1.89-.89-2-2.52-.35-5.19,1.24-2,1.84-2.42,3.93-3,3.78-1.09,4.68-1.48,4.68-2.27,0-.35-.7-.79-1.55-1A5.81,5.81,0,0,0,375.39,98.46Z"/><path class="cls-1" d="M312,98.9c-.5.45-.2,1.43.64,2.52s1,1,3.73.44c2.09-.49,2.84-.88,2.84-1.53a1.83,1.83,0,0,0-.6-1.23C317.89,98.7,312.31,98.51,312,98.9Z"/><path class="cls-1" d="M334.1,99c-4,.15-7.36.35-7.56.39-.94.15-.25,1,1.15,1.49,2,.69,1.64,1.63-.75,2.22a4,4,0,0,1-3.53-.4c-1.29-.69-1.84-.79-2.69-.29-1.44.74-1.14,1.48,1.2,2.81a6.14,6.14,0,0,1,2.53,2.62c.65,1.43.85,1.58,2.29,1.28.9-.14,3-.44,4.78-.74,4.92-.69,9.05-4.24,6.27-5.33-.75-.3-.75-.4.1-1a4.37,4.37,0,0,1,2.13-.64c1.75,0,2.69-.69,2.44-1.73S342.61,98.56,334.1,99Z"/><path class="cls-1" d="M395,99.49c-.95,1-.8,1.83.54,2.67,1.05.69,1.55.69,3.39.2a17.39,17.39,0,0,1,5.52-.25c3,.3,3.33.25,3.33-.64,0-1.73-1.34-2.17-6.86-2.42C396.94,98.9,395.39,99,395,99.49Z"/><path class="cls-1" d="M302.91,102.51a6.88,6.88,0,0,0-1.74,3.11c-.2,1.78-2.49,3.31-3.43,2.37-.45-.45-.4-.89.25-1.83,1.09-1.73,1-2.52-.45-3.16-1.69-.79-2.49-.74-3.23.15a4.06,4.06,0,0,1-2.74.74c-1.44,0-2.24-.25-2.44-.74-.4-1-2.09-.94-4.62.29s-3.24.94-1.89-.54.54-1.78-2.14-1c-1.3.35-4.68,1.19-7.57,1.78a47.86,47.86,0,0,0-8.05,2.47c-3.14,1.43-3.84,2.72-1.5,2.72,1.3,0,2.59.74,2.59,1.53,0,.2-1.34.44-3,.54-3.28.25-3.73.5-3.28,1.63.3.84.55.84,12.54,0,2.88-.19,3.73,0,4.38.6,1.39,1.33.64,1.92-2.24,1.87-1.5,0-5.77,0-9.55.15-5.58.2-7,.4-7.17,1-.6,1.43,1.35,2.12,5.42,2a14.4,14.4,0,0,1,4.18.25c.2.2-.15.94-.84,1.63-1,1-1,1.33-.45,1.73,1,.64,6.42.25,10.45-.79a58.85,58.85,0,0,1,8-1.19,19.2,19.2,0,0,0,6.36-1.23c1.55-.79,1.75-.79,2.74-.1.6.44,1.54,1.09,2.09,1.48.8.59,1.89.64,6,.2,6.22-.59,6.52-.69,5.72-1.63-1.14-1.33.25-2.22,3.48-2.22,3.93,0,4.23-1,.85-2.52a13.31,13.31,0,0,0-3.53-1.19c-1.6,0-1.69-2.42-.15-3.45,1-.65,1.29-1.34,1.54-3.81.45-3.55-.15-4.34-3.18-4.34A4.12,4.12,0,0,0,302.91,102.51Z"/><path class="cls-1" d="M338.83,107.88a5,5,0,0,0-1.84,1c-.5.4-.9.55-.9.3s-1,.64-2.23,2a17.33,17.33,0,0,1-3.29,3c-1.59.79-1.34,1.43.85,2.27,2.93,1.14,3.33,1.43,2.63,2.27a2.25,2.25,0,0,1-1.64.7c-1.39,0-2.48.74-2.09,1.43a2.21,2.21,0,0,0,1.6.54c.64,0,1.19.2,1.19.49s-.65.5-1.44.5a3,3,0,0,0-2,.74,3.29,3.29,0,0,1-2.14.74,11.14,11.14,0,0,0-3.19.59c-1.24.45-1.54.79-1.39,1.58.35,1.39-.4,2.42-1.54,2.18-1.44-.25-1.44-1.83.1-3.41s1.49-1.58-2.29-2.37c-2.49-.55-3.58-.1-6,2.52-1.34,1.48-1.34,1.48-4.08.84a11.87,11.87,0,0,0-5.62,0c-2.74.54-3,.49-4.78-.69-1.34-.89-2.23-1.19-3.18-.94-1.44.34-3.78-1.44-3.33-2.57s-2.14-1.38-5-.54a42.4,42.4,0,0,1-4.92,1.13c-1.64.2-2.39.54-2.39,1,0,.74,1.89.74,7.46,0,1.64-.2,1,.94-.84,1.28-4.63,1-5.92,1.53-7.22,2.92l-1.39,1.48L276,126.74l-1.89-2.12-2.44.54c-2.59.65-14.87,1-15.37.55a1.52,1.52,0,0,1,0-1.34c.25-.89.7-1,2.93-1,3.34,0,4.38-.89,2.79-2.47-1-.94-1.44-1-3.88-.74a14.8,14.8,0,0,1-5.82-.55c-1.64-.44-3.93-1-5.08-1.23a14.88,14.88,0,0,1-4-1.43,6.74,6.74,0,0,0-7.37.29c-2,1.34-3.23,1.29-3.23-.2a2.39,2.39,0,0,0-.75-1.58c-.64-.54-1-.39-2.44.94-1.14,1.09-2,1.58-2.83,1.43-1-.09-1.19-.49-1.34-2.27-.2-2.47-1.2-2.76-3.44-.89-1.54,1.29-3.78,2.08-7.21,2.57a9.68,9.68,0,0,0-3.93,1.48c-1.34.94-2.24,1.19-4.78,1.19-2.73,0-3.33.2-4.42,1.28-1.6,1.53-3.39,1.44-3.59-.19-.14-.79.1-1.09.75-1.09a11.28,11.28,0,0,0,3.38-1.24,12.66,12.66,0,0,1,5.13-1.23c2.49,0,6.56-1.63,6.56-2.62,0-.49-5.42.15-7.26.89a27.86,27.86,0,0,1-7.91,1.48c-4.33.25-7.31,1.09-8.56,2.47a2.69,2.69,0,0,1-3.08,1,19.55,19.55,0,0,1-4.73-1.78,11.29,11.29,0,0,0-5.32-1.48,5.07,5.07,0,0,1-3.83-1.24c-1.74-1.43-2.39-1.53-4.53-.44-1.44.69-1.79.69-3.93,0-3.68-1.18-13.33-2.42-16.61-2.12-2.54.19-3.09.1-3.88-.74s-1.35-1-3.19-.75-2.43.1-3.48-.69c-2-1.53-4.87-1.77-6.61-.54-1.15.79-2.39,1-6.87,1.19s-5.77.34-7.56,1.38-2.29,1.09-3.33.49c-1.35-.69-2.69-.44-7.86,1.43a16.1,16.1,0,0,1-4.18,1,5.92,5.92,0,0,0-3,1.48,4.79,4.79,0,0,1-3.53,1.49,9.54,9.54,0,0,0-3.73,1,9.52,9.52,0,0,1-4.43,1,8.17,8.17,0,0,0-3.58.74,3.92,3.92,0,0,1-1.89.74c-1.29,0-1.1.94.35,1.48a2.91,2.91,0,0,1,1.79,3.91c-.55.93-.45,1,.94,1,1.74,0,1.89.6.6,2.72-.8,1.28-1.24,1.48-3.13,1.48a11.87,11.87,0,0,0-3,.45c-.65.29-.89.19-.89-.35a1.31,1.31,0,0,1,1-1.09c2-.64.9-1.23-2.34-1.23-2.58,0-3.78.25-5.12,1.09a9.26,9.26,0,0,1-3.73,1.18c-1.74.15-8.41,2.22-9.06,2.87s.55,1.28,2.24,1.33c1.35,0,1.54.15.6.3a7.41,7.41,0,0,0-2.39,1.13c-1,.84-1,.94-.3,1.38,1,.55,12,.15,13.29-.49.74-.39.84-.3.54.94-.49,2.12-.64,2.22-2.73,1.88-1.84-.3-2-.25-2.64,1.23-1,2.57-6.47,4.2-10.4,3.21-1.14-.3-1.89,0-4,1.43a10,10,0,0,1-3.88,1.78,7,7,0,0,0-3.38,1.73A6.08,6.08,0,0,1,41.54,154c-1.74,0-2.29,1-1.49,2.76.44,1,.39,1.29-.35,1.49-2.39.74-2.94,1.68-2.34,4,.35,1.38.84,1.38,5.32.1,1.3-.35,2.54-.5,2.69-.3.45.44-1.74,2.81-2.64,2.81-.35,0-.89.55-1.14,1.24a4.85,4.85,0,0,1-2,2,3.85,3.85,0,0,0-1.49,1c0,.4,6.06-.34,7.06-.84a2.33,2.33,0,0,1,3.48,1.44L48.8,171l1.54-1.63c1.35-1.43,1.64-1.53,3-1.09a4,4,0,0,0,2.83.05c1.1-.44,1.35-.39,1.35.2s-.55.74-1.64.74c-1.3,0-1.8.3-2.24,1.23a2.06,2.06,0,0,1-1.55,1.24A3.11,3.11,0,0,0,50.14,173c-.79,1-1.44,1.24-3,1.24a7.53,7.53,0,0,0-5.72,2.42,3.57,3.57,0,0,1-2.44,1,12.67,12.67,0,0,0-4,1.18,25.41,25.41,0,0,1-8.75,2.72,14,14,0,0,0-3.83.94,5.85,5.85,0,0,1-2.44.59c-1.3,0-6.12,2.81-6.17,3.56s2.09,1,3.38.49a25.71,25.71,0,0,1,2.79-.84,9.62,9.62,0,0,0,2.68-1.14,8.16,8.16,0,0,1,3.83-.89c3.34-.09,5.78-.64,6.82-1.53a2.46,2.46,0,0,1,2.34-.39c1.24.25,1.79,0,3.38-1.38s2.34-1.78,5.37-2.08c4-.44,6-1.28,6.47-2.72a1.37,1.37,0,0,1,1.14-1,4.11,4.11,0,0,0,2-.79,6.77,6.77,0,0,1,3-.84,4.86,4.86,0,0,0,2.64-.69,9.45,9.45,0,0,1,3.38-1.09,7.09,7.09,0,0,0,4-1.73,7.32,7.32,0,0,1,3.18-1.63c1.55-.25,1.79-.44,1.94-1.83.15-1.68.55-1.87,5.53-2.81A9.56,9.56,0,0,0,82,161.91c2.14-1.83,4.48-3,6.07-3A6,6,0,0,0,91,157.71c1.89-1.43,5.07-1.92,5.07-.79,0,.5-.7.84-2.29,1a13.51,13.51,0,0,0-4.72,1.83,15.23,15.23,0,0,1-3.88,1.82,8.76,8.76,0,0,0-3.09,1.78,11.29,11.29,0,0,1-2.24,1.58c-.34.1-.49.55-.3,1,.45,1.24,2.89,1,5.63-.39a10.29,10.29,0,0,1,4.62-1.24c1.69,0,2.54-.25,3.19-1s1.49-1,3.43-1c4.48-.1,5.12-.45,5.12-2.67,0-1.68.15-2,1.2-2.13a5.23,5.23,0,0,1,4.82,1.83c1.5,1.53,5.18,3.16,6.92,3.11.55,0,1.79-.19,2.73-.34,2-.35,7.91,1.53,9.61,3.06a6.33,6.33,0,0,0,1.94,1.28,2.64,2.64,0,0,1,1.14,1.73c.2,1.09.8,1.68,2.29,2.32,2.19,1,2.19,1.39-.1,1.34-1.34-.05-1.49.1-1.2,1,.5,1.58.45,2.32-.44,4.74a5.78,5.78,0,0,0-.6,2.86c.45,1,2.74-.34,4.53-2.76,1-1.34,1.89-2,2.63-2s1.35-.49,1.89-1.78c.7-1.63.7-1.87-.1-2.71s-.79-.94.3-.94,1.1.15.8,2.22c-.25,1.63-.15,2.52.4,3.31a5.9,5.9,0,0,1-.7,7c-1.29,1.49-1.34,1.73-.7,2.37a7.41,7.41,0,0,1,1,3.21c.3,2.33.2,2.57-1.1,3.56-3,2.22-3.18,2.57-2.18,4.05.44.64.64.54,1.54-.44,1.44-1.78,2.34-.65,1.14,1.38l-.94,1.58,1.64,1.23c1.84,1.49,2.09,2.67.5,2.67-.85,0-1.4.54-2,2-1.2,2.52-.85,3.4,1.34,3.4,1.24,0,1.79.25,2,.94s1.19,1.29,2.24,1.73c1.79.69,2,.94,2,2.52a2.47,2.47,0,0,0,1.19,2.47,3.66,3.66,0,0,1,1.44,2.86c.25,1.78.1,2.28-1,3.41s-1.39,1.29-2.34.64c-1.19-.83-3.08-1-3.53-.24a1.49,1.49,0,0,1-2.49-.5,1.43,1.43,0,0,0-1.29-1c-.75,0-1,.39-1.05,2.07-.1,2.82-.1,2.91.35,4.45.3,1.13.1,1.58-1.19,2.76a5.29,5.29,0,0,0-1.74,3,8,8,0,0,1-2.24,3.81,11,11,0,0,0-2,2.67c0,.64-3.78,5.23-6.07,7.3-2,1.93-2.59,2.92-3.88,7.07-1,3.06-1.94,5.09-2.89,6.12-1.39,1.43-1.49,1.83-1.69,6.57-.2,4-.1,5.19.5,5.73.8.79.94,4,.35,6.67-.3,1.43-.25,1.68.69,1.92,1.6.4,1.3,2.92-.29,2.77-.7-.1-1.15.15-1.15.54,0,1.34,2,5.24,3,5.73.74.45.94,1,.84,2.62l-.15,2.08,2.09-.15c1.69-.15,2.09,0,2.39.79a2.14,2.14,0,0,0,1.39,1.28,9.24,9.24,0,0,1,3,2.52c1.79,2.12,1.94,2.47,2.09,6.08a36.32,36.32,0,0,0,.94,6.66,22.71,22.71,0,0,1,.8,5,4.7,4.7,0,0,0,1.49,3.85,5.91,5.91,0,0,1,1.49,2.42,2.91,2.91,0,0,0,1,1.63c1.34,1.19,1.24,2-.3,3.51a2.67,2.67,0,0,1-2.94,1c-2.18-.45-2.78.54-1.14,1.92a6.34,6.34,0,0,1,1.54,1.88c.35.94,3.53,2.42,4.48,2,.35-.1,1.59.64,2.79,1.72,2.13,2,2.13,2,1.84,4.6-.4,3.46.44,5.68,3.13,8.25,1.79,1.72,2.09,2.27,1.89,3.4-.55,2.62,1.29,3.31,3.83,1.44,1-.69,1-.89.3-2.87-.85-2.62-1.74-3.8-3.18-4-1.1-.15-1.3-.94-2.09-8.74a12.36,12.36,0,0,0-1.25-4.2,6.74,6.74,0,0,1-.94-2.32,2.24,2.24,0,0,0-.75-1.43,4.3,4.3,0,0,1-.74-2.92,7.77,7.77,0,0,0-1.05-3.95c-.8-1.33-.89-1.78-.35-2.12s.45-.59-.35-1.14c-2.88-2.17-2.83-2-2.53-6.07.15-2.08.3-4.45.3-5.24l.05-1.43,1.14,1.09c.85.79,1.54,1,2.24.79s1.14-.05,1.34.44a1.39,1.39,0,0,0,1.25.79c.84,0,.94.4.94,3.26a23.45,23.45,0,0,0,1.44,7.56,48.54,48.54,0,0,1,1.64,5.48c.1.94.55,1.28,2,1.63,1.7.39,1.84.59,1.84,2.17,0,1.34.4,2.13,1.8,3.51,1.74,1.73,1.79,1.83,1,3.11a5.4,5.4,0,0,0-.8,2.27c0,.5,2.29,3.21,5.18,6s5.32,5.73,5.52,6.37a12.4,12.4,0,0,0,1.84,3.36c1.15,1.58,1.44,2.47,1.24,3.51a5.21,5.21,0,0,0,.8,3.26l1.1,1.92-1.25.89c-1.19.89-1.19,1-.35,1.58s.8.74-.39,2.37c-1.6,2.13-1.6,2.72.19,4.5a7.16,7.16,0,0,1,1.8,2.42,1.47,1.47,0,0,0,1.29,1c.7,0,1.24.6,1.74,1.78.6,1.39.95,1.73,1.74,1.53a4.38,4.38,0,0,1,2.59.65,14.46,14.46,0,0,0,3.73,1.23,5.79,5.79,0,0,1,3,1.33c1.65,1.88,6,4.84,7.22,4.84a7,7,0,0,1,3.08,1.29c4.63,3.11,10.55,4.89,13.58,4a7.62,7.62,0,0,0,3.19-1.93,3.83,3.83,0,0,1,3.23-1.43c1.94,0,4.13,1.09,4.13,2s3.18,5.24,6.27,8.2,3.33,3.12,5.47,3.12a8.14,8.14,0,0,1,4,1,24.21,24.21,0,0,0,4.73,2c3,.89,3.13.89,4.77-.05,2.09-1.29,2.24-1.24,2,.25-.2,1,.35,1.92,2.74,4.59,4.13,4.64,4.38,5.14,4.47,8.35.05,2.37.25,3,1.35,4a4.42,4.42,0,0,0,2.19,1.13c.74,0,.84-.24.59-1.28-.44-1.78.55-1,1.45,1.09a4.44,4.44,0,0,0,1.94,2.17c1,.39,1.24.84,1.39,2.81l.15,2.37,3.58-.14c4-.15,5.42.34,6.12,2.17a1.67,1.67,0,0,0,1.49,1.19,1.7,1.7,0,0,1,1.49,1.23c.55,1.48,1.94,1.58,3.54.3l1.19-.94-1.09-1.19c-1.4-1.48-1.45-1.87-.2-1.87a1.54,1.54,0,0,0,1.29-.94c.45-1.53,2.24-3.51,3.13-3.51A11,11,0,0,1,286,430.2c2.24,1.48,3,2.87,1.89,3.56-.75.44-.6,1.53.3,2.42.69.74.89.74,2.19-.05a5,5,0,0,0,2.48-3.71c0-1.13-4.13-5.92-5.67-6.57a21,21,0,0,0-3.83-1c-2.14-.3-2.44-.2-3.88,1.18a5.27,5.27,0,0,1-2.78,1.53,9.12,9.12,0,0,0-2.94.84c-2.29,1-4.28.35-4.28-1.58a2.53,2.53,0,0,0-1.19-2,3.09,3.09,0,0,1-1.39-1.58,1.18,1.18,0,0,0-1.1-.84c-.75,0-1.09-.74-1.89-3.61l-.94-3.65,1.24-3.51a12.78,12.78,0,0,0,.94-5.93c-.24-1.92-.1-2.66.7-3.75a8.55,8.55,0,0,0,1.34-3.31c.4-2.22-.39-3.26-2.78-3.85-.95-.2-1.4-.64-1.4-1.29,0-1.43-2.63-2.32-6.21-2.12-2.84.2-5.33.2-9.56.1a31.85,31.85,0,0,0-3.68.29c-2.78.5-2.93-.54-.49-2.76,1.64-1.53,2-2.22,2-3.66a8.3,8.3,0,0,1,.79-3.31,3.89,3.89,0,0,0,.55-2.37,3,3,0,0,1,.25-1.72c.4-.7.59-.75.94-.2.2.34.55.54.7.34.5-.49,1.19-3.85,1.24-5.68,0-1.08.3-1.77,1.05-2.12a6,6,0,0,0,1.74-2.22,4.89,4.89,0,0,1,1.74-2.23c.8-.44.95-.84.7-1.87-.5-2-1.25-2.62-2.44-2.27a7.58,7.58,0,0,1-2.39.29,12.06,12.06,0,0,0-3.88.89,14.52,14.52,0,0,1-4,1c-3.28,0-5,2-5,6,0,.88-.3,1.38-1,1.58a1.91,1.91,0,0,0-1.29,1.18c-.7,2.08-1.35,3-2,2.77-1.15-.45-2.24.79-1.89,2.12.25.94.1,1.19-.7,1.19a2.43,2.43,0,0,1-1.69-1.09c-.75-1.09-.75-1.09-3.08-.2a40.81,40.81,0,0,1-5.43,1.53c-3,.65-3.08.65-4.42-.59a6.67,6.67,0,0,0-3.24-1.58c-1.84-.3-1.89-.4-2.29-2.77-.25-1.38-.54-3-.64-3.55a5.32,5.32,0,0,0-1.35-2.22c-.79-.75-1.54-2.67-2.29-5.59l-1.09-4.44,1-3.21c.49-1.78,1.09-4.2,1.29-5.43.45-2.62,1.24-4.35,3.53-7.46a6.69,6.69,0,0,0,1.69-4.84,11.53,11.53,0,0,0-.74-4.05c-.75-1.43-.75-1.48,1-3.06a21.57,21.57,0,0,1,3-2.23A4,4,0,0,0,217.2,326c.4-1,.79-1.19,2.38-1.19a4,4,0,0,0,3.39-1.53,9.44,9.44,0,0,1,2.63-2c.65-.24,1.05-.64.85-.79-.3-.34,4.78-2.12,6.07-2.12a5.52,5.52,0,0,1,2.09,1.09c1.44,1,1.49,1,3.18.14,1.45-.79,1.84-.84,2.49-.29a2.79,2.79,0,0,1,.8,1.87c0,1.14.15,1.24,1.89.94,4.62-.74,5.57-.69,6.12.25a2,2,0,0,0,1.74.94c1.19,0,1.29-.15,1-1.58-.2-.89-.4-2-.45-2.52a2.91,2.91,0,0,0-1.14-1.53c-1.49-1.09-.25-1.88,3.63-2.37,2.79-.3,3.48-.25,3.93.34s.95.65,3,.2c2.83-.64,7-.05,6.76,1-.25,1.23,1,2,3.14,2a3.71,3.71,0,0,0,2.73-.79c1-1.18,3.09-.64,4,1a9.08,9.08,0,0,0,1.64,2.22c.7.6,1,1.63,1.05,5.09.05,2.37-.05,4.45-.3,4.59-.7.45-.45,1.88.6,3.16a4.54,4.54,0,0,1,1,2,6.89,6.89,0,0,0,1.25,2.62,7,7,0,0,1,1.24,3c0,1.33.5,1.58,2.78,1.33,1.15-.14,1.7-.44,1.7-1a13.23,13.23,0,0,1,.79-3c1.35-3.8,1.4-10.86.15-16.54-1.54-7.11-1.39-9.24.9-12.6,2.19-3.16,5.42-6.42,6.36-6.42a5.18,5.18,0,0,0,2.14-1.23,5.22,5.22,0,0,1,2.54-1.24c.7,0,1-.29,1-.94,0-1.43,2.68-4,4.12-4a7.27,7.27,0,0,0,3.54-1.92,14.72,14.72,0,0,1,3.23-2.27,4.29,4.29,0,0,0,1.84-2.28c.75-1.68,1.1-1.92,2.49-1.92,1.69,0,2.93-1,2.54-2.18a6.42,6.42,0,0,1,.24-2.71c.35-1.39.35-2.22,0-2.67s-.34-1.38-.1-2.81a32.82,32.82,0,0,0,.5-4.1c0-2.52,1.69-5.78,3-5.78s1.24.29-.25,2.66a4.53,4.53,0,0,0-.9,3.36,3.86,3.86,0,0,1-.54,2.62c-.8,1.24-1.1,3.9-.4,3.61.2-.1,1.79-1.68,3.53-3.51,3.28-3.56,3.48-4.3,2.29-7.41-.35-.79-.2-.89,1.34-.59s2,.1,3.53-1.19a13.38,13.38,0,0,0,2.69-3.75l.9-2.22h2.58c2.19,0,2.79-.2,3.88-1.34a5.6,5.6,0,0,0,1.25-1.68,6.51,6.51,0,0,1,2-1.38c1.84-1,2.23-1.09,5.12-.59,4.13.74,4,.74,4.68-.74a2.16,2.16,0,0,0,.05-2.23c-.5-.93-.6-.93-1.4-.24-.64.59-1,.64-1.44.2-.85-.84-.75-2.23.15-2.57a1.37,1.37,0,0,0,.75-1.24c0-.54,1-2,2.38-3.21,1.79-1.73,2.74-2.27,3.93-2.27,2.19,0,4.13-.79,4.13-1.73,0-.54.55-.74,1.89-.74a6,6,0,0,0,2.89-.74,10.16,10.16,0,0,1,2.73-1.24c1.05-.29,2-.88,2.09-1.43s.7-.89,1.7-.94a16.7,16.7,0,0,0,4.12-1c3.24-1.24,3-1.19,3-.35s-2.84,2.57-4.73,3.06c-.69.15-1.24.55-1.24.79a3.94,3.94,0,0,1-1.24,1.68c-1.1,1-1.15,1.29-.7,2.62,1,2.77,3.88,2.37,7.76-1a9.32,9.32,0,0,1,3.48-1.73A13.88,13.88,0,0,0,389,239.9a11.7,11.7,0,0,1,3.68-1.19c2.68-.39,6.07-2.07,6.07-3,0-1.24-1.25-1.73-5.23-2.07-3.78-.35-6.71-1.59-7.81-3.31-.69-1.09-.45-4.79.35-5.09a1.5,1.5,0,0,0,.2-2.42c-.25-.2-1.14-.05-2,.25-1.14.49-1.59.49-2.19,0-1.24-1-.05-1.68,2.94-1.54,2.38.1,2.93-.09,4.37-1.38s1.6-1.58,1.15-2.81c-.8-2.18-2.19-2.62-5.92-1.83-6.07,1.23-8.76,2.07-10.35,3.26-2.54,1.88-6.81,3.55-7.46,2.91-.4-.39.2-.89,2.14-1.82a32.74,32.74,0,0,0,4.38-2.47,6.09,6.09,0,0,1,3.38-1.24c1.34,0,2.19-.49,4.53-2.76l2.83-2.77,14,.25c13.43.19,14.08.19,14.92-.74a29.87,29.87,0,0,1,3.93-3.12,12.67,12.67,0,0,1,6-2.66c3.29-.55,8.36-3.07,9.36-4.65a6.91,6.91,0,0,0,.54-6.27,2.22,2.22,0,0,0-2.43-1.48c-1.45,0-1.7-.2-1.94-1.33a3.35,3.35,0,0,1,.34-2.23c.45-.79.35-1.08-.39-1.68a4.72,4.72,0,0,0-2.34-.69c-.95,0-1.49-.29-1.69-1s-.75-1-2.24-1c-1.74,0-1.94-.15-2.09-1.34a2.31,2.31,0,0,0-1.64-2c-2.69-1.19-3-1.43-3.14-2.72-.15-1.08,0-1.28,1.25-1.43s1.39-.25,1.19-2.62a8.77,8.77,0,0,0-.85-3.46,3.85,3.85,0,0,1-.69-2,9.16,9.16,0,0,0-1-3,10,10,0,0,1-1-3.71c0-1.73-.7-3-1.69-3-.65,0-4.78,4.44-4.78,5.18s-3.48,3.21-4.63,3.21a8.72,8.72,0,0,0-2.78,1c-2.14,1.09-3,.89-4.68-.94a2.05,2.05,0,0,0-1.89-.74c-.84.25-.94,0-.94-2a9,9,0,0,1,3.28-6.52,1.51,1.51,0,0,0,.6-1.53c-.15-.79-.65-.94-3.29-1.09-2.43-.1-3.13-.3-2.88-.84s-.4-1.09-1.34-1.68a33.88,33.88,0,0,1-2.94-2.07c-1.29-1-1.54-1.09-4.13-.5a30.39,30.39,0,0,1-8.16.3c-5.12-.35-5.47-.3-6,.64a6.83,6.83,0,0,0-.54,2.67,7.24,7.24,0,0,1-1.25,3.45,7.12,7.12,0,0,0-1.24,3.26c0,1.44-2,3.26-6.32,5.78-1.94,1.14-2.09,2.87-.3,3.12,2.59.39,3.53,4.74,1.59,7.21a3.3,3.3,0,0,0-.79,2.51c.15,1,0,1.24-.85,1.24-1.14,0-2.73.94-4.77,2.77-1.25,1.13-3.74,2.17-8,3.35s-4.48,1.49-4.48,4.55a13.69,13.69,0,0,1-.8,4.54,17.47,17.47,0,0,0-.94,3.16,13.31,13.31,0,0,1-3.43,5.44,1.47,1.47,0,0,1-1.1.05,1.5,1.5,0,0,0-1.44.54c-1,.94-2.44,1-3.09.15a32,32,0,0,1-2.48-6.13c-.45-1.33-.25-2.22,1.44-6.42a39.87,39.87,0,0,1,2.49-5.43c1.24-1.48.1-2-5.13-2a28.94,28.94,0,0,1-5.37-.39,3.34,3.34,0,0,1-.3-1.58c0-1.34-.05-1.34-3.08-1.19s-3.14.15-3.68-1.23c-1.05-2.67-1.3-2.87-3.88-3.26-1.7-.3-2.69-.74-3-1.38-.65-1.14-4.23-1.34-5.77-.25-1.14.79-2.89,1.18-3.08.64a3.54,3.54,0,0,1,.69-1.58,3.21,3.21,0,0,0,.5-2.47,3.51,3.51,0,0,1,.2-2.27c.89-1.68.15-2.87-2-3.21-2.49-.4-2.59-1.78-.15-3.06a3.17,3.17,0,0,0,1.34-2c.3-1.43,2.19-3.06,5.77-4.94a15.08,15.08,0,0,0,2.54-1.78,8.2,8.2,0,0,1,2.14-1.38c.45-.2.85-.59.85-.94s1.69-1.28,3.73-2.07c3.48-1.34,3.73-1.48,3.73-2.87s.15-1.48,1.24-1.18c.7.15,1.79.44,2.49.59,2.34.59,3.68-1.68,1.64-2.67-1-.44-.85-.54,1.34-.59,1.4,0,3-.05,3.73-.05a2.66,2.66,0,0,0,1.8-.84c.39-.59,1.39-.84,3-.89a24.72,24.72,0,0,0,3.88-.44c2.09-.55,7.56-4.5,7.86-5.68a1.32,1.32,0,0,1,1.24-1,1.7,1.7,0,0,0,1.3-.44,4.1,4.1,0,0,1,2.09-.75c1.54-.29,1.74-.49,1.59-1.67s0-1.34,1.89-1.49a3.7,3.7,0,0,1,2.84.6,3.63,3.63,0,0,0,2.28.79c1.2,0,1.55-.2,1.55-.94,0-1.43.79-1.68,2.43-.74,1.3.74,1.69.79,3.78.2a23.24,23.24,0,0,0,7.22-4.3c.15-.15-.15-.5-.65-.84-1.94-1.43-.35-5.09,1.64-3.85a1.65,1.65,0,0,0,2.64-.79c.15-.45.4-1.24.6-1.73s.1-.84-.85-.84a3.29,3.29,0,0,1-2.09-.94c-1-1.09-4.68-1.58-7.11-.94-1.3.35-1.74.79-2.19,2.42-.6,1.88-1.79,2.72-3.33,2.32-.35-.1-.9.4-1.25,1s-1.59,1.58-3.33,2.22a29.53,29.53,0,0,0-4,1.88c-1.64,1.18-3.33,1.13-4-.15-.95-1.73-.4-3,1.49-3.65,1.44-.5,1.74-.84,1.74-2s-.2-1.43-1.84-1.58c-1.29-.1-2,.1-2.49.74-.84,1.19-3.38,2.77-3.78,2.42-.49-.54,1.35-3.75,2.19-3.75.45,0,.7-.35.6-.89-.2-.89-1.89-1.09-3.48-.35-.7.25-.9.1-.9-.69s.4-1.13,1.39-1.33c1.4-.3,1.45-.4,1.45-3.21s0-3-1.4-3.66A7.5,7.5,0,0,0,338.83,107.88Z"/><path class="cls-1" d="M471.51,114.11c-1.4.25-1.79,1.19-1.4,2.87.35,1.28.35,1.28,4.53,1,4.73-.25,5.42-.5,4.78-1.63C478.67,115,473.9,113.62,471.51,114.11Z"/><path class="cls-1" d="M320,117.22a5.66,5.66,0,0,1-3.14,1.49c-1.69,0-3.08.74-2.54,1.33a5.56,5.56,0,0,0,2.24.44c1,0,3.34.25,5.13.45,4,.44,5.57-.15,5.32-2.12-.1-.94-.5-1.39-1.24-1.49a3,3,0,0,1-1.65-.89C323.21,115.35,321.87,115.6,320,117.22Z"/><path class="cls-1" d="M387.58,117.72a5.93,5.93,0,0,1-2.24,1c-2.43.64-2.73,2-.49,2,1.49,0,4-1.83,4-3C388.83,117.08,388,117.08,387.58,117.72Z"/><path class="cls-1" d="M390.52,123.3c-2,1.14-4.23,3.31-3.93,3.8.15.25,1.64.5,3.28.5,2.64,0,3.14-.15,4.78-1.63,2.34-2.18,2-3.31-.95-3.31A8.5,8.5,0,0,0,390.52,123.3Z"/><path class="cls-1" d="M397.08,124.09c-.19.3.15,1,.7,1.53.85.84,1.2.89,2,.5,1.49-.84,1-2.18-.89-2.38C398.08,123.65,397.23,123.79,397.08,124.09Z"/><path class="cls-1" d="M350.57,135.8a16.11,16.11,0,0,0-3.38,2.61,2.2,2.2,0,0,1-1.35,1c-.34,0-.89.54-1.19,1.24-.45,1-.94,1.23-2.29,1.23-1.74,0-3.28,1-3.28,2.17,0,.4.8.6,2.39.6,2-.05,2.34.09,2.48,1,.2,1.44.5,1.44,4-.34a17.63,17.63,0,0,1,3.49-1.48,3.14,3.14,0,0,0,1.49-1c.89-1,.94-1,2.09.25a7.57,7.57,0,0,0,6.27,1.92c.84-.2,1.44-.1,1.74.35.54.94,1.34.1,1.74-1.88.3-1.53.25-1.58-1.59-1.73-1.5-.1-2-.39-2.09-1.13-.3-1.49-1.59-2.77-3.93-3.76-1.54-.64-2.14-1.18-2.14-1.92C355,133.62,353.75,133.82,350.57,135.8Z"/><path class="cls-1" d="M374.9,143.7c0,.79,1.14,2.17,1.74,2.17,1.09,0,.89-1.38-.2-2S374.9,143.25,374.9,143.7Z"/><path class="cls-1" d="M370.52,145.48a1.52,1.52,0,0,0,1,1.28,1.07,1.07,0,0,0,.8-1.93C371.12,144,370.32,144.34,370.52,145.48Z"/><path class="cls-1" d="M348.68,148.64c-2.14,1.28-2.74,2.37-1.49,2.76,2.24.79,8.31-1.48,8.31-3.06S351.42,147,348.68,148.64Z"/><path class="cls-1" d="M359.82,151.06c-.94.69-1,2.76-.1,3.06.7.2,3.24-2.22,3.24-3.06S361,150.12,359.82,151.06Z"/><path class="cls-1" d="M414.05,153.13a1.93,1.93,0,0,0-.35,1.24c0,1.38,1.69.94,1.89-.5C415.74,152.84,414.8,152.34,414.05,153.13Z"/><path class="cls-1" d="M28.75,160.05c-2,.24-2.44,1.18-1.24,2.56s1.54,1.29,3.63-.44c1.44-1.23,1.59-1.53,1-2a2.34,2.34,0,0,0-1.25-.39C30.64,159.85,29.65,160,28.75,160.05Z"/><path class="cls-1" d="M71.19,169.28a5.77,5.77,0,0,1-1.5.74c-.24,0-.49.35-.49.65s.69.59,2.19.54c2.63-.15,3.38-.69,2.28-1.83C72.68,168.39,72.43,168.39,71.19,169.28Z"/><path class="cls-1" d="M64.47,173c-.84.84-.89,1.18-.5,2,.55.94.65,1,1.84.15A13.75,13.75,0,0,1,68.4,174c2.09-.54,1.59-1.72-.79-1.87C66,172.05,65.27,172.25,64.47,173Z"/><path class="cls-1" d="M136.31,177.19c-1.55.69-2.44,2-1.89,2.81.15.25.64.25,1.19-.05a7.68,7.68,0,0,1,2.74-.49c1.94,0,2.73-1,1.74-2.23C139.34,176.35,138.35,176.35,136.31,177.19Z"/><path class="cls-1" d="M346,179.56c-1.14,1.87-.84,2.56.9,2.12,2.54-.64,3.63-3.7,1.34-3.7C347.39,178,346.74,178.47,346,179.56Z"/><path class="cls-1" d="M134.76,181.28a1.15,1.15,0,0,0-.64,1,3,3,0,0,1-.85,1.68c-.74.84-.74.94,0,1.78a3.29,3.29,0,0,1,.85,2c0,1.58,1.09,1.09,2.09-1,1.79-3.66,2-4.35,1.74-5.09S136.06,180.74,134.76,181.28Z"/><path class="cls-1" d="M7,186.87a10.07,10.07,0,0,1-2.58,1c-.85,0-.85,1.93.05,2.28a4.08,4.08,0,0,0,2.33-.75,12.15,12.15,0,0,1,3.59-1.28c1.39-.3,1.84-.54,1.64-1.09a5.89,5.89,0,0,1-.3-.93C11.74,185.48,8.7,186,7,186.87Z"/><path class="cls-1" d="M131.63,187.36a.53.53,0,0,0,.5.49.49.49,0,0,0,.5-.49.46.46,0,0,0-.5-.49A.49.49,0,0,0,131.63,187.36Z"/><path class="cls-1" d="M126.66,192.2c-1.2,1-1.25,1-.3,2a2.42,2.42,0,0,0,4.08-.19,2.5,2.5,0,0,1,2.09-1.24c2.19,0,.54-1-2.19-1.28C128.35,191.26,127.65,191.41,126.66,192.2Z"/><path class="cls-1" d="M329.53,195.31a1.83,1.83,0,0,0-.9,1.43c0,.79.35,1,1.64,1,1.94,0,3.83-1.18,3.09-1.92A3.86,3.86,0,0,0,329.53,195.31Z"/><path class="cls-1" d="M126.81,196.1c-1.35.25-1.4.69-.2,3.56.54,1.28,1,2,1.24,1.63s.25-.59.1-.59,0-1,.4-2.18c.64-2,.59-2.86-.15-2.71C128.05,195.85,127.4,196,126.81,196.1Z"/><path class="cls-1" d="M427.68,204.3c-2.09.64-7.06,5.19-9.75,8.89a11.65,11.65,0,0,1-3.83,3.61c-1.25.54-1.89,1.18-1.89,1.77,0,1.54-.95,2.87-2,2.87a1.69,1.69,0,0,0-1.3,2.72c.5.69,1,.79,2.09.49a13.83,13.83,0,0,1,3.34-.3c4.92.15,6.71.15,8.16-.19a5.73,5.73,0,0,1,2.43,0c.75.29.75.39-.05,1.28a3,3,0,0,1-1.84,1c-1.24,0-1.14.84.3,1.73s2.84.44,4.08-1.73c.9-1.43,3.43-2.92,4-2.27.2.14-.2,1-.8,1.82-1,1.34-1,1.63-.44,2.23,1.74,1.72,4.87,1.68,4.87-.1a2.24,2.24,0,0,1,.8-1.24c1.19-1,2.34-3.45,1.84-3.95-.3-.29-1.15-.25-2.09.1-2.09.74-2.39.35-1-1.48,1.05-1.38,1.05-1.58.3-2.37s-.69-1-.05-1.83c.95-1.33.9-2.42-.3-3.8-.79-.94-1-1-1.44-.5a.84.84,0,0,1-1,.35c-.3-.2-.9,0-1.35.44-1.19,1.14-2.38.7-2.68-1-.25-1.29-.5-1.49-1.64-1.34-.75,0-1.35-.1-1.35-.39,0-.6,3-3.51,4.88-4.79,1.34-.89,1.49-2.62.25-2.57A16.07,16.07,0,0,0,427.68,204.3Z"/><path class="cls-1" d="M131.83,208.75a7,7,0,0,0,1.79,2.91,4.19,4.19,0,0,1,1.49,2.12c0,.4.55,1,1.15,1.19a3.86,3.86,0,0,1,1.79,1.93c.45,1,1.34,1.72,3.33,2.51,3.33,1.39,4.18,1.14,4.18-1.23,0-1.33-.25-1.83-1-2a1.32,1.32,0,0,1-1-1.43c0-2.37-.94-3.7-3.33-4.74A16.19,16.19,0,0,1,137,208.2a6.59,6.59,0,0,0-3.18-.94l-2.24-.09Z"/><path class="cls-1" d="M392.31,212.6a1.41,1.41,0,0,0,.89,1.28,7.44,7.44,0,0,1,1.94,1.48c1,1,1.55,1.19,4,1s2.94-.34,3-1-.3-1.08-1.24-1.43c-.75-.3-2-.89-2.89-1.23a16.43,16.43,0,0,0-3.58-.89C392.61,211.71,392.31,211.76,392.31,212.6Z"/><path class="cls-1" d="M398.88,224c-.7.69-.8,1.87-.1,1.87.44,0,1.49-1.53,1.49-2.17S399.52,223.37,398.88,224Z"/><path class="cls-1" d="M387.33,227.61a2.3,2.3,0,0,0,1.4,3.51,10.17,10.17,0,0,1,2.34,1,2.33,2.33,0,0,0,3.48-.3,3.08,3.08,0,0,1,1.59-1c.4,0,.65-.29.5-.64s-1.15-.59-2.64-.59c-3-.05-5.27-.94-4.87-2S388.18,226.63,387.33,227.61Z"/><path class="cls-1" d="M401.26,228.21a6.48,6.48,0,0,0-2.09,2.17c-.19.49-.59.94-.89.94-.9,0-.55,1.38.6,2.17a5.43,5.43,0,0,0,4.57.49c.85-.34,1.1-2.66.3-2.66-.25,0-.5-.35-.5-.74s.2-.74.45-.74c.55,0,.95-1.49.7-2.38S403.25,226.77,401.26,228.21Z"/><path class="cls-1" d="M301,336.52c-.05,2.07.15,3,.55,3,.89,0,1.69-1.13,2-3,.3-1.28.15-1.78-.55-2.32C301.37,333.06,301,333.46,301,336.52Z"/><path class="cls-1" d="M304.45,341.71c-.84.64-.84.69-.05.74.5,0,.85.39.85,1s.25.94.85.84c.94-.19,1.29-1.82.54-2.71S305.65,340.82,304.45,341.71Z"/><path class="cls-1" d="M301.57,342.79c-.55.55-.3,1.14.45,1.14.39,0,.74-.2.74-.45C302.76,342.84,302,342.4,301.57,342.79Z"/><path class="cls-1" d="M296.15,344.27c-.65.65-.35,2.52.49,2.82,1.15.44,2.19-.69,1.84-2.08A1.44,1.44,0,0,0,296.15,344.27Z"/><path class="cls-1" d="M296.89,348.47c.3.89,1.4,1,1.4.2a.78.78,0,0,0-.8-.79C297,347.88,296.79,348.13,296.89,348.47Z"/><path class="cls-1" d="M309.23,352.52c0,1.88.8,2.82,1.29,1.58.4-1-.15-3.26-.79-3.26C309.43,350.84,309.23,351.58,309.23,352.52Z"/><path class="cls-1" d="M273,353.61a16.32,16.32,0,0,0-5.07,1.68c-1.59,1.13-3.73,4.89-3.13,5.48s3.13-.15,3.13-1.09c0-.74.35-.93,1.94-.93s2.09-.25,2.74-1.24c.84-1.28,3.33-2.17,5.12-1.83,1.29.25,1.54,1.09.4,1.09s-.95,1.28.15,1.73a25.37,25.37,0,0,0,4.52.59c3.14.25,3.54.4,2.79.94-1.34,1-.4,1.68,2.29,1.68,3.18,0,4.43.64,4.43,2.37s.44,2.27,1.64,2.72a3.17,3.17,0,0,1,1.34,1.53c.6,1.68,1.44,1.82,8.76,1.68s8.4-.7,6.07-2.87a4.38,4.38,0,0,0-2.79-1c-1.24,0-1.74-.24-1.94-1-.15-.55-.55-1-.9-1a2,2,0,0,1-1.24-.69A1.19,1.19,0,0,0,302,363c-.85.35-2.79-.69-6.87-3.5-2-1.39-3.78-2.23-4.67-2.23-1.65,0-2.69-.79-2.29-1.73a1.21,1.21,0,0,0-.7-1.18c-.85-.4-2.34-.64-9.1-1.24A27.9,27.9,0,0,0,273,353.61Z"/><path class="cls-1" d="M313.51,356.52c.2.74.1,1.24-.25,1.24a.51.51,0,0,0-.55.49c0,.79,2.34.54,2.69-.3.4-1,.4-1-.5-1.87C313.76,354.94,313.16,355.14,313.51,356.52Z"/><path class="cls-1" d="M270.73,360.52c-1.25,1.19-.15,2.28,2.13,2.08,1.55-.15,1.8-.35,1.8-1.39s-.25-1.28-1.55-1.38A2.89,2.89,0,0,0,270.73,360.52Z"/><path class="cls-1" d="M317.09,370.5c-2.34.15-4.23,1.33-2.84,1.78.4.1,1.4.44,2.19.69,1.15.35,1.45.69,1.35,1.53a2.59,2.59,0,0,0,.44,1.83c1.15,1.43-.19,1.87-3.43,1.23-3.78-.84-5.27-.59-5.47.79-.15.89.15,1.14,1.49,1.34.9.1,2.09.24,2.64.24,3.78.05,8.21.74,8.21,1.29s1,1.23,2.29,1.23c.34,0,1-.79,1.39-1.73.79-1.77,1.64-2.12,3.38-1.18.8.44,1.2.34,1.94-.5l1-1,1.94,1c2.58,1.33,2.78,1.28,3.78-.75s.35-3.21-2-3.21a3.5,3.5,0,0,1-2.54-1,13.68,13.68,0,0,0-3.53-2.23C326.69,370.55,322.76,370.15,317.09,370.5Z"/><path class="cls-1" d="M343.06,377.71c-2.29,2.27,2.93,4.35,6.62,2.62,2.38-1.09,1.54-1.83-3-2.57C344.6,377.41,343.41,377.37,343.06,377.71Z"/><path class="cls-1" d="M291.82,378.9a3.79,3.79,0,0,0,1.24,2.07c1.1,1,1.45,1.09,2.94.64a6.87,6.87,0,0,1,2.88-.29c1.5.29,2.74-.94,1.79-1.68-.64-.45-6.36-1.63-8.06-1.63A.84.84,0,0,0,291.82,378.9Z"/></svg>