<svg id="Layer_1" data-name="Layer 1" xmlns="http://www.w3.org/2000/svg" viewBox="0 0 500 500"><defs><style>.cls-1{fill:#d9d9d9;}</style></defs><title>oceania</title><path class="cls-1" d="M360.73,48.08a3.07,3.07,0,0,0-1.1,1.16,1.63,1.63,0,0,1-1.37,1,2.81,2.81,0,0,0-1.3.35c-.48.3-.55.75-.65,4.39a13.83,13.83,0,0,1-.86,2.74c-.45,1.06-1,2.57-1.24,3.33a5.31,5.31,0,0,1-1.06,1.88c-.69.59-3.74,6.42-3.74,7.14,0,.38.28.45,1,.31,2.16-.45,2,2-.14,3.67-1,.82-1.13,1-1,2.19a5.13,5.13,0,0,0,.48,1.62c.51.55.34,1.33-.55,2.64a13.9,13.9,0,0,0-1.44,3.63c-.55,2.34-.55,2.41.17,3.43a4.87,4.87,0,0,1,.28,4.64c-.49,1.16-.21,4.73.48,6.24a2.62,2.62,0,0,1,.06,2.57c-2.16,5-3.36,9.37-3,10.88a2.28,2.28,0,0,1-.31,1.61,8.92,8.92,0,0,0-.89,2.3c-.55,1.85-1.65,4.35-2.09,4.63-.72.44-2.2,3.15-2.61,4.76-.82,3.2-1.06,3.5-3.36,4.6-3.3,1.58-8.06,2-8.06.76,0-.21-.76-.62-1.72-1a10.55,10.55,0,0,1-2.91-1.72,4.24,4.24,0,0,0-2.06-1.13c-1,0-2.23-1.65-2.23-3,0-.66-.21-1.17-.52-1.27a1.43,1.43,0,0,1-.68-.83c-.11-.37-.83-.79-1.82-1a11.16,11.16,0,0,1-2.3-.92,3.67,3.67,0,0,0-1.71-.45,11.35,11.35,0,0,1-5.77-2.4,22.15,22.15,0,0,1-2.64-3,5,5,0,0,0-3.33-2.4,7.37,7.37,0,0,1-2.67-1.37,2.73,2.73,0,0,0-1.1-.83,5.41,5.41,0,0,1-1.61-.85c-.89-.62-1.44-.79-1.82-.55a2.18,2.18,0,0,1-2.4-.55,19.73,19.73,0,0,0-2.75-2.09c-1.47-1-2.36-1.89-2.43-2.37s-.72-1.1-1.72-1.68a21.71,21.71,0,0,1-2.64-1.82,21.72,21.72,0,0,0-3-1.89c-2.71-1.33-3.46-3.12-1.85-4.18.48-.31.79-.65.72-.76s.86-2.12,1.2-2.12c.14,0,.41-.45.65-1a3.16,3.16,0,0,1,1.47-1.44,1.32,1.32,0,0,0,1-1.48,4.39,4.39,0,0,1,.69-2.06,4.19,4.19,0,0,0,.69-1.78,1.31,1.31,0,0,1,.34-1c.51-.31.41-1.2-.14-1.2a.84.84,0,0,0-.68.51c-.11.28-.35.52-.52.52s-.27-.24-.17-.52,0-.51-.17-.51-.38-.45-.38-1,.14-1,.48-.82c.76.27,1-.52.38-1.24-.38-.41-.45-.68-.21-.86s.38-.1.38.07.17,0,.34-.24.35-.37.35-.1a.41.41,0,0,0,.34.45c.17,0,.34-.24.34-.52,0-.68.55-.65.83,0,.17.41.34.34,1-.45s.93-.89,1.27-.55.35.45,0,.45-.41.31-.41.68c0,.83.61.93.92.14a.53.53,0,0,1,.65-.34c.28.1.48,0,.48-.31a1,1,0,0,1,.52-.79,1.38,1.38,0,0,0,.62-1,.66.66,0,0,1,.68-.75c.41,0,.59-.18.45-.55s-.15-.46-.21-.69c0-.07-.17-.14-.37-.14a1.94,1.94,0,0,1-.93-.58c-.55-.51-.52-.55.38-.31s.92.17.72-.68-.14-.9.34-.72.55,0,.55-.31c0-.72,2.37-3.57,2.95-3.57.79,0,.55-.93-.58-2s-2.71-1.47-2.71-.72a.35.35,0,0,1-.35.35h0c-.17,0-.34-.31-.34-.69a3.48,3.48,0,0,0-.51-1.51c-.48-.72-.48-.82,0-1s.48-.34.27-.55c-.41-.41-1.54.11-3.73,1.65-1.75,1.24-2,2.06-.55,2.33,1,.21,1,.24.58,1.31s-.5,1.08-1.74,1.08c-1.47,0-1.47,0-.92-1.85.2-.72.17-.79-.55-.55l-.79.24.79-1.06c.85-1.24.68-1.82-.28-1a2.09,2.09,0,0,1-1.2.58,2.44,2.44,0,0,0-1.3.72c-.59.58-.79.65-1,.27s1.61-2.71,2.37-2.71a.41.41,0,0,0,.41-.37c0-.45-1.37-.18-2.88.58a2.85,2.85,0,0,1-1.62.31c-.31-.11-.68-.07-.79.14s-.48.24-.82.13a2.42,2.42,0,0,0-1.61.76c-1.51,1.27-2.57,1.47-3.19.58a1.7,1.7,0,0,0-1.13-.75.61.61,0,0,1-.66-.52c0-.27-.13-.51-.34-.51s-.34-.21-.34-.48c0-.9-.72-1-1.68-.31-1.48,1.1-2.2,1.2-3.64.44-.89-.44-1.4-.55-1.51-.31s-.31,0-.51-.44-.55-.79-.72-.79a1.87,1.87,0,0,1-.76-.27,1.35,1.35,0,0,0-1.16.1c-.52.27-.83.31-1.1,0s-.17-.41.2-.58a.85.85,0,0,0,.59-.65c0-.55-1.82-1.07-2-.55a.86.86,0,0,1-.79.38c-.34,0-.65.13-.65.34,0,.48-.55.41-1.13-.14-.31-.31-.62-.38-.83-.17s-.58.07-1-.34a2,2,0,0,0-1.79-.45c-1,.14-1.13,0-1.68-1.17-.65-1.5-2.09-3.22-2.64-3.22-.2,0-.75.48-1.2,1-.79,1-1.75,1.37-1.75.65,0-.51-2.09-3-2.54-3-.2,0-.58-.34-.85-.72-.35-.59-.52-.65-.72-.31s-.49.41-1.24.07c-1.13-.52-1.34-.35-.82.62a1.59,1.59,0,0,1,.2,1.13c-.07.24-.17.17-.17-.14,0-.58-1.41-1.68-2.09-1.68-.17,0-.34.34-.38.75s-.1.59-.2.35c-.24-.62-.69-.52-1.48.34s-.86,1.37.1,1.27c.72-.1,2.64,1.41,2.64,2.06s1.07.72,1.82.24c1.31-.83,2.85-1,3.4-.38A17.54,17.54,0,0,0,242,56c.62.69.69,1,.38,1.34s-.31.58,0,1,.17,3.54-.24,3.13c-.11-.11-.69.13-1.27.58-1.2.86-2.13,1.06-2.44.55-.14-.21-.69,0-1.37.51-1.31,1-2,1.1-2.57.38-.38-.45-.55-.45-1.62,0-2.67,1.13-5.31.48-5.62-1.34-.21-1-.93-1.06-1.07-.14s-.37.83-2.5.52c-.17,0-.38.24-.38.62s-.07,1-.1,1.27-.21.51-.55.37c-.58-.2-2,.86-1.68,1.31.07.17-.38.06-1.06-.24a2.82,2.82,0,0,0-1.48-.35,2.76,2.76,0,0,0-.34,1.44c-.1,1.48-.31,1.89-.86,1.79A2.8,2.8,0,0,0,216,69a.9.9,0,0,0-.46,1c.2,1.07-.48,2.33-1.2,2.23-1.31-.1-1.45,0-1.45,1.58a3.15,3.15,0,0,0,.69,2.3c.89,1,.86,1.2-.38,2.37s-2.19,1.26-2.5.44c-.17-.48-.28-.48-.79.07a1.78,1.78,0,0,0-.62,1,12.43,12.43,0,0,1-.92,3.53,1.14,1.14,0,0,0-.14,1c.27.72-.38,1.54-1,1.27-.27-.11-.48,0-.48.2s-.31.38-.72.38-.65.17-.55.41a4.39,4.39,0,0,1-.65,1.92,6.77,6.77,0,0,0-.82,1.89c0,.48,1.2,1.61,1.71,1.61a.31.31,0,0,1,.34.29v.06c0,.17.59.34,1.31.34,1.13,0,1.2.07.68.48-.79.58-.79.86.18,1.85.72.79.72.82.06.69s-.72.13-.85,1.44-.21,1.51-.62.79a4.28,4.28,0,0,0-3.12-1.82c-.79,0-1.2,1-.86,2.13.21.68.17.72-.34.3a1.41,1.41,0,0,1-.55-.92c0-.69-1.41-1.51-2.58-1.51a14.77,14.77,0,0,1-2.64-.48,4.17,4.17,0,0,0-2.81-.14c-1.27.41-1.3.48-.62,2.3.14.34-.07.41-.85.24-1.31-.31-2,.41-1.69,1.85.21,1.1-.24,1.41-.75.48-.34-.62,0-3.19.51-3.53s.86-2.09.45-2.09c-.62,0-2.78-1.75-4.46-3.57a33.58,33.58,0,0,0-4-4,3.47,3.47,0,0,1-.83-1c-.17-.52-3.39-.9-3.39-.42a.34.34,0,0,1-.32.37h0c-.18,0-.35-.24-.35-.55,0-.72-1.37-1.82-2.3-1.85a4.74,4.74,0,0,0-1.61.38c-.82.37-.82.44-.38,1.37s.45,1-.17,1.17-.65.41-.51.89.1.58-.31.44-.55,0-.55.52-.17.65-.48.51a1.07,1.07,0,0,1-.6-1.38,1,1,0,0,1,.33-.44c.44-.24.48-.44.2-.72s-.51-.24-.92.14a1.8,1.8,0,0,1-.9.55c-.58,0-1.71,1.75-1.51,2.3.14.38.07.48-.17.31a1.75,1.75,0,0,1-.41-1.31c0-1.16-1.2-2.47-2-2.16a2.55,2.55,0,0,1-.82.17c-.21,0-.28.21-.17.48a.48.48,0,0,1-.17.62c-.17.07-.24.38,0,.93s.62.68.93.58c.75-.31,1,.86.34,1.37-.38.24-.52.62-.34.86a.7.7,0,0,1-.38.86c-.52.38-.55.55-.17,1s.31.55-.21.76a1.66,1.66,0,0,0-.89.58c-.17.21-.28.07-.28-.38,0-.75-1-1.33-2-1.2-.45.07-.41,0,0-.34.89-.72.86-1-.17-1.48-1.37-.75-1.67-.36-1.37,1.38.21,1.34.14,1.51-.48,1.51a1,1,0,0,0-.82.41c-.1.35-.24.35-.65,0s-1-.07-2.57,2.16c-.69,1-.69,1.06-.11,1.85.45.58.52,1,.31,1.23s-.1.52.45.69.89.28,1.06.31a.23.23,0,0,1,.24.22v.57c0,.58-1.89.2-2.23-.45-.51-1-1.75-.92-1.65.07.07.62-.06.79-.72.79-.92,0-2,1.06-1.3,1.27a.77.77,0,0,1,.41.65c0,.41-.27.45-1.2.28-1.1-.21-1.2-.14-1.2.58,0,1.68-.38,2.33-1.27,2.26a1.28,1.28,0,0,0-1.13.45c-.14.27-.41.86-.62,1.23a4.2,4.2,0,0,0,.76,3.74,1.87,1.87,0,0,1,.55.89c0,.59.58.31,1-.48s.34-.58.17.45c-.21,1.3-.79,2.23-.79,1.27a.56.56,0,0,0-.52-.58.61.61,0,0,0-.51.65,1.15,1.15,0,0,1-.34.89.54.54,0,0,0-.11.69,2.89,2.89,0,0,1,0,1.37c-.28,1-1.41,1.16-1.68.2-.1-.41-.58-.72-1.41-.85-.61-.12-1.22-.27-1.82-.45-.41-.17-.51-.07-.34.31a.55.55,0,0,1-.26.73l0,0c-.82.31-.92.24-.72-.48s-1-1.88-1.61-1.4a3.15,3.15,0,0,1-1,.41c-.89.17-1,1.58-.14,2.16.62.45.59.48-.31.72s-1,.24-.27.75.69.52-.07.31c-1-.31-1.34.38-.65,1.14a1.94,1.94,0,0,1,.55,1c0,.24.27.41.62.41.65,0,2.12,1.13,2.12,1.61a1.42,1.42,0,0,0,.41.72,2.59,2.59,0,0,1,.48,1.45c0,.89,0,.92-.58.58-.38-.24-.65-.52-.65-.65s-.31-.28-.65-.28c-.86,0-1.17.89-.65,1.82.41.76.41,1.34.06,2.95-.17.76-.2.79-.85.21a8,8,0,0,1-1.17-1.62c-.27-.51-.75-1.44-1.06-2a2.94,2.94,0,0,0-1-1.23.86.86,0,0,1-.48-.79,1.1,1.1,0,0,0-.34-.86.84.84,0,0,1-.18-.89c.14-.41.07-.65-.24-.65a2.45,2.45,0,0,1-1.09-.52c-.62-.48-.62-.51,0-1.44.41-.62.48-1,.24-1.06a.65.65,0,0,1-.41-.59c0-.75-1.72.24-1.92,1.14a2.26,2.26,0,0,1-.72,1.06,2.45,2.45,0,0,0-.76,1.61c-.17,1-.37,1.34-.89,1.34-1.13,0-1.61.51-1.4,1.41.17.58.1.75-.24.61-.66-.24-2.44,1.86-3.3,3.84-.79,1.75-1,4.57-.31,5.22a5.81,5.81,0,0,1,.48,2.54c.11,2,.48,2.81,1,2a.63.63,0,0,1,.83-.32.62.62,0,0,1,.37.66c0,.86-4.77,5.56-5.39,5.29s-1.61,1.81-1.16,2.36.13.9-.69.9-1.17.58-.68,1.16a.59.59,0,0,1,.06.76,6.27,6.27,0,0,0-.72,1.68,19.32,19.32,0,0,1-4.7,7.3c-3.22,2.68-10.77,6.21-14.3,6.73a3.18,3.18,0,0,0-1.44.86c-.72.68-.93.72-2.23.37-2.06-.55-4.12-.34-4.94.48a10.11,10.11,0,0,0-1.37,2.06c-.59,1.13-1.92,2.13-2.64,2a4.94,4.94,0,0,0-1.55.41,22.09,22.09,0,0,1-3.92,1.08,10.53,10.53,0,0,0-2.88,2.44,5.08,5.08,0,0,1-2.5,2.23,6.62,6.62,0,0,0-2.2.72c-1.61.79-3.19.68-3.19-.24,0-.66-1.1-.38-2.47.58-.86.58-2,.89-2,.51a4.94,4.94,0,0,1,.35-1c.51-1.41-.42-1.14-1.41.37a5.41,5.41,0,0,1-1.58,1.65c-.44.17-.79.51-.79.75s-.27.45-.65.45a1.44,1.44,0,0,0-1,.48,1.1,1.1,0,0,1-1,.31c-.48-.14-.72.07-.86.82a3.3,3.3,0,0,1-1.54,1.75,4.56,4.56,0,0,0-1.71,2,2.3,2.3,0,0,1-1,1.37,6,6,0,0,0-1.79,1.82c-1.3,1.82-2.33,2.78-3,2.81a4.21,4.21,0,0,0-1.58.86,4.53,4.53,0,0,1-1.51.86,9.09,9.09,0,0,0-2.09,1.37c-1.3,1-1.75,1.61-1.75,2.26s-.24,1-.69,1.06-.65.38-.48.86a1.38,1.38,0,0,1-.13,1.07,7.18,7.18,0,0,0-.59,2.19c-.17,1.27-.37,1.72-.68,1.61s-.66.14-.93.52c-.65.92-1,.55-.58-.59.27-.68.2-1-.41-1.64s-.72-1.07-.59-3.19a8.52,8.52,0,0,0,0-2.57c-.27-.31-1.4.44-2,1.33a14.71,14.71,0,0,0-1,3.33,30.44,30.44,0,0,1-1.13,4.29c-.76,2-.66,3.39.24,3.7,1.09.35,2.23,3.6,1.44,4.12-.21.1-.21.58,0,1.13.72,2.27.65,3.47-.13,4.43-1.65,2-2.54,7-1.86,10.42a5.39,5.39,0,0,0,1.82,3.06,5.69,5.69,0,0,1,1.54,2.09,1.07,1.07,0,0,0,.35.82A1,1,0,0,1,35,238a2.28,2.28,0,0,0,.69,1.27,15.77,15.77,0,0,1,1.93,2.07,2.93,2.93,0,0,1,.68,1.2A9.77,9.77,0,0,0,40,244.74a11.18,11.18,0,0,1,1.74,2.19c0,.14.21.27.48.27s.45.62.48,2.23a8.78,8.78,0,0,0,.45,3c.31.62.24.86-.31,1.44-1,1-1.58.42-2.54-2.53-.75-2.37-1.54-3-1.37-1.14.07,1.07-.41,2.16-.82,1.75A4.8,4.8,0,0,1,37.9,250c0-1.58,0-1.75-1.88-3.6A9.65,9.65,0,0,0,34,244.61a5,5,0,0,0-.39,1.32c-.14,1,0,1.51.89,2.75a8,8,0,0,1,1.11,1.85c0,.59,2,2.44,2.91,2.68s1,.31,1.34,1.58a1.53,1.53,0,0,1-.48,1.64c-.89.9-1.3.86-1.58-.17-.1-.48-.34-.79-.48-.68s-.38-.28-.51-.86-.35-1-.52-1a5.59,5.59,0,0,1-1.4-1.51c-1.2-1.68-2-1.75-2-.2,0,.78-.13.92-.68.78-.93-.24-.86.38.13,1.17a3.55,3.55,0,0,1,1,1.3A5.16,5.16,0,0,0,35,256.93a27.17,27.17,0,0,1,6.62,6.78c2.85,3.8,3.67,5.45,3.47,7-.17,1.13,1.2,4.63,1.82,4.63s3.67,3,4.49,4.32a3.1,3.1,0,0,1,.55,1.75c-.07.41.55,1.27,1.82,2.51a11.22,11.22,0,0,1,3.85,7c.69,5,1.23,7.72,1.61,7.72.14,0,.45.72.69,1.61a19.19,19.19,0,0,0,3.29,5.93,13.19,13.19,0,0,1,1.61,2.37c.62,1,2,3.09,3.09,4.5a10,10,0,0,1,2.5,5.28c.38,1.71.45,2.81.24,3s-.17.65.14,1.23c.55,1.06.62,1.85.17,2.3-.61.69-.58,1.78.17,3.94,1.17,3.4,1.27,4.46.66,6.63-.83,2.81-3.09,4.28-4.29,2.81-.79-.93-1.27-.62-1.17.75.38,4.26,1.24,7.28,2.4,8.37.79.76.83.76,1.51.14s.76-.58,2.58.1a14.09,14.09,0,0,1,5.69,3.81c.48.65.93.93,1.37.82a10.14,10.14,0,0,1,3.26.72,7.76,7.76,0,0,0,3.36.69,4.6,4.6,0,0,1,1.65-.21c.51,0,1-.06,1.1-.24s.48-.24.82-.13a6.72,6.72,0,0,0,2-.17,3.78,3.78,0,0,1,1.89-.07c.45.18.9.34,1.37.48.72.13,1,.07,1.1-.45s.31-.65,1.37-.31c1.27.38,2.3.21,2.3-.41,0-.17-.28-.34-.59-.34-1,0-.3-.35,1-.48.86-.07,1.17-.28,1.17-.76s.28-.68,1-.75.93-.28.93-1.1.27-1.13,1.3-1.75c1.48-.89,1.85-1.34,1.61-1.92-.07-.21.48-.72,1.2-1.1,1.1-.55,1.55-.65,2.3-.34,1,.38,2,.17,1.65-.41-.14-.21,0-.31.38-.24s.65-.11.61-.52.11-.55.55-.41c.76.24,1.31-.48.65-.86s.18-2.81,1.48-3.77a6.34,6.34,0,0,1,4.73-1.65,7.89,7.89,0,0,0,3-.58c1.07-.69,7.28-2,9.23-2,3.67.1,4.12.07,4.67-.44s.61-.45,1.13,0a1.83,1.83,0,0,1,.55.79,1.92,1.92,0,0,0,.31.72c.24.38.44.38,1.09,0a3.76,3.76,0,0,0,1.14-.92c.2-.38.61-.45,1.4-.31s1.24.07,1.55-.31a2.43,2.43,0,0,1,1.5-.55,6.51,6.51,0,0,0,1.75-.27c.83-.35,1.89.13,1.89.82s.89.62,1.89-.31a1.92,1.92,0,0,1,1.54-.65c.65.17,3.23-1.82,2.92-2.3-.11-.14.31-.79.85-1.41a6.08,6.08,0,0,0,1.2-2.36c.73-4.56,1.89-6.07,5.29-6.86a8.07,8.07,0,0,0,3.08-1.51,17.45,17.45,0,0,1,4.77-3.09,18.87,18.87,0,0,0,3.12-2.2c3-2.43,4.33-2.88,7.28-2.47a24.85,24.85,0,0,0,11.48-1.6,32,32,0,0,1,3.87-1.51,41.3,41.3,0,0,0,8.71-4.18c1.55-1,2.41-1.21,7.41-2a62.91,62.91,0,0,1,9.68-.9c3.57,0,4.18-.1,5.69-.82l1.68-.86,2.95,1.38c2.85,1.3,6,3.36,7,4.56.61.75,4.18.72,3.91,0s2.3-.44,3.84.55A8,8,0,0,0,249,305a1.21,1.21,0,0,1,.68.52c.55.72,3.91.82,4.91.17.68-.45.82-.41,1.37.34a2.15,2.15,0,0,0,1,.86,1.36,1.36,0,0,1,.86.58c.37.45.37.59.06.69s-.65,2.16-.24,2.16a7.78,7.78,0,0,0,1.41-.55c1.13-.55,1.2-.55,1.82.07a4.53,4.53,0,0,1,.86,1.41c.2.72.1.79-1,.79-1.27,0-1.44.17-.89,1a.81.81,0,0,1,0,.92.66.66,0,0,0,0,.93.69.69,0,0,0,.56.2c.31,0,.42.21.28.55a.7.7,0,0,0,.34.89,1,1,0,0,1,.59.76c0,.58.75.89,1.61.68s3.43,1.1,3.94,2a5,5,0,0,1,.38,2c0,1.17.21,1.55,1.78,3,2,1.79,2.68,2.85,2.54,3.95a2.59,2.59,0,0,0,.28,1.44c.48,1,.85,3.6.48,3.6a1.43,1.43,0,0,1-.72-.51c-.62-.76-.9-.66-1.38.51s-.27,1.68.45,1.06c.38-.27.62-.24,1.06.24s.45.72.35.83.1.31.48.41a6.27,6.27,0,0,1,2.47,2.91c0,.55.37.48,1.09-.2.59-.52.69-.52,1.65.41,1.13,1.06,1.17,1,1.51-1.47.21-1.38.17-1.48-.51-1.38-.42.07-.83-.1-.9-.34s.07-.41.38-.41.52-.28.45-.76.1-.79.79-.79.89-.2,1-.85a3.37,3.37,0,0,1,1-1.68,7.46,7.46,0,0,0,1.34-1.92,4.23,4.23,0,0,1,1.41-1.72,7,7,0,0,0,1.3-1.06,31.59,31.59,0,0,1,5.69-2.64c.69-.24,2.2-2.89,2.78-4.84s2.3-3.67,3.36-3.4c.59.17.76.11.62-.27a5.24,5.24,0,0,1,.24-1.85l.41-1.38.21,1.72a6.28,6.28,0,0,0,.75,2.26c.52.52.45.62-.72,1.31s-1.2.89-1,1.51c1,3.29,1,3-.65,4.9s-2.61,3.29-2.61,4.32a.93.93,0,0,1-.48.83c-.34.13-.41.58-.31,1.57s.07,1.48-.24,1.65-.38.52,0,1.65c.61,1.82-.07,5-1,4.7a7.13,7.13,0,0,0-2-.31c-1.3-.07-1.54,0-2,.89a2.35,2.35,0,0,0-.34,1.27c.1.17-.1.55-.48.89-1.3,1.17-.41,3,.92,1.85a1.62,1.62,0,0,1,1.13-.38,2,2,0,0,0,1.41-.47c.35-.31.66-.48.66-.35s.34,0,.78-.27c.66-.45.9-.45,1.86,0,1.44.69,1.92.31,2.53-1.88a17.31,17.31,0,0,1,.9-2.47,6.15,6.15,0,0,0,.44-2.27,3.67,3.67,0,0,1,.65-2.23,4.93,4.93,0,0,0,.79-1.61c0-.45.28-.72.45-.69s.31.24.24.38.17.34.45.45a1.31,1.31,0,0,1,.51,1.1,2.32,2.32,0,0,0,.48,1.4c1.65,1.89,2.06,4.39,1.37,8.44-.2,1.34-1.92,3.6-2.74,3.6-.21,0-.59.41-.83.89-.65,1.17-.2,1.41,2.41,1.34,1.57,0,2.23-.24,2.84-.79l.79-.75,1.44.72c2,1,5.49,4.9,6.83,7.61,1.27,2.47,2.26,6.38,2,7.34a4.31,4.31,0,0,1-1.06,1.34c-.75.65-.82.83-.44,1.51a2.84,2.84,0,0,1,.24,1.44c-.21.76,2,4.74,2.64,4.74.2,0,.58.41.82,1,2.33,5,3.64,6.24,6.31,6.24,1.51,0,1.85.14,3.4,1.61,1.23,1.13,1.64,1.75,1.51,2.23s0,.62.48.62a1.13,1.13,0,0,1,.86.31c.34.55,1.54,0,1.64-.79.14-1,2-.89,3.57.31a2.35,2.35,0,0,0,2.19.68c1.1-.24,2.95.76,4.43,2.37a3.08,3.08,0,0,0,1.44.89,3.72,3.72,0,0,1,1.69.91,4,4,0,0,0,2,1.09,1.37,1.37,0,0,1,1.1.69c.48.89,1,.86,2.19-.17a4.38,4.38,0,0,1,1.27-.86,11.57,11.57,0,0,0,2.06-1.55,9.65,9.65,0,0,1,2.16-1.54,3.42,3.42,0,0,0,1.24-.68c1.64-1.27,3.12-.79,4.63,1.5.65,1,2,1.2,2.37.38a1.07,1.07,0,0,1,1-.51c.65,0,.89-.24,1.06-1.07s.35-1,1.14-.92,1,.31,1.06,1,0,.92-.41.75-.55,0-.55.48-.17.76-.41.82.07.66.82,1.45,1.48,1.23,1.82,1.13c.51-.24,1.54,1.27,1.54,2.3a.66.66,0,0,0,1.24.41c.34-.52.51-.52,1.13-.14a1.38,1.38,0,0,1,.72,1c0,.78,1,2.71,1.41,2.71s1.2-.79,1.26-1.55a9.7,9.7,0,0,1,.28-1.78c.17-.89.1-1.13-.31-1.13a.92.92,0,0,0-.72.51c-.27.75-.65.62-1.1-.31-.34-.72-.31-.86.24-1a1,1,0,0,1,.83,0c.27.31,4.11.07,4.21-.27a.37.37,0,0,1,.52-.14h0c.24.07,2.3-1.3,4.56-3a52.69,52.69,0,0,1,5.39-3.78,14.71,14.71,0,0,1,7.06-1.09c1.07.1,3,.27,4.33.34s3.05.24,3.84.34a5.36,5.36,0,0,0,4.35-1.51,2.45,2.45,0,0,1,1.65-.72c.65,0,1-.17,1-.62a5.63,5.63,0,0,1,.1-.92,5.92,5.92,0,0,0,.14-1.1c0-.55.17-.72.58-.55s.52.07.28-.62a8.46,8.46,0,0,1,1.3-7.23,3.54,3.54,0,0,0,.62-1.62,3.2,3.2,0,0,1,.48-1.51,14.79,14.79,0,0,0,1.06-3.15,7.36,7.36,0,0,1,1.07-2.68.87.87,0,0,0,.48-.65,6.44,6.44,0,0,1,1-1.65,5.72,5.72,0,0,0,1-1.61,2,2,0,0,1,.69-1,2,2,0,0,0,.69-1,1.78,1.78,0,0,1,1.88-1.34c.38.18.83-.06,1.41-.72s.82-1,.82-1a10.13,10.13,0,0,0-.41-1.21c-.31-1-.27-1.2.17-1.54a3.72,3.72,0,0,0,1.13-2.26,1.62,1.62,0,0,1,.35-.69,4.51,4.51,0,0,0,.65-1.61,3.77,3.77,0,0,1,1.44-2.06c2.61-2.06,3.09-2.64,3.88-5.11.51-1.65,1-2.57,1.44-2.71s.61-.38.61-.58a3.66,3.66,0,0,1,.9-1.44,22.43,22.43,0,0,0,1.68-2.23c1.34-2.1,2.6-3,4.29-3.23a3,3,0,0,0,1.95-.79,5.54,5.54,0,0,1,2.92-2.36c1.09-.24,1.61-1.14,1.81-3.37a4.26,4.26,0,0,1,2.13-3.43c.65-.31.93-.68,2-2.84a4.53,4.53,0,0,1,.89-1.31,7,7,0,0,0,1.37-3.26,2.09,2.09,0,0,1,.69-1.2,2,2,0,0,0,.68-1.09,2.9,2.9,0,0,1,.45-1.14c.34-.58.31-.75-.07-1-.72-.48,0-3.81,1.24-5.39a5.22,5.22,0,0,0,.78-1.4,1.39,1.39,0,0,1,.52-.79,1.79,1.79,0,0,0,.51-1.17,3.18,3.18,0,0,1,.69-1.58,3.16,3.16,0,0,0,.69-1.27c0-.37.2-.92,1.4-3.7a6.47,6.47,0,0,0,.38-1.72,5,5,0,0,1,.75-2.05,7,7,0,0,0,.79-1.48A4.75,4.75,0,0,1,467.4,284c1.13-1.23,2-3.63,1.37-4-.28-.17-.24-.82.14-2.33.48-1.82.48-2.16,0-3a11,11,0,0,1-.62-3.26,11,11,0,0,0-.38-2.74,2.37,2.37,0,0,1-.2-1.31,2.46,2.46,0,0,0-.62-1.64,2.42,2.42,0,0,1-.68-1.24.83.83,0,0,0-.35-.72c-.2-.14-.17-.45.11-.89s.3-.72-.07-1-.35-.35,0-.55a.53.53,0,0,1,.59,0c.48.48,1.06-.54.82-1.44s-.24-2.12.1-7.13a10.6,10.6,0,0,1,1-3.84c1-2.06,1.06-2.13.38-2.13a.6.6,0,0,1-.52-.65,1.79,1.79,0,0,0-.85-1.2,2.55,2.55,0,0,1-.45-3.4c.55-1,.34-2.74-.34-3.15a2.93,2.93,0,0,0-1.62-.48.63.63,0,0,1-.51-.66,2.73,2.73,0,0,0-.58-1.4,3.91,3.91,0,0,1-.52-2A2.56,2.56,0,0,0,462,231a7.73,7.73,0,0,1-3.15-4.94c0-1.4-.65-2.88-1.27-2.88-.24,0-.55-.45-.65-1a1.53,1.53,0,0,0-2.44-1c-.44.34-.65.28-1.34-.58a4.45,4.45,0,0,1-.82-1.41c0-.2-.38-.55-.82-.79a2.38,2.38,0,0,1-1-1.37,4.94,4.94,0,0,0-.86-1.75c-.55-.69-.72-.75-1.2-.38s-.55.35-.55-.41a5.23,5.23,0,0,0-.38-1.75c-.3-.65-.3-1,0-1.34s.28-.75,0-1.54-.24-1.51.35-3.29a6.22,6.22,0,0,0,.31-4.12,4.2,4.2,0,0,0-.66-1.92c-.17,0-.3-.24-.3-.51s-.35-.66-.72-.9c-.93-.48-1.41.11-1.24,1.48a4,4,0,0,1,0,1,9.47,9.47,0,0,1-1.48-1.2,6.44,6.44,0,0,0-1.68-1.2c-.21,0-.34-.28-.34-.62,0-1-1-2.81-1.51-2.81-1,0-1.75,1.4-1.72,3s0,1.55-.44.65-1.14-1.2-1.14-.54a.39.39,0,0,1-.41.34c-.2,0-.27-.1-.17-.24s0-.62-.34-1.1c-1-1.58-2.13-7.24-1.41-7.24.17,0,.14-.31-.07-.65s-.24-.75,0-.89c.55-.34.42-1.2-.2-1.2-.28,0-.41-.17-.31-.34s.07-.35-.1-.35-.42-.58-.55-1.34a3.23,3.23,0,0,0-.69-1.71c-.38-.31-.41-.65-.2-1.24s.1-1-1.17-2.33a8.34,8.34,0,0,0-2.23-1.78c-.41-.14-.69-.31-.58-.45s-.14-.55-.55-1-.62-.89-.52-1,.07-.41-.17-.69c-.62-.75.21-1.4,1.1-.86a3.39,3.39,0,0,0,1.23.42c.52,0,.52-.07,0-.79a6.75,6.75,0,0,1-.76-1.92,1.56,1.56,0,0,0-.89-1.31c-.34-.1-.65-.41-.65-.65a.49.49,0,0,0-.51-.48.6.6,0,0,1-.52-.65c0-.93-1.68-1.2-2-.31-.24.62-.24.62-.79,0a2.77,2.77,0,0,1-.65-1.26,1.75,1.75,0,0,0-.83-1,3.07,3.07,0,0,1-.92-.76,1.22,1.22,0,0,0-1.07-.24c-.92.17-1.51-.38-1.68-1.61s-1.64-1.44-1.64-.38-.62.83-1-.58a12.52,12.52,0,0,1-.38-1.58c0-.65-1.75-4-2.09-4s-.2.24,0,.69c.34.61.27.68-.59.68-1.92,0-2.47-.37-2.84-1.75s-.83-1.71-1.17-.82c-.28.72-1.17.65-1.65-.17a1.38,1.38,0,0,0-.92-.69c-.83,0-2.71-1.37-3.85-2.78l-1.06-1.37.58-2.06a9.17,9.17,0,0,0,.45-2.19,7.63,7.63,0,0,0-.89-.48,2.76,2.76,0,0,1-1.1-1.17,12.16,12.16,0,0,0-1.1-1.71l-.79-1,.79-1.44a9.48,9.48,0,0,0,.89-2.47c.07-.59.24-1.58.38-2.27s.1-1.34-.14-1.47a2.18,2.18,0,0,1-.37-1.42,2,2,0,0,0-.3-1.32A3.43,3.43,0,0,1,399,131a6,6,0,0,0-.58-1.75c-.28-.31-.28-.69,0-1.31.58-1.26.48-1.5-.62-1.5-.79,0-1.16-.28-1.75-1.21-.41-.65-.85-1.2-1-1.2-.34,0-2.09-3.32-2.09-4a.8.8,0,0,1,.44-.69c.28-.1.41-.72.38-1.78-.1-2.41-.1-2.37-.55-2.89s-.48-1.06-.62-4.15c0-.31-.17-.58-.37-.58-.48,0-.38-1.85.2-2.61s.65-1.64,0-1.37-.65-1.23.17-2.3l.69-.86-.86-.54c-.48-.31-.82-.72-.75-.93s-.48-.55-1.13-.75a4.3,4.3,0,0,1-2-1.72c-.44-.69-1-1.27-1.3-1.27s-.45-.17-.45-.34-.27-.35-.65-.35a1.1,1.1,0,0,1-1.06-1.68q.36-.72,0-.72c-.17,0-.35-.27-.35-.61,0-.62-.75-1.79-1.16-1.79a5,5,0,0,0-1.27.76c-.86.65-1.13.68-1.72.34s-1.51-.24-1.16.27-1.34,1.75-2.54,1.65c-1.51-.14-2.37-1.27-2.64-3.53A13.18,13.18,0,0,0,373.2,88c-.82-1.78-.82-1.81-.24-3.84.42-1.47.48-2.16.21-2.5-.55-.65-.93-5.59-.45-5.87.83-.51.35-1-.82-.79-1.34.21-1.41.11-.69-1.13s.62-1.89-.34-2.33a1.36,1.36,0,0,1-.86-1.2,2.12,2.12,0,0,0-1.81-2c-.31,0-.52-.2-.45-.44a8.18,8.18,0,0,0,.34-1.38,4.45,4.45,0,0,1,.93-1.64l.68-.69-.78-.65a1.76,1.76,0,0,0-1.58-.45,1.64,1.64,0,0,1-1.44-.41c-.59-.51-.69-1.06-.65-3.56a24.33,24.33,0,0,0-.59-6.14,5.14,5.14,0,0,0-1.44-2c-1-.9-1.16-1.24-.82-1.58s.27-.55-.17-1a1.89,1.89,0,0,0-.76-.58Zm-207.1,57.45c0,.62-.07.66-.51.31s-.41-1,.2-1C153.5,104.81,153.63,105.16,153.63,105.53Zm-4.8,12.32c0,.17-.34.34-.75.31-.76,0-.76,0-.11-.31a4.47,4.47,0,0,1,.79-.31A.57.57,0,0,1,148.83,117.85ZM298.22,311.93a.42.42,0,0,1-.17.55c-.17.1-.34,0-.34-.31C297.71,311.59,297.91,311.49,298.22,311.93Zm127.78,41c-.14.27-.28.51-.35.51s-.13-.24-.13-.51.13-.52.34-.52.24.31.14.59Zm-61,27.41a4,4,0,0,0,.48,1.4c.44.83.41,1-.28,2.06-.79,1.3-1.57,1.72-2.64,1.37-.48-.17-.61-.41-.44-.79a5.45,5.45,0,0,0,.27-1.26c0-.59-.17-.69-1.34-.62l-1.37.07,1.37-.83a6.17,6.17,0,0,1,1.75-.85,1.52,1.52,0,0,0,.83-.52c.54-.58,1.37-.62,1.37,0Z"/><path class="cls-1" d="M292.46,347.34a7.65,7.65,0,0,0-2.71.62,3,3,0,0,1-1.68.41c-2.1,0-3.64.86-3.91,2.12-.21.9-.14,1.2.48,1.58.37.28.72.69.72.93,0,.41,3,.38,4.8-.07a2.32,2.32,0,0,1,2.47.48c.55.48.69.48,1.47,0a1.79,1.79,0,0,0,.86-1.07c0-.86,1.24-1.27,2.71-.86,2.27.62,3.26-.41,1.68-1.74-.82-.76-1.85-.86-2.09-.24-.14.34-.24.34-.51,0a1,1,0,0,0-1-.35c-.55.07-.62-.07-.55-1,.07-.58,0-1.06-.17-1.06S293.73,347.2,292.46,347.34Z"/><path class="cls-1" d="M352.25,399.79a1.75,1.75,0,0,1-.52.82c-.61.62-1,5.35-.44,6,.24.31.58.24,1.4-.34.62-.41,1.17-.79,1.21-.83a14.23,14.23,0,0,0,.27-2.43c.14-2.23.1-2.44-.72-2.95S352.25,399.34,352.25,399.79Z"/><path class="cls-1" d="M389.23,405.2c-.35.1-.62.31-.62.51a1.49,1.49,0,0,1-.58.83c-.59.44-.59.51,0,1a.93.93,0,0,1,.37,1c-.1.3-.06.54.14.54a4.22,4.22,0,0,1,.89,2.41c0,.37.45.51,1.58.51h1.55l.17-1.85c.17-1.61.1-1.89-.45-2-.34-.06-.93-.75-1.27-1.47C390.26,405.16,390.05,405,389.23,405.2Z"/><path class="cls-1" d="M357.91,413.23a3.15,3.15,0,0,0-.24,1.58c.07.62-.07,1.13-.28,1.13-.54,0-1.09,1.72-.72,2.2a3,3,0,0,1,.35,1.58,9.78,9.78,0,0,0,.65,4,5.55,5.55,0,0,1,.48,1.51,10.47,10.47,0,0,0,1,2.37,23.94,23.94,0,0,1,1.27,2.47c.37,1,.2,2-.35,2s-.17,5.42.31,5.9a2,2,0,0,1,.41,1.23c0,1.24.76,3.5,1.07,3.3s2,3.12,2,3.87a.51.51,0,0,0,.55.45c.28,0,.45.14.31.31a.42.42,0,0,0,.17.55,1.63,1.63,0,0,1,.34,1.13c0,.92,0,.92,2.27,1,1.85,0,2.4.17,2.85.72.92,1.13,3.12,1.34,3.12.27a1.73,1.73,0,0,1,.65-1c.58-.55.65-.55.86,0,.13.31.3.48.44.38a.9.9,0,0,1,.83.13c.51.28.72.14,1.16-.68a2.63,2.63,0,0,0,.31-1.55c-.14-.37,0-.55.38-.55s.58-.2.41-1.16-.1-1.24.82-1.55,1-.44.79-1.3-.2-.93.31-.48a.71.71,0,0,1,.31.95l-.1.15a3.63,3.63,0,0,0,.41,3.26c.31.37.51.41.89.1s.58-.31.86,0c.72.72,1,.44.92-1a2.9,2.9,0,0,1,.14-1.57,2,2,0,0,0-.14-2.1.59.59,0,0,1-.19-.81.58.58,0,0,1,.81-.19c.62.21,1.82-.72,1.82-1.44a.78.78,0,0,0-1.41-.41c-.24.38-.31.38-.31,0a1.9,1.9,0,0,1,.52-1c.27-.27.44-.65.31-.82a.88.88,0,0,1,.24-.86c.2-.27.31-.58.2-.72-.37-.34.89-2.16,1.51-2.16s.55.2.41.92c-.34,1.72-.27,2,.38,2.1.48.1.58,0,.45-.41a.65.65,0,0,1,.13-.76,3.42,3.42,0,0,0,.31-1.78,18.16,18.16,0,0,1,.66-5.87,2.07,2.07,0,0,0,.13-1.34,2.37,2.37,0,0,1,.41-1.64,1.49,1.49,0,0,0,.24-1.68c-.27-.59-.2-1,.31-1.86.76-1.27.45-2.36-1.2-3.91-1.13-1-1.92-1.2-1.92-.41s-1,1-1.92.52c-.75-.42-.93-.38-1.82.48s-1.06.89-1.68.51-.82-.34-1.2,0a1,1,0,0,1-1,.2,12.86,12.86,0,0,0-4.87.89c-.65.48-3.84.14-4.84-.54a15.32,15.32,0,0,0-1.92-1.1c-.55-.21-1-.62-1-.93a.49.49,0,0,0-.47-.51h0a1.78,1.78,0,0,1-1-.48,2.54,2.54,0,0,0-1.31-.62c-.44,0-.85-.34-.85-.62a8.49,8.49,0,0,0-.11-1c0-.58-.72-.51-.72.1a.64.64,0,0,1-.68.52,7.4,7.4,0,0,1-3.64-2C358.25,412.86,358.15,412.82,357.91,413.23Zm3.94,20.55.45.86-.69-.69c-.37-.37-.61-.82-.55-1,.26-.3.26-.27.79.83Zm20.38,10.47c.1.27,0,.51-.14.51s-.34-.24-.34-.51.07-.52.14-.52.2.2.34.52ZM375.92,448a1.58,1.58,0,0,1-.76.51c-.2,0-.17-.24.07-.51a1.43,1.43,0,0,1,.76-.52c.2,0,.17.24-.07.52Z"/></svg>