<svg id="Layer_1" data-name="Layer 1" xmlns="http://www.w3.org/2000/svg" viewBox="0 0 500 500"><defs><style>.cls-1{fill:#d9d9d9;}</style></defs><title>south america-01</title><path class="cls-1" d="M264.83,3.42c-1.36.77-.66,2.29,1.05,2.29a1.47,1.47,0,0,0,.93-2.18C266.31,2.91,265.77,2.87,264.83,3.42Z"/><path class="cls-1" d="M266.23,7.46c-.58.42-.66.66-.31,1.24.62,1,2.25.93,2.41-.16A1.26,1.26,0,0,0,266.23,7.46Z"/><path class="cls-1" d="M268.13,13.75c-.77.27-.58,2,.24,2.45a7.07,7.07,0,0,0,.93.38c.35,0,1.05-2.4.82-2.75S268.91,13.4,268.13,13.75Z"/><path class="cls-1" d="M202.92,30.15c-1,.23-1.32.54-2.52,3.14-.19.38-.85.58-1.9.62a3.53,3.53,0,0,0-2.87,1.2c-1.78,1.67-2.64,2-5.54,2.33-2.06.19-2.64.38-3.1,1.12-.66,1-2.41,1.71-4.23,1.71-2.75,0-4.58,2.67-4.65,6.82-.08,3.37-.27,3.72-1.94,3.41-1.13-.19-1.4-.08-2,.85a5.67,5.67,0,0,0-.74,2.45c0,1.28-.11,1.39-1.55,1.78s-1.55.62-1.66,1.71S170,58.57,169,58.37s-1.09-.11-1.32,1.24a4.48,4.48,0,0,1-1.59,2.72,7.28,7.28,0,0,1-1.67,1.2,2.1,2.1,0,0,0-.81.35c-.47.31-.47.46.07,1a3.06,3.06,0,0,1,.66,2,3.37,3.37,0,0,0,.82,2.25c.73.77.81,1.36.85,6.59.08,5.7.08,5.74-1,7.06A4.29,4.29,0,0,0,164,85.78a49,49,0,0,1-.55,4.89,17.63,17.63,0,0,0-.27,4.88c.43,2.18,0,2.87-1.86,2.87-2.71,0-4.3,2.17-4.3,5.9a4.67,4.67,0,0,1-4.62,4.18,4.46,4.46,0,0,0-2.28.47,11.56,11.56,0,0,0-.82,3c-.54,3.18-1.36,4.27-3.72,5s-3.41,2.21-4,5.12a14.65,14.65,0,0,0,.5,8.3c.78,2.13,1,2.36,2.37,2.79a23.39,23.39,0,0,0,3,.7c2.21.35,1.78,1.43-1.67,4.34-2.17,1.78-3.06,2.83-3.53,4.07a18.86,18.86,0,0,1-1.43,3c-1.09,1.74-1.09,2.24.12,3.33a1.87,1.87,0,0,1,.73,2,7.41,7.41,0,0,0,.16,2.56,4.23,4.23,0,0,1,0,2.59c-.74,2.17,1.39,3.92,5.78,4.62,2.59.42,3.14.89,3.64,3.1a26,26,0,0,0,5,9.34,13.88,13.88,0,0,1,2.37,3.65,9.86,9.86,0,0,0,1.78,3,9.61,9.61,0,0,1,2.64,5.16c.46,2.6,4.53,11.05,6.9,14.38a42.05,42.05,0,0,1,3.45,5.82c.66,1.47,1.51,3.37,1.94,4.26a8.64,8.64,0,0,1,.73,2.91c0,1.51.47,2.29,3.53,6,4,4.89,10.32,10,12.68,10.43a7.11,7.11,0,0,1,4.23,1.82,17.32,17.32,0,0,0,3.8,2.29c1.7.81,3.8,1.86,4.65,2.33s1.82.93,2.13,1.08a2.91,2.91,0,0,1,.7,2.06c.15,2.25,1.05,3.1,4.34,4.18,2.72.93,3.1,1.24,3.1,2.68a25.68,25.68,0,0,0,1.21,4.46,26.69,26.69,0,0,1,1.55,8.18c.19,2.56.42,5.27.54,6,.19.93-.16,2.87-1,6-1.43,5.35-1.55,7.09-.62,9.5a15.44,15.44,0,0,1,.7,5.7c0,3.41.11,4.11.77,5s.78,1.16.35,3c-.39,1.63-.39,3.1.08,7.84a65.54,65.54,0,0,1,.31,12.09,4.08,4.08,0,0,1-1.2,1.55c-1.44,1.24-1.48,2.41-.16,4,.93,1.12,1,1.39.74,3.64a8.59,8.59,0,0,1-1.09,3.53c-.77,1.12-.77,1.16-.11,4.38a48,48,0,0,0,1.63,5.78,15.91,15.91,0,0,1,.93,3.37,9.7,9.7,0,0,0,1,2.91c1.24,2.67,1.2,3.37-.24,6.12-1.2,2.25-1.24,2.33-.89,5.78.58,6.44.19,16.17-.77,18.77-.82,2.21-.78,3.22.15,4.42a10.77,10.77,0,0,1,2.33,6.94,9.83,9.83,0,0,0,.66,4c.62,1.32.62,1.4-.2,2.52-1,1.32-1,1.86-.31,2.91a8.15,8.15,0,0,1,.74,2.63c.27,2.06,2.79,7.22,3.68,7.53a2.43,2.43,0,0,0,1.67-.43,1.77,1.77,0,0,1,2.17-.16,2.29,2.29,0,0,1,1.2,1.28,5.5,5.5,0,0,0,1.48,2c1.31,1.24,1.66,2.48,1,3.57a2.12,2.12,0,0,0,.08,1.59,3.33,3.33,0,0,1-.27,2.71c-.66,1.71-.39,2.72.78,2.72.81,0,.93.54.46,2.05-.39,1.24-.35,1.55.27,2.21a2.3,2.3,0,0,0,1.2.78c.9,0,2.1,1.66,2.1,2.86a9.88,9.88,0,0,1-1,3.26c-1.09,2.37-1.16,3.34-.39,4.73a12.18,12.18,0,0,1,.58,4.5c0,3-.11,3.68-.77,4.53a3.67,3.67,0,0,0-.78,1.36,2.37,2.37,0,0,0,.78,1.05,2.36,2.36,0,0,1,.77,1.12c0,1.05.82,1.55,2.52,1.59a4.23,4.23,0,0,1,2.41.7c.54.54.5.66-.58,1.2s-1.4,1.09-1.83,4.19c-.27,1.71-.19,1.9.78,2.71,2.71,2.25,2.91,2.56,2.91,4.39,0,1.66.69,2.9,1.86,3.33a8.78,8.78,0,0,1,1.28,2.48c.77,1.9,1.2,2.44,2.36,3a6,6,0,0,1,2.1,1.82,5.17,5.17,0,0,0,1.59,1.63,4,4,0,0,1,1.51,2.56,10.43,10.43,0,0,0,1.43,3.06l.85,1,2.1-1.09c1.94-1,2.17-1.05,4.42-.66a20.34,20.34,0,0,1,3.84,1c1.24.54,1.47.81,1.47,1.78,0,2.41-3.22,2.56-4.58.23-1.27-2.13-3.95-2.09-3.95.12,0,1.24.89,2.13,2.44,2.52s1.32,1-.15,1-1.28.7.54,1.4l2.91,1.12c1.78.66,3.64.74,4.26.12a3.22,3.22,0,0,0,.47-1.87c0-1,.5-2.17,1.74-4.07,3.18-5,2.64-4.57,5.86-4.3,2.83.27,2.87.27,2.87-.66a2.43,2.43,0,0,0-2.64-2.21c-1,0-1.24-.15-1.24-.89a3,3,0,0,0-.93-1.78,7.07,7.07,0,0,1-2.17-4.85c0-1.86,1.24-4.23,2.48-4.81,1.08-.5,1.12-.66,1-5.5l-.08-2.95,2-1.82a17.85,17.85,0,0,1,2.94-2.29c2.06-.93,2.6-4,1.13-6.44-.47-.69-.89-.85-2.64-.85a5.19,5.19,0,0,1-3.64-1.12,14.46,14.46,0,0,1-1.83-1.55,5.84,5.84,0,0,0-1.74-1.21c-1.86-1-2.71-2.48-2.71-4.88a3.35,3.35,0,0,1,1.28-3.06,5.16,5.16,0,0,1,2.83-1.56,8.75,8.75,0,0,0,2.09-.54c.66-.35,1.24-2.91,1.2-5.27,0-.85,0-2.79-.08-4.27v-3c0-.15.47-.27,1-.27,1.24,0,1.24-.7,0-1.9s-1.08-2.13.35-2.29c.74-.08,1-.35,1-.85,0-.93-.66-1.32-2-1.24a5.3,5.3,0,0,1-2.05-.31c-.89-.35-1-.58-1-2.41,0-2,0-2.05-1.86-3.21-2.06-1.32-2.56-2.72-1.4-3.88.93-.89,3.72-.58,5.35.62,1.05.81,1.75.93,5,1.05s3.79.07,4.53-.66c.89-.89,1.13-3.38.39-3.61-.23-.08-.62-1.63-.85-3.49-.35-2.91-.31-3.57.27-5.12.81-2.13,1.7-2.48,4.26-1.62,2.72.93,2.45,1,10.51-1.56a25.94,25.94,0,0,1,4-.93c2.06,0,3.18-1.2,5.59-6,2.9-5.85,2.9-5.77-1.24-11.2a5.19,5.19,0,0,1-1.17-2.71,11.5,11.5,0,0,0-.7-3.14l-.69-1.94-1.83.11a4.55,4.55,0,0,1-4.88-2.71c-.74-1.36-.82-1.86-.47-2.75.55-1.4,1.21-1.32,2.87.27a5.12,5.12,0,0,0,3.34,1.51,10.4,10.4,0,0,1,5.58,2.44c1.36,1.17,2.09,1.17,4.34.08l1.79-.85,1.62.85c2.06,1.09,2.25,1.09,3.42-.16a9,9,0,0,1,2.09-1.58c2.29-1.17,3.3-2.45,3.3-4.23,0-1.44.23-1.9,1.51-3.14,1.9-1.94,2.48-3.06,3.72-7.52,1.16-4.15,1.4-4.5,3.06-4.93a2.65,2.65,0,0,0,1.79-1.51,6.84,6.84,0,0,1,1.62-2.05,3.38,3.38,0,0,0,1.28-2.25c.93-5.82,2.14-8.84,5.59-14,3.72-5.58,3.64-5.35,3.33-10.08-.23-3.3-.46-4.42-1.2-5.7a7.13,7.13,0,0,1-.19-6.67c.77-1.51,2.79-3.53,5.85-5.85a16,16,0,0,0,2.79-2.79c1.36-1.86,2.83-2.64,5.89-3,2.33-.27,2.64-.42,5-2.63,3.84-3.49,4.58-3.8,10.24-3.88a45.12,45.12,0,0,0,5.62-.27,4.89,4.89,0,0,0,1.94-2,20.67,20.67,0,0,1,3.26-3.61l2.13-1.86.12-2.9c.07-1.59.15-3.11.15-3.34s.62-.74,1.32-1c1.82-.77,2.4-1.66,2.29-3.68s.23-2.48,2.36-3.84c2-1.24,2.25-2.17,1.59-5a26,26,0,0,1-.54-4.54c0-2,.12-2.36,1.39-3.6.86-.89,1.28-1.63,1.13-2-1.05-2.79-1.05-5.43.08-6.36s1.28-2.13.69-4.07a32.58,32.58,0,0,1-.77-5,28.56,28.56,0,0,0-.81-4.65c-.7-2-.66-2.68.07-4.15.55-1.09.55-1.32,0-2.79a5,5,0,0,1-.35-2.56,5.74,5.74,0,0,1,3.57-3.53c1.55-.5,2.75-1.4,2.75-2.09a6.83,6.83,0,0,1,1.13-2,9,9,0,0,0,1.35-2.37c.16-.5,1.05-2.56,2-4.57,1.47-3.18,1.86-3.68,2.64-3.68s1.35-.62,2.79-2.76a66.7,66.7,0,0,1,4.19-5.5l2.32-2.72.27-3.91a24,24,0,0,1,1.09-6.21c1.05-2.94,1.05-3.25-.35-7.21a21.17,21.17,0,0,1-1.16-5c0-1.47-.24-1.94-1.9-3.68l-1.94-2-3.8-.12c-3.68-.11-3.84-.15-4.85-1.31a3.79,3.79,0,0,0-1.94-1.28,7.46,7.46,0,0,1-1.12-.16,24.41,24.41,0,0,1-2.48-3.06,30,30,0,0,0-8.61-7.6,4.84,4.84,0,0,1-1.86-1.78c-.74-1.44-1.9-1.52-5.82-.39a20.08,20.08,0,0,1-4.22.77c-1.51,0-7.52-1.82-9.77-3-1.55-.82-3.88-.51-6.48.81-2.09,1.13-2.71,1.05-1.66-.11,1.24-1.36.89-2.87-1.13-5.2a7.53,7.53,0,0,0-2.91-2.4,4.75,4.75,0,0,1-2.09-1.4,2.85,2.85,0,0,0-2.71-1.12,3.94,3.94,0,0,1-3-1c-1.16-1-2.37-1.32-6.47-1.9-2.76-.43-3.46,0-4.7,2.64-1.39,2.87-5.35,6.51-7.13,6.51-.93,0-1.09-.16-1.09-1.09,0-1.35.62-2,1.94-2s2.41-.82,3.41-2.87c.47-1,1.25-2.6,1.71-3.57,1.16-2.36.74-3-2.25-3.29-1.24-.16-4.22-.27-6.63-.31-3.45,0-4.46.07-4.92.58-.66.62-.66.73-.78,4.61,0,2.33,0,2.33-1.24,2.44a6.3,6.3,0,0,0-2.79,1.48,4.24,4.24,0,0,1-3.22,1.32h-1.66l3-2.87c1.63-1.59,3-3.14,3-3.53a10.18,10.18,0,0,1,1-2.68,5.72,5.72,0,0,1,2.48-2.87,3.83,3.83,0,0,0,2-2.24,9.63,9.63,0,0,1,1.55-2.6c1.44-1.71,2.41-3.65,2.25-4.65-.07-.66-.66-1-2.56-1.63a9.25,9.25,0,0,1-2.79-1.36,19,19,0,0,1-.5-3.61c-.19-2.52-.39-3.25-1.32-4.45s-1.12-1.94-1.28-4.31L325.44,87l-1.28-.31c-1.13-.31-1.48-.69-2.52-2.94-1.4-3-1.63-3.26-3.14-3a2.5,2.5,0,0,1-2.25-.77,3.92,3.92,0,0,0-2.44-1,2.26,2.26,0,0,1-2.17-1.2,6.74,6.74,0,0,0-5.94-2.52,7.07,7.07,0,0,1-3.29-.35,13.85,13.85,0,0,0-7.41-.12c-2.75.54-4.19.12-5.31-1.67a23.49,23.49,0,0,0-2.91-3.33c-1.63-1.63-2.32-2.06-3.29-2.06a2.72,2.72,0,0,1-2.83-3c0-2.68-3.34-6.75-7.14-8.69a3.05,3.05,0,0,0-3.06-.31c-3,.9-5.12-1-3.26-3,3-3.26.27-6.28-5.7-6.28-3.06,0-3.33-.19-3.33-2.13a2.16,2.16,0,0,1,2.33-2.14c1.86,0,1.86-.81,0-2.05-1.32-.93-3-.81-5,.31a7,7,0,0,1-3.37,1,6.13,6.13,0,0,0-3,.77,5.16,5.16,0,0,1-2,.78c-.39,0-1,.58-1.48,1.32a4.4,4.4,0,0,1-1.28,1.51c-.62.23-3.1-.85-6.12-2.67L236,41.74l-4.15.23c-2.28.16-4.84.35-5.74.47-1.93.27-2.86-.51-2.86-2.37a3.85,3.85,0,0,0-.9-2.36c-.85-1-1.16-1.05-3.8-1.09l-2.87,0,.12-2c.16-2.21-.15-2.56-2.67-3-1-.19-1.52-.08-1.9.39s-.31.81,1,2.17,1.47,1.55.89,2.13a6.4,6.4,0,0,1-2.91.9,6.83,6.83,0,0,0-5.54,3.33c-1.13,1.86-2.14,1.82-1.83,0a2,2,0,0,0-.54-2.13,2.53,2.53,0,0,1-.74-1.24c0-.66,1.09-1.67,2.17-2,1.44-.43,2.87-2,2.87-3.26C206.6,30,205.75,29.53,202.92,30.15Z"/><path class="cls-1" d="M263.75,32.27c0,.82.81,1.21,1.16.59a1,1,0,0,0,.16-.82C264.72,31.5,263.75,31.69,263.75,32.27Z"/><path class="cls-1" d="M265.57,40.74c-1,.35-1.09.54-.89,1.71s.11,1.36-.55,1.71-.73.54-.34,1c.69.85,2.83.54,3-.43a3.75,3.75,0,0,1,.89-1.47c.89-.86,1-2.45.12-2.76S266.93,40.24,265.57,40.74Z"/><path class="cls-1" d="M77.56,115.47c-.78.77-.78.73.23,2.56.78,1.4.81,1.59.23,1.9a2.38,2.38,0,0,0-.85,1.32c-.74,3,2.87,3.5,4.39.66.73-1.36.19-4.5-1-5.9S78.45,114.53,77.56,115.47Z"/><path class="cls-1" d="M84.31,120.48c-.42.54-.38.73.28,1.43a1.49,1.49,0,0,0,1.47.55c.82-.31.62-1.36-.43-2.06C84.94,119.93,84.74,120,84.31,120.48Z"/><path class="cls-1" d="M90,121.29c-.38,1-.27,1.32.47,1.32a1.64,1.64,0,0,0,1.63-1.44C92.08,120.44,90.26,120.55,90,121.29Z"/><path class="cls-1" d="M224.52,406.91c-1,1-1,1.2,0,3.22a4.3,4.3,0,0,1,.46,3.65,7.11,7.11,0,0,0-.15,2.41,5.36,5.36,0,0,0,2.37.5l2.13.12.12-2.41a7,7,0,0,0-.5-3.57,5.91,5.91,0,0,1-.59-2c0-.93-1.63-2.72-2.52-2.72A2.62,2.62,0,0,0,224.52,406.91Z"/><path class="cls-1" d="M281.11,408a6.12,6.12,0,0,0-.2,2c0,1.43.12,1.71,1.09,2.21a5.67,5.67,0,0,0,2.14.58c.81,0,1-.19,1-1.12a1.69,1.69,0,0,0-.47-1.32c-.27-.08-.5-.66-.5-1.29,0-1-.16-1.12-1.44-1.24A2.5,2.5,0,0,0,281.11,408Z"/><path class="cls-1" d="M234.7,424.35c-.78.46.11,2.44,1,2.29a1.24,1.24,0,0,0,.19-2.22A1.46,1.46,0,0,0,234.7,424.35Z"/><path class="cls-1" d="M230,427.18c-1.48,2.45-.74,3.53,2.21,3.34,1.67-.12,1.87-.19,2-1.13.16-1.24-1.59-3.45-2.68-3.45C231,425.94,230.38,426.48,230,427.18Z"/><path class="cls-1" d="M231.32,435a9.07,9.07,0,0,1-2.57,1.94c-1.05.58-1.86,1.28-1.78,1.51s1.08.51,2.44.55a36.94,36.94,0,0,1,4.08.31c1.4.19,1.9.11,2.45-.43.89-.89.54-2.37-1-3.77S232.13,433.78,231.32,435Z"/><path class="cls-1" d="M232,448.7a4.74,4.74,0,0,0-1.29.7,9.33,9.33,0,0,0,1.83,1.16c2.06,1.17,2.56,1,2.37-1C234.77,448,234,447.8,232,448.7Z"/><path class="cls-1" d="M232.68,453.82c-.66.24-.43,1.09.62,2.06a1.9,1.9,0,0,1,.74,2.18c-.2,1.12-.12,1.32.77,1.67,1.09.42,2.91.54,2.91.19a3.74,3.74,0,0,0-.54-1.09,2,2,0,0,1,.74-2.83,1.22,1.22,0,0,0,.12-2A18.9,18.9,0,0,0,232.68,453.82Z"/><path class="cls-1" d="M322.78,470.87c-1.32.24-1.83.82-1,1.13s.82,1-.39,1.94l-1,.82.94.5c.81.43,1,.35,2.75-1.59a8.19,8.19,0,0,0,1.75-2.49C325.62,470.76,324.22,470.6,322.78,470.87Z"/><path class="cls-1" d="M327.56,472.23c-1.52,1.63-1.32,3,.42,3,1.29,0,2.57-.81,2.57-1.59,0-.19.39-.35.89-.35.93,0,2.56-1,2.21-1.28a12.42,12.42,0,0,0-2.71-.47C328.61,471.34,328.33,471.38,327.56,472.23Z"/><path class="cls-1" d="M242.93,473.09c-.31.85,0,2.29.5,2.48s1.4-1.74,1.13-2.52A.91.91,0,0,0,242.93,473.09Z"/><path class="cls-1" d="M275.55,479.85a4.12,4.12,0,0,0-1.32,2.95,2,2,0,0,0,2.88,1.78,7.56,7.56,0,0,1,1.63-.39c.89,0,.62,1.44-.47,2.1a1.64,1.64,0,0,0-.85,1.71c.11,1.05.35,1.17,3.53,1.83.62.11,1.05.42.93.7-.23.69-3.18.77-4.62.11a17,17,0,0,0-4.27-.77c-2.68-.24-3-.2-3.19.46-.38,1.21.16,2,1.33,2a9.94,9.94,0,0,1,2.75.62,25,25,0,0,0,5.13.7,11.3,11.3,0,0,1,3.84.55,2.17,2.17,0,0,0,2.49.11c.51-.54,5.05-1.36,7.34-1.36a7.72,7.72,0,0,1,3.3.78,9.9,9.9,0,0,0,4.39.74c3.19,0,3.88-.35,3.69-1.94-.12-.63-.35-.74-1.44-.67a3.45,3.45,0,0,1-1.94-.42,6.39,6.39,0,0,0-2.48-.82,20.9,20.9,0,0,1-9.71-4.85,8,8,0,0,0-2.88-2,1.47,1.47,0,0,1-1.47-1.91,1.55,1.55,0,0,0-.55-1.55c-.7-.7-1.28-.82-4.19-.82A15.06,15.06,0,0,0,275.55,479.85Z"/><path class="cls-1" d="M248.87,480.19c-.35.55.78,2,2,2.61s5.71.42,6.1-.24c.11-.15-.82-.77-2-1.36C252.6,480.12,249.26,479.57,248.87,480.19Z"/><path class="cls-1" d="M271.75,483.77a1.52,1.52,0,0,0,.54,2.56c1,.31,1.55-.08,1.55-1.16C273.84,483,273,482.45,271.75,483.77Z"/><path class="cls-1" d="M257.53,485.2c-.77.9.08,2.41,1.44,2.57.7.08,1.09.35,1.09.77a1.25,1.25,0,0,0,1.71,1.29c1.24-.39,1.08-2.06-.24-2.57a3.6,3.6,0,0,1-1.55-1.12C259.12,484.89,258.08,484.51,257.53,485.2Z"/><path class="cls-1" d="M289,494.37a5.76,5.76,0,0,0-1.86.82,6,6,0,0,1-1.87.62c-1.32.23-1.32.27-.74,1.08a2,2,0,0,0,1.71.9,8,8,0,0,1,2.49.58,8.33,8.33,0,0,0,2.37.58c.89,0,1-.11.78-1.12l-.24-1.13,2.06.08c1.9,0,2.1,0,2.21-.86.24-1.51-.54-2-3.18-2A16.07,16.07,0,0,0,289,494.37Z"/><path class="cls-1" d="M298.51,497.4c-2.37.5-3.69,1.09-3.69,1.71,0,.85,1.12,1.05,4.35.78s3.76-.7,3-2.14C301.77,497,301,496.89,298.51,497.4Z"/></svg>