<svg id="Layer_1" data-name="Layer 1" xmlns="http://www.w3.org/2000/svg" viewBox="0 0 600 273"><defs><style>.cls-1{fill:#d9d9d9;}</style></defs><title>world</title><path class="cls-1" d="M228.34,62.33a22.36,22.36,0,0,0-5.17.74,48.1,48.1,0,0,1-8.22.73c-6.62.21-17.75,1.38-18.31,1.94-.14.08.05.3.38.38.61.22.79,1.43.23,1.43-.23,0-2.68.3-5.49.6-5.45.65-6.62,1.21-5,2.46.85.64,2.26.94,9.11,2.06,4.65.78,6.62,2.81,4.79,5-1,1.29-.84,1.72,1.08,2.19l1.74.43-2,.35c-1.6.26-2,.52-2,1.21s.23.81,1.59.6,1.6-.13,1.37.39a1.47,1.47,0,0,1-1.32.6A3.53,3.53,0,0,0,198.8,85c-1.08,1.34-1.22,1.86-1.22,5.26,0,4.91,1.13,8.79,2.53,8.79a6.82,6.82,0,0,1,2.59.91c2.34,1.29,4.32.86,6.29-1.51.84-1,2.86-3.19,4.46-4.78l2.91-2.93,4.6-1a20.92,20.92,0,0,0,7.14-2.5c2.49-1.51,13.05-4.83,16.2-5.13,1.32-.13,1.41-.26,1.55-1.94.14-1.94,1.13-3,4.37-4.57,1.12-.6,1.36-.9.94-1.16-.85-.43-.29-2.58.65-2.58s1.27-.78.47-2.12-.89-1.42,2.82-2.54a53.23,53.23,0,0,0,5.4-2l2.58-1.12-3.28.26a42.1,42.1,0,0,0-4.32.47,1.5,1.5,0,0,1-1.41-.43c-.19-.3-2.35-1-4.74-1.51C244.77,61.9,238.38,61.77,228.34,62.33Z" transform="translate(0 -62)"/><path class="cls-1" d="M183,63.28c-3.66.6-15.92,1.68-16.62,1.42a5.09,5.09,0,0,0-2.68,1c-1.36.82-2.06,1-2.2.65-.38-1.08-1-.47-1,1,0,1.89,1.41,2.93,3.43,2.54,2.72-.52.85.69-2.54,1.59-3,.82-3.42.87-4.08.26a6.34,6.34,0,0,0-2.68-.77c-1.73-.13-1.88,0-2.11,1.16s-.47,1.29-1.64,1.29-1.37-.17-1.27-.73c.14-.82-.1-1-2-1.38-1.22-.26-1.55-.13-2.3,1-.47.73-.75,1.42-.61,1.55a27.56,27.56,0,0,0,4.37.64l4.17.44,1-1.17c1-1.12,2.25-1.12,1.78,0s5.12,1.68,8.41,1.21a15.17,15.17,0,0,1,4-.22c1.36.26,3.43-.82,2.77-1.38a22.46,22.46,0,0,0-4.79-.39c-3.94,0-4.36-.08-3.71-.64s1.88-.65,5.31-.69a30.78,30.78,0,0,0,5.07-.3,1.76,1.76,0,0,1,1.27,0c.37.13,2.77-.64,5.3-1.76a59.67,59.67,0,0,1,7.89-2.85c3.06-.77,4.7-1.12,12.82-2.58a10.27,10.27,0,0,0,2.91-.78C203.21,62.89,185.37,62.89,183,63.28Z" transform="translate(0 -62)"/><path class="cls-1" d="M155.46,67.55c-.94.34-1,.51-.57,1.46,1.08,2.2,3.15,1.9,2.87-.39C157.57,67.07,157.2,66.9,155.46,67.55Z" transform="translate(0 -62)"/><path class="cls-1" d="M136.86,68.24a10.37,10.37,0,0,0-2.25,1.5c-.89.82-.89.82.42.82,1.55,0,4.46-1.55,4.23-2.24S138.32,67.5,136.86,68.24Z" transform="translate(0 -62)"/><path class="cls-1" d="M146.72,67.85c-.7.64-.18,1,2.26,1.64,1.92.51,2.77.6,3.52.21,1.31-.64.89-1.08-1.6-1.68S147.15,67.42,146.72,67.85Z" transform="translate(0 -62)"/><path class="cls-1" d="M123.86,70.65c-1.93.47-4.32.95-5.26,1.08-2.16.26-1.88,1,.37,1a3.9,3.9,0,0,1,2.54.86,3.42,3.42,0,0,0,1.83.86,6.62,6.62,0,0,1,2.3.73c1.32.69,1.55.69,3.85,0a21.67,21.67,0,0,1,4.79-.73c2.35,0,4.13-.56,4.13-1.29,0-.26-.33-.43-.75-.43s-.66-.26-.47-.65c.38-.9-.75-.82-2.77.26-1.74,1-2.39,1-5.59-.17-1-.35-1.59-.74-1.26-.91.56-.34.7-1.59.18-1.51C127.52,69.79,125.78,70.18,123.86,70.65Z" transform="translate(0 -62)"/><path class="cls-1" d="M408.89,70.52c-.66.17-1.18.52-1.18.82,0,1-1.31,1.38-4.27,1.38S393.2,73.79,392,74.44c-.61.35-.61.43.14.65,1.74.64.61,1.07-2.82,1.07l-3.66,0,1.64,1.25a5.7,5.7,0,0,0,2.82,1.29c1.08,0,1.08.09.28.52-.65.34-1.26.3-2.48-.26-1.55-.69-4.89-1-5.45-.43s.23,1.46,1.22,1.46c.7,0,.84.13.47.48-.89.82-2.44,0-3.43-1.81C380.19,77.76,379.4,77,379,77c-.65,0-.61.17.29,1s.93,1,.32,1.25c-1.08.39-.89,1.34.33,1.81a2.18,2.18,0,0,1,1.18,1.38c.23,1.51,1.26,2,3,1.46,1-.34,1.65-.34,2,0s-.14.6-1.45.47a.82.82,0,0,0-.66,1.43c.94,1-.33,2.84-1.92,2.84-1.41,0-1.79-.6-.61-1,1-.35.89-2.55-.24-3.19a6.15,6.15,0,0,1-1.83-2.2,4.84,4.84,0,0,0-1.69-1.9A1.57,1.57,0,0,1,377,79c0-.78-.23-1.08-.89-1.08a2.63,2.63,0,0,1-1.64-.69c-1.13-1-2.54-.39-2.91,1.33a2.63,2.63,0,0,1-1,1.73c-.66.21-.66.3,0,1a4.72,4.72,0,0,1,1,1.46c.14.39.94.82,1.74,1,1.31.25,2.35,1.24,1.78,1.72a18,18,0,0,1-3.71-.91,35.83,35.83,0,0,0-6-1.33,12.73,12.73,0,0,1-3.62-.82,4.11,4.11,0,0,0-1.78-.6c-1.32,0-.71.73,1.22,1.42,1.73.6,1.87.82,1.36,1.38s-.71.6-1.13-.18-.7-.77-1.45-.38a10.14,10.14,0,0,1-2.59.82,12.89,12.89,0,0,0-2.44.6c-.61.21-.84.08-.84-.39a.72.72,0,0,0-.76-.69c-1.17,0-6.95,2.2-7.51,2.85a2.34,2.34,0,0,1-2.68.3c-.18-.13-.09-.52.19-.86.85-.91-.37-1.86-2.39-1.86H339l1.13,2c1.27,2.25,1.17,2.68-.42,2a1.82,1.82,0,0,0-2.16.34,3.77,3.77,0,0,1-1.79.82c-.47,0-.56.26-.37.82.28.91-.47,1.64-.94.91-.38-.56-4-.56-4,0,0,.21.51.51,1.17.69s1.17.47,1.17.69c0,.56-2.16.08-4-.91-.79-.43-1.41-1.08-1.41-1.59a1.88,1.88,0,0,0-.93-1.34c-.9-.52-.9-.52.23-.52.66,0,2.35.18,3.76.35,3.28.47,6.1-.39,6.1-1.85,0-.87-.37-1.08-2.68-1.51-1.5-.3-5-1.12-7.79-1.81a25.83,25.83,0,0,0-5.82-1.08c-.47.17-.61,0-.38-.56s-.09-.9-2-1.25c-1.55-.3-2.44-.3-2.82,0a4.94,4.94,0,0,1-2.63.22c-2.25-.31-7.6.81-12.86,2.62-3.24,1.12-4.28,1.81-2.73,1.81.38,0,.71.18.71.44a8,8,0,0,1-2.87,2.58c-.42,0-2.3,2.93-2.3,3.53,0,1-1.5,2.07-2.35,1.64-2.39-1.16-7.51,2.2-7.51,5,0,.82.28,1.59.61,1.72s.56.69.42,1.42c-.14,1,0,1.3,1.46,1.9,2.11.95,2.07.95,4.51-.56s2.86-1.59,2.86-.65a6.12,6.12,0,0,0,1.18,2.33c1.22,1.64,1.17,3.06,0,3.06a5.13,5.13,0,0,0-1.32.26c-.56.17-.66,0-.47-.6s0-1-.28-1.12a.72.72,0,0,1-.19-.91c.42-1.08-1.64-.77-2.91.43s-1.46,2.33-.42,4.18c.89,1.64.51,2.07-2.21,2.37-3.05.35-4.55,1.21-4.74,2.59-.1,1-.61,1.42-2.63,2.28-1.32.6-2.58,1.42-2.72,1.85a3.24,3.24,0,0,1-1.74,1.34,2.78,2.78,0,0,1-2.77,0c-1.46-.65-1.51-.61-.89.86.42,1,.42,1.07-1.37.86-2.06-.26-4.22.13-4.22.73A5.26,5.26,0,0,0,267,124.6c2.82,1.29,4,3.36,3.57,6.12-.19,1.24-.56,1.93-1.13,2.11-1.22.34-8.59.13-9.53-.3a2.8,2.8,0,0,0-2.25.17c-1.36.56-1.41.64-1.13,2.71a8.22,8.22,0,0,1-.66,4.53c-.61,1.59-.75,2.58-.47,3.1a4.31,4.31,0,0,1,.43,1.85c0,1.08.09,1.12,1.83.86s1.88-.17,2.72,1.17.89,1.5.14,3a9.65,9.65,0,0,1-3.33,3.32c-2.87,1.9-3.71,3.15-3.71,5.6,0,1.42-.33,1.94-2.35,3.66a8.73,8.73,0,0,1-3.24,2,2,2,0,0,0-1.5.94,17,17,0,0,1-2.16,2.63c-.9.91-1.51,1.94-1.36,2.24s-.38,1.08-1.13,1.73a5.65,5.65,0,0,0-1.6,2.58,4.19,4.19,0,0,1-1,1.94c-.9.69-.9,2.59,0,3.71.47.56.52,1,.19,1.33s-.29.78,0,1.38a4.62,4.62,0,0,1,.52,2.07c-.05,1.59-1.64,5.86-2.3,6.08s-.61,1.25.23,1.55c.57.21.71.6.47,1.72-.37,1.9.38,3.62,1.79,4.09,1.59.56,4.32,3.8,5,6,.61,2,1.22,2.5,7.33,6.47l3.38,2.19,2-.81c2.2-.91,6.9-1.17,8.36-.44.7.35,1.69.13,4.41-1.07,6.25-2.72,9.58-2.42,11.27,1l.8,1.68,2.49-.22a5.91,5.91,0,0,1,3.75.56c1.08.65,1.22,1,1.22,3.28a13.27,13.27,0,0,1-.89,4.61l-.94,2.11,2.63,3.62c3.15,4.27,6.48,11.46,5.73,12.28-.33.39-.23,1,.28,2.11,1,2.24.89,3.88-.51,6.9-3.1,6.72-3,8.79.94,16.37,2.39,4.7,2.62,5.43,2.62,8.1s.24,3.32,1.79,6c3.71,6.64,5,9.78,3.85,9.78-.61,0,1.5,3.75,2.3,4.1a12.22,12.22,0,0,0,3.66-.48,15.57,15.57,0,0,1,4.46-.43,5,5,0,0,0,2.73-.39,7.92,7.92,0,0,1,2.72-.64c1.41,0,3.38-1.73,9.3-8,3.1-3.31,3.1-3.31,3.43-6.16.28-2.32.37-2.45,2.72-3.83,2.07-1.25,2.49-1.73,2.72-3.15a13.83,13.83,0,0,0-.28-4.48l-.61-2.8,2.82-2.37a28.6,28.6,0,0,1,4.88-3.4c3.34-1.64,3.67-2.16,4-6.51.28-3.58.19-4.27-1.22-8.83-2-6.38-2-7.67-.14-11.34,1.64-3.18,7.93-10.12,11.22-12.41,2.07-1.42,7-8.27,9.39-13,2-4.05,2-8.75,0-7.2a14.74,14.74,0,0,1-3.38.86,39.78,39.78,0,0,0-5.49,1.25l-2.68.82L357,199.4c-.71-.69-1.08-1.42-.94-1.81.33-.78-3.8-5.43-6.9-7.76a6.7,6.7,0,0,1-2.73-3.53,7.55,7.55,0,0,0-1.69-2.89,3,3,0,0,1-1.13-2.54c0-1.12-.7-2.71-2.3-5.26-1.26-2-3.05-5.25-3.94-7.15-1.64-3.45-1.64-3.49-.66-3.79,1.22-.35,3.2,1.64,6,6a18.47,18.47,0,0,0,2.26,3.14,5.72,5.72,0,0,1,1,2.59,6.12,6.12,0,0,0,2.4,4,9,9,0,0,1,2.11,2.46,11.11,11.11,0,0,0,1.88,2.54c1.83,1.81,2.3,3.62.66,2.24-.75-.65-.94-.65-.94-.13a2.5,2.5,0,0,0,.94,1.42,11.22,11.22,0,0,1,1.92,3.62,11,11,0,0,0,1.55,3.15c.71.47,3.24-.05,3.85-.78a3.07,3.07,0,0,1,2-.6c1.32,0,2.25-.3,4.27-1.38.38-.22,2-.95,3.57-1.68s3-1.64,3.1-2,1.22-1,2.87-1.5,2.72-1,2.91-1.6.56-.86.94-.86c1,0,3.52-2.59,3.52-3.66a1.13,1.13,0,0,1,1-1.21c.57-.13.85-.43.66-.69s.14-1,.66-1.72a4.63,4.63,0,0,0,1-1.73c0-.77-3-3-4-3.06a3.34,3.34,0,0,1-3.05-3.61c0-1.51-.42-1.43-2.58.6-1.79,1.68-4.88,2.93-5.87,2.37-.28-.13-.47-.69-.47-1.21a3.56,3.56,0,0,0-.8-2c-.7-.95-.8-1-1.36-.3s-.61.64-1.31-.26a3.3,3.3,0,0,1-.76-1.51A7.14,7.14,0,0,0,365,165c-1.88-1.85-2.16-3.62-.75-4.35,1.83-.91,2.68-.52,4.32,2a9.14,9.14,0,0,0,4.37,3.84c2.81,1.42,3.85,1.46,5.63.38.94-.6,2.91,0,2.4.69-.94,1.43,4.08,2.55,12.67,2.85l5.64.21,1.88,1.64a17.74,17.74,0,0,0,3.52,2.46c.89.38,1.36.81,1.08.9-1,.35-.66,1.29,1,2.67,1.46,1.17,1.79,1.25,2.82.82.66-.26,1.17-.82,1.17-1.25a1.34,1.34,0,0,1,.43-1c.47-.22.65.56,1.22,4.52.37,2.93,2.2,7.71,5.35,14.39a78.43,78.43,0,0,1,3.33,7.63c.71,2.33,2.12,2.67,3.76.82,1.08-1.21,1.36-1.34,2.16-.86s.89,1,.94,2.93.28,2.54.94,3,.94.43,1.64-.13a6,6,0,0,0,1.32-1.89c.37-1.08.23-1.51-.9-2.93-1.64-2.07-2.34-2.55-2.81-1.81s-1.41.21-1.41-.65a.94.94,0,0,1,.66-.78c.51-.17.61-1.42.56-5.73l-.05-5.47,1.27-.39a2.5,2.5,0,0,0,1.55-1.16,12.85,12.85,0,0,1,2.77-2.76,11.52,11.52,0,0,0,2.86-2.89,3.66,3.66,0,0,1,1.7-1.5c.93-.48,1.36-1,1.36-1.68,0-1.47.8-1.86,4-1.9,2.21,0,3-.22,3.57-.9.89-1,1.45-.65,2.06,1.24s2.54,3.88,3.34,3.58c.61-.21.7-.09.42.69s0,1.16.89,1.81c1,.78,1.22,1.21,1.22,3.23s.1,2.33,1.22,2.59a2.29,2.29,0,0,0,2.21-.56c2.72-2.16,2.49-2.29,4,2.32,1.83,5.48,2.44,8,2,8.54a9.88,9.88,0,0,0-.33,3.23c0,2.41.09,2.8.8,2.67,1.27-.17,4.6,4.87,4.27,6.46s1.6,4.22,3.9,5.34a8.5,8.5,0,0,1,2.35,1.77c1.64,2.33,2.2.3.65-2.45a8.2,8.2,0,0,1-.94-3.19c0-1.68-2.53-4.79-5.35-6.55-1.13-.74-1.69-1.38-1.69-2.11a4.58,4.58,0,0,0-1.22-2.33l-1.22-1.34.84-3.1c.43-1.72.85-3.4.94-3.7.33-1,1.37-.26,1.27.94-.09,1,0,1.12.89.91s1.46.17,3,1.59a7.56,7.56,0,0,1,2.06,2.37c0,.26.47.56,1.08.65s1.08.43,1.08,1,.1,1.21.15,1.64c0,.69.32.6,1.92-.56,1-.74,1.88-1.64,1.88-2s.52-.68,1.13-.86a6.75,6.75,0,0,0,2.39-1.46c1.18-1.17,1.27-1.47,1-3.58C485,192.25,484.16,191,480,187c-2.39-2.37-3.52-3.8-3.52-4.53,0-1.59,3.57-4.57,5.5-4.57,1.26,0,1.5.18,1.64,1.17.19,1.55,1.79,1.94,1.79.47,0-1.08,1.92-2.2,3.09-1.76a2.12,2.12,0,0,0,1.51-.35,24.05,24.05,0,0,1,5-2.37c2.21-.86,5.31-4.65,6.53-7.93,1.45-4,2.11-8.23,1.17-7.45s-2,.69-1.64-.09c.14-.34.42-.95.56-1.29s0-.65-.51-.65-.71-.21-.52-.64c.33-.82-3.43-4.87-5.78-6.29l-1.12-.65,1.5-2c.94-1.25,1.83-2,2.39-2s.94-.26.94-.6c0-.87-3.61-1.08-5.21-.31-1.13.52-1.31.48-2.44-.56a4.21,4.21,0,0,0-2-1.12c-1.18,0-.8-.69,1.64-3,2.25-2.16,3.62-2.5,3.15-.82-.24.86.61,3,1.17,3,.19,0,.56-.34.8-.82.61-1,2.44-1.46,4-.9,1,.34,1.22.69,1.22,1.89,0,1.43.09,1.47,2.35,2,2.06.43,2.35.64,2.06,1.37a1.1,1.1,0,0,0,.57,1.38,2.43,2.43,0,0,1,.8,2c0,2.24.56,2.63,2.58,1.85a10.84,10.84,0,0,0,2.49-1.29c.75-.65.75-.82-.19-2.84-.75-1.69-1.5-2.5-3.66-3.84a22.69,22.69,0,0,1-3-2c-.14-.22.28-.87.89-1.38a3.13,3.13,0,0,0,1.18-2.68c0-1.8,1.45-3.61,2.62-3.18.38.13.94.38,1.32.51,1.13.39,3-1.63,3.76-4.22a21.65,21.65,0,0,0,.75-5.39c0-2.71-.19-3.31-2-6.42-3-5.08-3.19-5.3-5.45-6.24-2.44-1-3.61-1-4-.18-.42,1-.94.78-2.11-1-1-1.55-1-1.55-.75-.3s.28,1.25-.61.52a3.27,3.27,0,0,0-1.65-.73c-1.22,0-1.41-.78-.42-1.94A6.47,6.47,0,0,0,499.7,106c.66-3.32,1.08-3.88,3.43-4.18,3.75-.48,11.88-.31,11.88.21,0,.35.8.43,2.63.26,2.58-.26,3.75-.69,2.72-1-1.74-.56-2.07-1.17-1.5-2.85.47-1.46.7-1.59,2.21-1.59a4.23,4.23,0,0,1,3.19,1.38l1.55,1.38,1.12-1c.94-.81,1.08-1.12.62-1.81-.57-.86-.24-1.5.56-1a4.47,4.47,0,0,1,1.22,1.51c.61,1.08.61,1.42,0,3a11.36,11.36,0,0,0-.7,2.63,1.74,1.74,0,0,1-.85,1.3c-.8.47-.85.64-.23,2.28a9.2,9.2,0,0,0,2.62,3.27c1.09.82,3.71,3,5.87,4.87s4.09,3.23,4.37,3.11c.61-.39.52-2.68-.14-3.06-.37-.22-.23-.48.33-.87.8-.56.8-.64,0-1.42s-.71-.9-.14-1.42.56-.73-.19-1.59c-.94-1-1.22-2-.47-1.55a.62.62,0,0,0,.7-.13c.14-.22-.47-.69-1.36-1.08s-1.64-1-1.64-1.38-.57-.73-1.27-.91c-2.3-.43-2.54-.6-2.4-1.37a1.88,1.88,0,0,0-.46-1.47c-.47-.56-.38-.73.89-1.21s1.64-.47,2.39,0,1.08.39,1.83-.21,1.08-.65,2.63-.13l1.74.6,1-1.72c1.36-2.33,3.89-3.62,5.87-2.93,2.39.82,2.11-.26-.33-1.17-1.22-.47-2.91-1.2-3.76-1.59-1.45-.69-1.45-.73-.56-1.34.56-.34.84-.86.7-1.25-.23-.56.1-.6,2.16-.34a14.63,14.63,0,0,1,4,1.12c1.74,1,6.25,1.64,6.25.9,0-.25-.38-.69-.8-.9-.75-.39-.75-.52-.14-.91,1.17-.73-.47-1.5-4.32-2.11-1.88-.26-7.42-1.46-12.35-2.63s-11.55-2.41-14.79-2.8-6.25-.77-6.76-.86c-.71-.13-.61.09.47,1.12l1.36,1.34-1.18-.26a48.69,48.69,0,0,0-11.22-1.12c-4.37,0-5.16-.13-5.87-.82-1.08-1.08-2.16-1.25-10.38-1.72a52,52,0,0,1-8.68-1c-1.83-.69-14.42-1.85-14.94-1.38-.18.13.19.65.85,1.12l1.17.91-4.36-.3a40.44,40.44,0,0,1-5-.48c-.51-.21-.7.05-.7.87,0,.6-.1,1.12-.19,1.12a22,22,0,0,1-5.92-2.85c-1.17-1-6.48-2.33-9.25-2.33-1,0-1.12.09-.61.65s.14.65-2.72.65a9.7,9.7,0,0,1-3.62-.43c-.14-.26-1.78-.43-3.61-.43-2.54,0-3.57-.22-4.6-.87-1.32-.86-2.35-.81-3.76.22-.71.52-3.76,1.25-3.76.86a14.17,14.17,0,0,1,2.35-1.33c2.3-1.17,2.68-1.64,2-2.55-.56-.73-4.65-1.51-8-1.51-2.44,0-3.28-.17-3.52-.64C415,70.09,411.19,69.92,408.89,70.52Zm-95.33,20a9,9,0,0,1-2.81,2.24L308,94.48l0,2.45c.05,3.71.66,4.1,5.87,3.36,6-.81,7.47-.68,6.29.61-.37.43-1.45.6-3.47.6a10.56,10.56,0,0,0-4,.52l-1.17.56,1.08.77c.79.61,1,1.08.79,1.9-.32,1.25-.84,1.38-1.69.43a2.21,2.21,0,0,0-1.4-.65c-1.41,0-2,1.12-1.69,3,.28,1.64.23,1.72-1.55,2.59s-1.88.81-2.49,0-.71-.78-3.2.21c-3.05,1.21-4,1.25-4.6.35-.37-.65-.56-.65-1.92,0-1.83.86-2.3.65-1-.43a2.51,2.51,0,0,0,.94-1.33c0-.65,2.58-.39,3.66.38.38.26.57.26.57,0a1,1,0,0,0-.47-.73c-.76-.43-.05-1.08,1.22-1.08a2.16,2.16,0,0,0,1.78-2.84c-.23-1,.1-1.47,2.07-2.72.8-.52,1.5-1.08,1.5-1.25s-.66-.64-1.41-1c-2.82-1.47-1.22-5.13,3-6.72.7-.26,1.27-.74,1.27-1.08a3.36,3.36,0,0,1,.75-1.51c.56-.73,1.17-1,2.82-1C312.86,90,313.56,90.13,313.56,90.51Zm26.25,36.72c-.56.81-1.17,1.5-1.41,1.5-1.12,0-.14.91,2.3,2.16,2.82,1.46,6.67,4.57,6.67,5.43a2.12,2.12,0,0,1-.8,1.12c-1.12.9-6.71.38-9.34-.86-1.83-.87-2.07-.87-4.88-.26a14.81,14.81,0,0,0-3.57,1.07c-.75.56-3.2.13-5-.81-1.08-.56-1.22-.87-1-2a3.24,3.24,0,0,1,.66-1.55,3.34,3.34,0,0,0,.66-1.38,2.21,2.21,0,0,1,1-1.38.92.92,0,0,0,.66-.81,3,3,0,0,1,1.08-1.51,2.86,2.86,0,0,1,2.82-.65c1.74.26,2.16.69,1.27,1.21-.33.17,0,.73.75,1.38,1,.86,1.45,1,2.25.64.57-.21,1.5-.6,2.16-.86s.89-.47.38-.47c-2.07-.09-1.18-2.37,1.17-3C340.61,125.42,340.89,125.54,339.81,127.23Zm24.65-.87c1.69.65,2.12,1.55,1.27,2.76a.72.72,0,0,1-.89.3c-.7-.39-2,.17-2,.82a.82.82,0,0,1-.52.73c-.28.09.66,1.12,2.11,2.29,1.79,1.42,2.63,2.41,2.63,3.1,0,1.16.38,1.25,1.22.22.61-.69.71-.69,1.6.3,1.27,1.38,1.17,1.76-.42,1.76-2.07,0-2.16.69-.38,2.24a4.67,4.67,0,0,1,1.88,3.45l.28,2-2.25.31c-2.26.25-4.27-.22-4.27-1.08,0-.22-.57-.43-1.23-.52-1.78-.17-2.48-1.38-1.45-2.41a3,3,0,0,0,.8-1.68,1.22,1.22,0,0,1,.61-1.12c.33-.09-.75-1.3-2.58-2.85-2.54-2.15-3.2-3-3.2-4,0-.82-.23-1.25-.7-1.25a.74.74,0,0,1-.71-.73c0-.82,1.79-2.72,2.54-2.72A8.09,8.09,0,0,0,361,127a18.08,18.08,0,0,1,1.69-1.29C362.73,125.72,363.52,126,364.46,126.36Zm-63.86,6.42c.8.56,2.77,1.73,4.42,2.63,2.67,1.42,2.91,1.68,2.91,3.06A5,5,0,0,0,310.6,143a3,3,0,0,1,1.65,1.94c.23.77.61,1.42.8,1.42a5.5,5.5,0,0,1,1.17.26c.52.17.75,0,.75-.43s.52-1,1.18-1.38c1.5-.91,1.45-1.16-.24-2.76a4.81,4.81,0,0,1-1.41-1.94c0-.77.57-.82,1.32-.13.37.35.75.26,1.41-.51,1.36-1.56,2.58-.87,3.52,2.06,1.31,3.84,1.88,4.83,2.86,4.83a8.8,8.8,0,0,1,2.72.95c1.74.9,1.88.9,2.31.21.56-.9,1.83-.94,3.05-.08a3.09,3.09,0,0,0,3.66,0,4.61,4.61,0,0,1,2.21-.65c1,0,1.27.22,1.5,1.51.42,2.45-1.93,8.27-3.76,9.18a9,9,0,0,1-3.52.17,13.59,13.59,0,0,0-4.55.34c-1.69.48-2.12.39-7.8-1.68-5.44-2-6.24-2.15-7.6-1.72-2.16.65-3.57,2.37-2.92,3.49.8,1.38-1.22,2.28-2.34,1a6,6,0,0,0-2.73-.81,4.77,4.77,0,0,1-2.91-1,8.16,8.16,0,0,0-5.31-2.71,5.8,5.8,0,0,1-3.09-1.25c-1.51-1.17-1.51-1.21-.85-2.67.85-1.86.14-4.49-1.36-4.92a16.15,16.15,0,0,0-6.58.3c-1,.22-3.85.61-6.24.82-4.6.39-5.68.74-7.61,2.33-1.08.91-1.5,1-4.36.78s-3.2-.35-3.06-1.17c.14-1,1.6-1.76,4.46-2.41,2.12-.47,6.06-3.53,5.55-4.31s1.83-4,3.75-4.83c2.16-1,2.68-1.55,2.3-2.58s1.93-1.85,4-1.25c1.46.39,1.84.3,3.67-.82,2.77-1.72,3.66-1.68,4.79.39a12.19,12.19,0,0,0,6,4.87c1.87.82,4.36,3,4.36,3.75a3.91,3.91,0,0,1-1,1.46c-.85,1-1.18,1.12-3,.91-3.15-.43-3.15.51,0,1.76,1.45.61,2.72,1.08,2.82,1.08a2.65,2.65,0,0,0,.18-1.29c0-.95.24-1.29.85-1.29a2.45,2.45,0,0,0,1.64-1.3c.66-1,.75-1.46.33-2.19-.8-1.3,0-2,1.65-1.34,1,.43,1.17.39,1.17-.17,0-.35-1-1-2.21-1.51a6.86,6.86,0,0,1-2.63-1.51,1.62,1.62,0,0,0-1.27-.6c-1,0-5.16-4.53-5.16-5.56a2.39,2.39,0,0,1,.75-1.38c.75-.78.85-.69,2.21,1.16A14,14,0,0,0,300.6,132.78Z" transform="translate(0 -62)"/><path class="cls-1" d="M110.43,75.22a2.08,2.08,0,0,0-.75,1c-.19.39-1.7,1.16-3.34,1.72l-3.1,1,.89,1.07c.8,1,.94,1,3.29.52A12.17,12.17,0,0,0,111,79.18c1.92-1.38,2.11-1,.61,1.51a18.73,18.73,0,0,0-1.41,2.63c0,.13.66.43,1.41.64s1.41.74,1.41,1.08c0,.78,1.08.78,2.72,0,2.44-1.12,9-1.51,12.11-.73a3.39,3.39,0,0,0,3-.48c1.69-1,1.69-.94.71-2.24-.47-.69-.57-1.12-.24-1.33s.52-1,.52-2c0-1.63-.05-1.72-1.22-1.46a5.9,5.9,0,0,0-2.3,1.46c-1,1.08-1.13,1.12-2,.43a7.79,7.79,0,0,0-3.24-1c-2-.26-2.54-.51-3.2-1.55-.8-1.2-.89-1.25-4.88-1.25A19.41,19.41,0,0,0,110.43,75.22Z" transform="translate(0 -62)"/><path class="cls-1" d="M139.68,76a1.55,1.55,0,0,0-.33,1.07c0,.86-.51,1-1.27.3a1,1,0,0,0-1-.17c-.33.17,0,.73.89,1.55,1.51,1.43,2,1.43,5.22-.08,1.12-.52,1.78-1.17,1.92-1.9.24-1,.19-1.08-2.44-1.08A8.41,8.41,0,0,0,139.68,76Z" transform="translate(0 -62)"/><path class="cls-1" d="M147.15,77a20.56,20.56,0,0,1-4.09,3.06c-1.59,1-3,2.15-3.14,2.62-.19.69-.52.82-1.74.61-2-.35-4.93.77-4.93,1.89,0,.78-.33.87-2.91.91-4.42.08-5.22,0-6.3-1-.89-.78-1.17-.82-3.19-.3-1.17.3-2.16.77-2.16,1.08s-1.17.56-4.79.51c-3.85,0-4.6-.13-3.76-.47,2-.91,1.65-1.12-5.11-2.5a12.08,12.08,0,0,0-3.9-.26c-.89.22-1.22.13-1.22-.39s-.24-.56-1.27-.17-1.41.3-1.88-.3A1.14,1.14,0,0,0,95.35,82c-2,.73-8,1.73-9.06,1.51a6.7,6.7,0,0,0-2.82.3c-2.25.73-4,.69-5.44-.13-.75-.47-2.87-.82-6.2-1.08-6.48-.43-12.4-1.37-13.48-2.11-.61-.43-7.28.87-12.91,2.5-2.44.74-5.21,1.42-6.11,1.6-3,.51-3.33.69-3,1.55.14.43.38,1.2.52,1.68.19.73.05.86-1.18.86-.79,0-1.45-.17-1.45-.39s-1.74,0-3.85.56c-3,.74-3.9,1.17-4.18,1.9s-.19,1,.75,1.21a14.06,14.06,0,0,0,3.05.08c1.46-.13,1.83,0,1.65.43a3.05,3.05,0,0,0-.24,1c0,.17-1,.43-2.21.56-6,.56-10.8,2.41-12.49,4.78-1.26,1.77-1,2.46.66,2.11l1.46-.25-.8,1.16c-.75,1-.75,1.12,0,.86.94-.34,4,.17,4,.65S3.65,110.2,2.61,110.2a7.35,7.35,0,0,0-1.78.65c-1.17.6-1.17.6.47.39,5.59-.82,15.17-3.36,18.5-4.91a20.36,20.36,0,0,1,4.74-1.73,15.4,15.4,0,0,0,6.39-2c.66-.56.75-.86.37-1.33s-.28-.56.71-.56a15.14,15.14,0,0,0,3.66-.87,9.63,9.63,0,0,1,2.58-.69c.1.09-.7.65-1.73,1.3a8.9,8.9,0,0,0-1.88,1.29c0,.3,6-1,8.26-1.81s2.4-.82,4-.09a16,16,0,0,0,4.08,1.08c3.48.43,4.09,1.42,3.76,5.9l-.24,3.36h1.6c1.5,0,1.55,0,1.08,1.17a10,10,0,0,0-.19,4.18l.28,3-1.17-.3c-1.83-.43-1.78,1,.09,2.84,1.27,1.21,1.55,1.73,1.13,2.16a21.71,21.71,0,0,0-1.5,2.93,22.62,22.62,0,0,1-3.52,5A13.71,13.71,0,0,0,49.38,135a8.58,8.58,0,0,1-1.55,2.76c-1.41,1.77-1.5,2.93-.84,8.75l.51,4.26,2,1.25c2.3,1.43,2.39,1.64,2.81,6a15.59,15.59,0,0,0,1,4.44c.61,1.12.61,1.29-.14,1.77s-.71.69-.14,1.42a13.88,13.88,0,0,0,2.11,2c1.13.86,1.41,1.42,1.27,2.2s.19,1.55,1.22,2.71a6.59,6.59,0,0,1,1.46,2.16.54.54,0,0,0,.47.56c1,0,1-1.42.14-3.19a16,16,0,0,1-1.27-3.14,46.14,46.14,0,0,0-1.93-5.05c-1.17-2.75-1.5-4.09-1.31-5.21a4.11,4.11,0,0,1,.42-1.51,11.35,11.35,0,0,1,1.27.39c.94.34,1.17.78,1.41,2.67a9.91,9.91,0,0,0,2,4.57,7.6,7.6,0,0,1,1.64,3.58c0,1,.71,2.06,2.82,4.35,2.3,2.45,2.82,3.27,2.82,4.52a5.64,5.64,0,0,1-.42,2.24,2.14,2.14,0,0,0,0,1.64c.47,1.08,4.69,4.05,5.77,4.05a1.4,1.4,0,0,1,1.13.6c.56.86,7,3.75,8.5,3.79a20.55,20.55,0,0,0,3-.3c1.69-.3,1.88-.26,4,1.81s2.72,2.33,8.41,3.71c1.4.34,2.06.77,2.25,1.46a4,4,0,0,0,1.17,1.68,2.74,2.74,0,0,1,.9,1.77c0,1.34,4.79,5.47,6.48,5.6a4.69,4.69,0,0,1,2.25,1c1.27,1.12,2.77.82,2.39-.48-.28-1,1.23-2.37,2.26-2a1.93,1.93,0,0,1,1,1,15,15,0,0,0,.94,1.94c.8,1.38.9,7.33.1,8.66a4.43,4.43,0,0,1-1.41,1.51,2,2,0,0,0-.85,1.42,1.66,1.66,0,0,1-1,1.29c-1.5.61-3.38,5.09-2.77,6.55a3.7,3.7,0,0,0,.94,1.38c.33.17.09.78-.7,1.73-1.13,1.33-1.13,1.55-.62,3.31a9.5,9.5,0,0,0,1.88,3.15,19.27,19.27,0,0,1,2.54,3.66,43.14,43.14,0,0,0,2.58,4.1,56.93,56.93,0,0,1,3.43,5.68c2.16,3.92,2.21,4,7.23,7.24,2.77,1.85,5.17,3.41,5.21,3.49a42.89,42.89,0,0,1,1.08,4.79,69,69,0,0,1,.9,11.46c0,5,.18,7.45.79,9.39.66,2.24.71,3.32.29,8.06s-.38,5.64.32,7a12.13,12.13,0,0,1,1.08,3.88c.43,3.4,1.18,5.6,2,5.6.47,0,.61-.3.38-1.08-.19-.6-.1-1.08.19-1.08s.7,1,1,2.16c.66,2.76.66,2.71-.14,2.45-1-.34-2,.82-1.31,1.55a2.76,2.76,0,0,1,.23,2.16c-.19,1.25-.09,1.59.42,1.59a1.41,1.41,0,0,1,1.37,2.07c-.38.69,0,1.47,2.11,4.31a48.41,48.41,0,0,0,5.54,6c2.77,2.33,3.19,2.59,7.56,3.62l4.6,1.08,1.6-.82c.84-.47,1.55-1,1.55-1.16a7.57,7.57,0,0,0-2.54-1.08,8.6,8.6,0,0,1-4.55-2.76c-2.44-2.54-2.87-3.53-2-4.44a1.34,1.34,0,0,0,.37-1.37,3.65,3.65,0,0,1,.8-2.33c.71-1,.89-1.64.52-1.77a8,8,0,0,1-1.69-1c-1.41-1-1.74-3.66-.52-4.09.47-.17.71-.86.71-1.9a3.15,3.15,0,0,1,.7-2.15c1-.73.89-1.29-.19-1.29a3.19,3.19,0,0,1-2.39-2.46c0-.35.61-.52,1.64-.48,2,.09,3.19-.77,2.87-2.06-.47-1.6.14-2.33,1.83-2.33,3,0,4.46-.52,5.16-1.77,1-1.81.89-4.13-.23-4.69a2.69,2.69,0,0,1-1.22-1.51c-.14-.6-.61-1.08-1-1.08s-.61-.13-.18-.52.75-.3,1.45.26a6.6,6.6,0,0,0,2.87,1c1.55.22,2.11.09,3.05-.73,1.17-1,3.52-5.86,3.52-7.32a.8.8,0,0,1,.89-.87c1.69,0,3.1-2.84,3.2-6.46,0-1.77.09-3.36.09-3.49.09-.6,6.71-4.31,8.92-5,3.76-1.07,5.31-3.27,6.39-8.92a57.06,57.06,0,0,0,.94-7.62c.09-3.15.18-3.41,2.2-6a41,41,0,0,0,3.81-6.11l1.69-3.37-.8-2c-.61-1.51-1.13-2.11-2.26-2.45a20.25,20.25,0,0,1-4.32-2.8l-2.86-2.37-3.9-.09c-2.16-.09-4.27-.17-4.69-.17a.89.89,0,0,1-.85-1c0-.74-.66-1.21-2.91-2.16-2.58-1.08-3-1.12-3.66-.52-1.08.91-1.41.82-1.41-.34,0-.6-.52-1.21-1.41-1.68-1.17-.6-1.36-.95-1.13-1.81a1.33,1.33,0,0,0-.65-1.64,3.82,3.82,0,0,1-1.27-2.28c-.47-2.24-.56-2.41-3-4.27a5.75,5.75,0,0,0-4.46-1.55c-3,0-7.14-1.85-7.8-3.45a4.53,4.53,0,0,0-2.25-1.93,5.35,5.35,0,0,1-2.3-1.73,3.87,3.87,0,0,0-1.69-1.42c-1.41-.6-1.64-1.16-.71-1.55.29-.13-.46-.13-1.78,0a6.52,6.52,0,0,0-2.63.64c-.14.26-1,.13-2-.25a11.55,11.55,0,0,0-3.38-.65c-2,0-4.23-1-4.65-2-.24-.61-.56-.43-1.93,1a6.09,6.09,0,0,0-1.64,2.71c0,.86-.09,1-.7.47s-.61-.69-.24-1a2.69,2.69,0,0,0,.47-1.64,1.8,1.8,0,0,1,.71-1.51c.37-.21.51-.6.32-.86s-.94-.17-2.44.74a14.93,14.93,0,0,1-3.52,1.55c-1.55.3-2.54,1.25-2.58,2.41a4.86,4.86,0,0,1-1.32,2.15l-1.36,1.34-1.69-1.25a4.45,4.45,0,0,0-3.47-1.08,8.23,8.23,0,0,0-2.68.56c-1.93.95-5-2.07-5-4.87a20.92,20.92,0,0,1,.8-4.43l.75-2.93-1.13-.82c-.89-.65-2-.82-5.21-.82H98.08l1.22-2.72c.66-1.46,1.59-3.74,2.11-5a27.76,27.76,0,0,1,1.36-2.84c.28-.35-.23-.56-1.73-.78-3-.34-4.61.48-5.45,2.85-.66,1.81-.75,1.85-4.09,2.67-3.94,1-5,.64-6.76-1.85-2.06-3-2.21-4.57-.7-8.62a23.33,23.33,0,0,0,1.31-5.26c0-1.51.19-1.68,4.37-4.22,3.57-2.16,4.69-2.63,6.29-2.63,1.08,0,2.11.17,2.25.43.52.73,2.26.47,3.39-.52,1.4-1.2,7-1.55,7.51-.47.19.47.7.56,1.78.39a2.4,2.4,0,0,1,2.59.82c.93.94,1.08,1.29.65,2.28-.56,1.29-.09,3.49,1.08,5.08,1.88,2.68,3.2-.21,2.73-6l-.28-3.92,2.25-2.24a34,34,0,0,1,5.54-4.18,36.27,36.27,0,0,0,5.07-3.58c1.5-1.37,1.74-1.85,1.55-3.06-.14-1-.05-1.37.47-1.37s1-.65,1.46-1.47,1-1.38,1.31-1.29,1.22-.52,2-1.42a7.21,7.21,0,0,1,4-2.42,22.7,22.7,0,0,1,3.24-.73c1,0,2-1.12,1.36-1.51s1.36-3.14,2.77-3.62l5.17-1.72c3.9-1.29,3.94-1.29,2.63-.3-1.83,1.38-1.41,2.54.66,2a8.5,8.5,0,0,0,2.06-.82,10.44,10.44,0,0,1,2.73-.9,8.38,8.38,0,0,0,3-1.34,2.81,2.81,0,0,1,1.69-.82c.61,0,.85-.3.85-1.07s-.29-1.08-.66-1.08a2.9,2.9,0,0,0-1.6,1.08c-1.27,1.46-4,1.5-5,.08-.66-1-.61-1.16.51-3.06,1-1.72,1.13-2.15.61-2.45-1.08-.65-2.16-.44-5.49.9L152.73,124l1.65-1.29a5.76,5.76,0,0,1,2.3-1.29,3.29,3.29,0,0,0,1.6-.78c.7-.6,2.11-.77,7.09-1,5.73-.21,6.34-.34,9.11-1.59,1.59-.78,2.91-1.25,2.91-1a29.82,29.82,0,0,1-3.52,3.54,29.78,29.78,0,0,0-3.53,3.53c0,.22,1.37.34,3,.34s3.19.22,3.33.48a.89.89,0,0,0,1,.21,1,1,0,0,1,1.08.48c.37.64.52.64,1.64,0s1.13-.91.75-1.77a3.51,3.51,0,0,1-.14-1.94c.19-.77.05-.9-1.08-.9-1.69,0-2.86-1.81-1.78-2.63.37-.26.52-.65.37-.86s.19-.95.71-1.64c.94-1.16.94-1.34.23-3.23a4.7,4.7,0,0,0-1.78-2.46,14.47,14.47,0,0,1-2.25-1.59c-1-.82-1.18-1.25-.8-1.86.47-.86-.38-6.85-1-6.85a6.77,6.77,0,0,0-1.69,1,18.83,18.83,0,0,1-3.24,1.89c-1.92.91-2,.91-2.91.09a2,2,0,0,1,.28-3.32c.61-.47.52-.6-.51-1a8.42,8.42,0,0,1-2.63-1.85c-1-1-1.55-1.29-1.88-1a6.15,6.15,0,0,1-3.15.18c-2.58-.26-2.63-.26-3.75,1.25A6.39,6.39,0,0,0,153,99.43a5.92,5.92,0,0,1-1.88,2.37c-1.55,1.38-1.74,1.77-1.17,2.07.84.43.89,1.16.19,2.59-.57,1.12-4.75,3.57-6.53,3.83-1,.13-1.27.48-1.83,2.76s-.85,2.71-2.4,3.53l-1.78.91-.28-1c-.14-.56-.43-1.34-.57-1.73s-.09-.64.43-.43a1,1,0,0,0,1-.21c.14-.26-.05-.48-.42-.48-1,0-.94-.77.18-2.5l.94-1.38h-1.55a11.05,11.05,0,0,1-3.38-.86,13.45,13.45,0,0,0-2.44-.86c-.33,0-.61-.17-.61-.43,0-.73-2.35-1.85-3.8-1.81-1.27,0-1.37-.09-1.37-1.68,0-1.29-.18-1.68-.79-1.68-1.74,0,2.58-3.15,7.42-5.39a32.37,32.37,0,0,0,5.54-3,2.36,2.36,0,0,1,1.45-.69c1.22,0,5.17-1.59,6.9-2.84a7.34,7.34,0,0,1,1.84-1c.61,0-2.77,3.06-3.81,3.45-.75.3-.8.39-.14.39a1.1,1.1,0,0,1,.94.69c.14.56.42.51,2-.26s2.07-.82,3-.43c1.55.64,3,.6,3-.13,0-.3-.94-1.29-2.11-2.16-2.35-1.76-2.77-2.67-.94-1.89.89.39,1.31.39,1.73,0a2.55,2.55,0,0,1,1.55-.52c1.27,0,4-1.55,4-2.28a2.45,2.45,0,0,1,.93-1.38c.66-.56.8-1,.47-1.25-1-.91-.37-1.12,3.43-1.12,3.1,0,4,.17,4.93.86,1.32,1,1,1.72-.84,1.72-1.41,0-3,1.08-2.58,1.77s2.25.43,3.24-.43c1.45-1.25,2.81-1.34,3-.17.14.77-.28,1.16-2,1.94-1.46.64-2.16,1.2-2.16,1.76,0,.78-.24.82-2.77.61-2.26-.22-3-.13-3.81.47s-.94.82-.32,1.29,1.08.39,2.62-.17c1.88-.69,2-.69,2.92.09a7.91,7.91,0,0,1,1.59,1.94c.52.86,1.41,1.29,4,2,3.66,1,4.13.73,2.35-1.34-1.23-1.42-.9-1.42,1.73,0,1.36.73,2.07,1,2.07.56a3.19,3.19,0,0,1,.94-1.51l1-.9-1.22-1.34c-1.36-1.51-1.45-1.94-.42-2.71.66-.48.94-.39,2,.82,1.31,1.46,2.58,1.81,3.05.73a1.4,1.4,0,0,1,1.22-.65,3.26,3.26,0,0,0,1.93-.82c.94-.77.94-.77-.8-2.15-1.08-.86-2.07-1.34-2.58-1.21-1.32.31-2.12-.82-1.18-1.63a2.21,2.21,0,0,0,.75-1.25c0-.78-1.55-2-2.53-2a1.2,1.2,0,0,1-1-.64,1.68,1.68,0,0,0-1.37-.65,4,4,0,0,1-2.39-1.38c-1.17-1.33-1.5-1.42-5.07-1.68-4.09-.3-7.19.26-8.78,1.6-.75.64-.9.64-.9.08a2,2,0,0,1,1.08-1.33c1-.69,1-.69,0-.69a13.51,13.51,0,0,0-6.85,2.67c-1.41,1.16-1.65,1.55-1.27,2.33s.75,1,1.88,1,1.4.13,1.17.69a6,6,0,0,0-.28.82c0,.3-4.6,3.14-5.54,3.4-1.27.39-1.46-.78-.28-1.38,1-.52.65-2-.61-2.15-.8-.13-1-.48-1.18-2.16-.28-2.5.1-3,2.58-3.32a14.44,14.44,0,0,0,3.85-1.33l1.88-1H151.7C148.56,75.73,148.27,75.82,147.15,77Z" transform="translate(0 -62)"/><path class="cls-1" d="M240.12,89.48l-1.31.82,1,.51a2.76,2.76,0,0,0,1.69.26c.42-.13.66.05.66.56A1.89,1.89,0,0,0,243.36,93c.66.3,1.18.77,1.18,1,0,.47,3.09,0,6.52-.9,3-.87,4.09-2.25,2.59-3.32a3,3,0,0,0-2.07-.43c-4.37.69-7.56.73-8.69,0C241.48,88.53,241.77,88.49,240.12,89.48Z" transform="translate(0 -62)"/><path class="cls-1" d="M269.42,102.66a1.3,1.3,0,0,1-1.26.48,3.21,3.21,0,0,0-2.12.73c-1.74,1.16-2.49,2.76-1.74,3.58.43.47.38.6-.09.6s-.28.35.42.82,1,1,1,1.29.51.48,1.12.48c.85,0,1.27.34,1.6,1.25.47,1.16.38,1.25-.89,1.5s-2,1.12-.89,1.12c.93,0,.42.78-.71,1-1.5.34-1.5,1.12,0,1.12.66,0,1.32.17,1.46.43s0,.43-.38.43c-.61,0-2.67,1.72-2.67,2.24s2.77-.39,3.52-1a10.64,10.64,0,0,1,3.85-.34c3.52.08,4.6-.26,4.18-1.25a1.37,1.37,0,0,1,.42-1.29c1-.87.66-1.6-.75-1.86-.61-.13-1.17-.47-1.27-.82a20.54,20.54,0,0,0-3.8-5.08c-.66-.43-.66-.56.09-1.29,1.13-1.17,1-1.86-.33-1.86s-2-.64-1-1c.8-.3,1.93-2,1.32-2A2,2,0,0,0,269.42,102.66Z" transform="translate(0 -62)"/><path class="cls-1" d="M259.94,110.46c-.38.78-.8,1-1.46.87a1.25,1.25,0,0,0-.89,2.24c.7.47.66.6-.28,1.2-2.54,1.64-.33,2.63,3.24,1.47,2.67-.82,3.24-1.38,3.24-3.1a1.93,1.93,0,0,1,.47-1.43c1-.6.47-1.85-1-2.11C260.92,109.17,260.5,109.3,259.94,110.46Z" transform="translate(0 -62)"/><path class="cls-1" d="M503.55,171.35a3.61,3.61,0,0,0,.19,4.52l.89,1.3.47-1.17c.89-2.07,1-3.06.61-4.35C505.19,169.88,504.4,169.8,503.55,171.35Z" transform="translate(0 -62)"/><path class="cls-1" d="M109.21,175.74a2.67,2.67,0,0,0-1.32,1.73c0,1.12.71,1,1.74-.18,1.41-1.63,1.88-1.68,5-.68,3.56,1.12,4.36,1.76,4.79,3.66l.28,1.46,3.14-.26a18.18,18.18,0,0,0,4.09-.73c.84-.39.75-.52-.94-1.16a11.16,11.16,0,0,1-3-1.9c-1.32-1.33-4.6-2.28-9.16-2.63C110.9,174.84,110.33,174.92,109.21,175.74Z" transform="translate(0 -62)"/><path class="cls-1" d="M129.87,182.29c-.14,1.21-.33,1.42-1.74,1.6-2.54.34-2.4,1.29.14,1.29,1.17,0,2.16.17,2.16.43,0,.69,1.5.47,2.11-.3.38-.43,1.51-.78,3.24-.91,1.46-.08,2.63-.34,2.63-.56a5.84,5.84,0,0,0-1.64-1.5,3.64,3.64,0,0,0-2.86-.91,7.59,7.59,0,0,1-2.59-.13C130.1,181,130,181,129.87,182.29Z" transform="translate(0 -62)"/><path class="cls-1" d="M484.11,181.17a2.4,2.4,0,0,0-1.5,1c-1.18,2.07,1.69,3.06,3.1,1.08.7-1,.65-2.46-.14-2.33C485.38,181,484.72,181.09,484.11,181.17Z" transform="translate(0 -62)"/><path class="cls-1" d="M506.88,183.5a2,2,0,0,0-.79,1.81,6,6,0,0,1-.71,2.58c-.84,1.51-.42,3.62.8,4.23a1,1,0,0,1,.66,1.38,2.27,2.27,0,0,0,.65,1.89c1.13,1.29,1.41,1.25,1.41-.3,0-1.25.05-1.25,1.27-.73a11.19,11.19,0,0,1,3,2.24c1.5,1.46,1.64,1.76,1,2.11a2.17,2.17,0,0,1-2-.35,8.24,8.24,0,0,0-1.6-.68c-.65,0-.23,2.19.57,2.93a6.34,6.34,0,0,1,1.17,1.5c.33.78,1.13.91,2.4.48,1-.35.94-1-.05-2-.71-.74-.71-.87-.14-1.21,1.08-.65,1.5-.3,2.16,1.77.61,1.76.56,1.93-.38,2.58a2.81,2.81,0,0,1-1.83.52c-1-.26-2.53,1.12-3,2.71-.28,1.17-.23,1.21.43.43a3,3,0,0,1,1.83-.94c.94-.09,1.17.12,1.41,1.33a3.8,3.8,0,0,0,1.69,2.37l1.4.91v-1.56c0-1.24.19-1.5.85-1.42s.75-.08.61-.51-.19-1.64-.23-2.89a4.19,4.19,0,0,0-1.13-3.28,3.7,3.7,0,0,1-1-2.19,2.73,2.73,0,0,0-2.35-3.06c-1.22-.26-1.36-.43-1.13-1.51s.14-1.25-1.74-1.72c-1.12-.31-2.34-.61-2.63-.69-.75-.18-.79-2.93-.14-4.1.38-.56.33-1.33,0-2.54C508.62,183.5,508,182.94,506.88,183.5Z" transform="translate(0 -62)"/><path class="cls-1" d="M500.31,208.88a7.44,7.44,0,0,1-2.44,2.58,15.41,15.41,0,0,0-2.91,2.29,9.64,9.64,0,0,1-2.59,1.89,4.87,4.87,0,0,0-2,1.9c-.71,1.21-.94,1.34-2.45,1.12-1.26-.22-1.59-.13-1.36.34a.7.7,0,0,1-.19.87c-.75.43-.51,2.5.47,4a6,6,0,0,1,.94,2.76c0,2,1.08,2.89,3.2,2.63a7.84,7.84,0,0,1,3.56.47c3.67,1.38,6.3.56,5.78-1.81-.23-1.12-.05-1.59,1.08-2.67a3.51,3.51,0,0,0,1.41-2.8c0-1.25.19-1.55,1.17-1.76,1.41-.31,1.46-.61.24-2s-1.18-3.23.23-5.13a6.15,6.15,0,0,0,1.18-2.15c0-.52-3.71-4.22-4.23-4.22A5.35,5.35,0,0,0,500.31,208.88Z" transform="translate(0 -62)"/><path class="cls-1" d="M458.47,210.9c-.61.56-.23,1.25,1.08,1.94a8.23,8.23,0,0,1,2.58,2.42,6.13,6.13,0,0,0,2.12,2,3.36,3.36,0,0,1,1.64,1.42,57,57,0,0,1,4,8.41,11.93,11.93,0,0,0,6.57,6.59c1.55.64,1.65.64,2.49-.3a2.22,2.22,0,0,0,.61-1.9,4.07,4.07,0,0,1,.66-2.5l.94-1.59H480c-.65,0-1.17-.22-1.17-.43a8.14,8.14,0,0,0-1.92-2.16c-1.51-1.33-1.84-1.85-1.46-2.28s.09-.91-1.46-2.07c-1.08-.82-2.77-1.94-3.71-2.5a7.55,7.55,0,0,1-2.58-2.28c-.61-.91-2.11-1.86-4.88-3.19C460.58,211.51,458.66,210.77,458.47,210.9Z" transform="translate(0 -62)"/><path class="cls-1" d="M516.18,219.26c-1.13.61-1.88.69-3.75.39-3.76-.6-4.28-.52-4.84.65a5.37,5.37,0,0,0-.56,2.15,9.57,9.57,0,0,1-.94,3c-.71,1.6-.8,2.25-.43,3.19a8.56,8.56,0,0,1,.47,3.19c0,1.77.1,2.07.9,2.07,1.36,0,2-1.42,1.59-3.88-.19-1.42-.14-2.15.19-2.15.56,0,1.22.82,1.27,1.51a6.72,6.72,0,0,0,1.5,3.53c1.88,1.38,2.68-1.16,1.22-3.84-.42-.77-.94-1.76-1.17-2.19-.33-.61-.14-1,.75-1.64.7-.47,1.22-1.08,1.22-1.29,0-.56-2.21-.48-3.33.13-.8.47-1,.43-1.65-.31-1.59-2,.19-3.83,2.73-2.8,3.28,1.3,6.76.43,6.38-1.59C517.59,218.53,517.54,218.53,516.18,219.26Z" transform="translate(0 -62)"/><path class="cls-1" d="M529.24,223.4c-.61.09-1.08.34-1.08.52,0,.47,1.59,1.76,2.2,1.76s2.26,1.68,1.88,2c-.56.51,1.08,2.75,1.93,2.62,1.08-.13,7.18,1.81,8.17,2.59,1.17,1,1.64,4,.65,4.52s-.89,1.21.43,1.21a11.06,11.06,0,0,1,3.52,1.08c3.24,1.51,4.32,1.38,6.62-.65a9.45,9.45,0,0,1,2.35-1.72,13.83,13.83,0,0,1,2.58,2.37,9.52,9.52,0,0,0,4.51,3.06,9.75,9.75,0,0,0,2.82.51c.28-.08-.76-1.38-2.31-2.88-3.14-2.93-3.94-4.36-2.44-4.36.47,0,.89-.25.89-.6,0-.82-2.2-2.41-3.33-2.41a.78.78,0,0,1-.89-.82c0-1-2.07-2.5-6.11-4.35-3-1.42-7.7-3-8.87-3a8.52,8.52,0,0,0-2.63,2l-2,2-1.69-1.68c-1.36-1.34-1.64-1.9-1.41-2.89.28-1.16.24-1.16-2.25-1.12C531.4,223.18,529.8,223.31,529.24,223.4Z" transform="translate(0 -62)"/><path class="cls-1" d="M480.49,234.17c-2.25.52-2.81,1.85-.75,1.85a5.33,5.33,0,0,1,2.77,1.08,9.56,9.56,0,0,0,4.18,1.51c6.44,1,8.88,1.42,9.63,1.77a4.29,4.29,0,0,0,2.77-.22,4.25,4.25,0,0,1,2.82-.26,14.19,14.19,0,0,0,4.32.35,17.8,17.8,0,0,1,4,.26,3.78,3.78,0,0,0,2.06-.09,23.72,23.72,0,0,1,3.15-.69l1.64-.26-1.13.91c-.61.47-1.4,1-1.69,1.16a2.67,2.67,0,0,0-.94,1.34c-.28.9,0,.77,2.21-.95a20.28,20.28,0,0,1,3.9-2.46c1.27-.43,1.31-.56.56-.9-.56-.3-1.64-.26-3.38.08-1.92.39-2.86.39-3.76,0a3.06,3.06,0,0,0-2.67.08,6.65,6.65,0,0,1-4.13.17,46.07,46.07,0,0,0-5.4-.56c-5.17-.12-8.27-1-6.11-1.76,1.22-.43.24-1-1.69-1a6.57,6.57,0,0,1-3.05-.73c-1.13-.65-1.17-.65-1.46.22-.37,1.38-3.1,1.29-4.93-.13a6,6,0,0,0-1.69-1C481.57,234,481,234.09,480.49,234.17Z" transform="translate(0 -62)"/><path class="cls-1" d="M530.17,245.5c.29,1.12.15,1.3-1,1.51a12.72,12.72,0,0,0-2,.61c-.9.43-2.82,3.53-2.54,4,.14.18.19.35.09.35s-.84.17-1.69.39c-1.4.38-1.59.3-2.06-.65-1-2-3.9-1.77-4.23.39a1.05,1.05,0,0,1-.89.94,7,7,0,0,0-2.68,1.86c-1.59,1.51-2,1.72-2.25,1.2s-.42-.56-1.17.22a3.12,3.12,0,0,0-.9,1.81c0,1.64-3.28,4-7.27,5.17a34,34,0,0,1-4.37,1.16,11.59,11.59,0,0,0-2.82,1.38,9.9,9.9,0,0,1-2.91,1.42c-.47,0-.75.56-.85,1.73a4.85,4.85,0,0,1-.84,2.41c-.52.52-.56,1-.24,1.81s.29,1.21-.51,1.68-.89.73-.42,1.6c.37.6.61,3,.65,6,.1,4.09,0,5.34-.8,6.85-.47,1-1.17,1.81-1.55,1.81-1.17,0-.65,1.68.8,2.37,1.93.9,2.82.82,5.78-.65a10.7,10.7,0,0,1,5.92-1.29c2.3,0,3.38-.17,3.66-.6,1.08-1.68,9.11-3.92,13.85-3.84,4.09,0,8.08,2.85,7.14,5-.52,1.21,1.17,1.38,2.3.18s3.61-2.68,3.61-2.07a4.57,4.57,0,0,1-1.4,1.59c-1.7,1.38-1.88,2.24-.24,1.25,1.46-.9,1.6-.86,1.32.17a4.1,4.1,0,0,1-2.07,1.6c-1.93.82-2.21,1.2-1.17,1.55.37.13,1.12-.22,1.73-.82,1.51-1.47,2-1.29,1.69.65a4.09,4.09,0,0,0,3.29,4.74c2.44.64,3.66.6,4.37-.18s1.41-.82,1.41,0a1.72,1.72,0,0,0,.61,1.08c.51.34,1.12.13,2.72-1a9.69,9.69,0,0,1,3.9-1.68,5,5,0,0,0,2.11-.61c1.5-2.11,8.22-9.13,9.11-9.56,1.93-.95,5-6.29,6.43-11l1.27-4.36L563.8,272a10.18,10.18,0,0,1-1.6-2.88,3.54,3.54,0,0,0-1.27-1.81,3,3,0,0,1-1.08-2.07A6.32,6.32,0,0,0,558,262a11.3,11.3,0,0,1-3.05-7.23c0-2.25-.8-3.71-1.83-3.41-.75.22-.94,0-1.22-1.59-1.27-7.33-2.3-7.29-3.71.3-.8,4.22-2.77,8-4.13,8s-2.91-1.08-5.73-3.79l-2.49-2.37,1.36-1.85a10.22,10.22,0,0,1,1.83-2.12c.52-.34.52-.69,0-1.46-.33-.47-.7-.47-2,0s-1.83.43-3.52-.39a8.1,8.1,0,0,1-2.25-1.34C530.55,243.69,529.94,244.25,530.17,245.5Z" transform="translate(0 -62)"/><path class="cls-1" d="M366.53,248.56c-.89,1-2.07,2.5-2.63,3.24a8.92,8.92,0,0,1-3.57,2.37c-3.19,1.24-4.37,3.1-3.57,5.55a6,6,0,0,1-.65,5.78,11.2,11.2,0,0,0-1.27,6.63c.09,1,2.49,2.67,3.85,2.67,2.49,0,3.94-1.85,5.63-7.1.8-2.63,1.65-5.52,1.88-6.47a18.33,18.33,0,0,1,1.13-3.4,4.71,4.71,0,0,0,.51-2.54c-.14-.56.05-.91.71-1s.89-.6.89-2.89a10.57,10.57,0,0,0-.66-3.66l-.61-1Z" transform="translate(0 -62)"/><path class="cls-1" d="M593.71,294.54a21.67,21.67,0,0,0-.28,2.76,5.54,5.54,0,0,1-2.92,4.69c-1.22.48-1.26.56-.61,1.25,1,1,.9,1.55-.32,2.33s-1.79.86-1.79,0c0-.56-.19-.6-.94-.21a2.79,2.79,0,0,1-1.55.34,5.42,5.42,0,0,0-2.44,1.21,50.87,50.87,0,0,1-5,2.84c-1.69.86-5,2.63-7.42,4l-4.36,2.46,1.45.81c1.46.82,1.51.82,3.48-.08a40.74,40.74,0,0,0,4.55-2.76,14,14,0,0,1,4.09-2.15c.89-.18,1.64-.61,1.78-1.12a4.31,4.31,0,0,1,1.79-1.51,13.69,13.69,0,0,0,2.53-1.55,5.1,5.1,0,0,1,2.82-.95c2.07-.09,6-2.33,6.48-3.71a1.33,1.33,0,0,1,1.17-.86c.9,0,3.76-2.33,3.76-3.1,0-.26-.38-.3-.8-.13-1.55.56-2.25.43-2.72-.56-.24-.52-.61-.95-.85-.95s-.23-.86-.09-1.89c.28-1.64.19-2-.61-2.37S594,293.12,593.71,294.54Z" transform="translate(0 -62)"/><path class="cls-1" d="M533.84,307.34c-1.22,3.57-1.22,3.57.09,3.75,1.79.3,4.37-1.34,5.73-3.58l1.22-2.11-2.16.26c-1.64.21-2.35.13-3-.48C534.82,304.49,534.78,304.54,533.84,307.34Z" transform="translate(0 -62)"/></svg>